<svg xmlns="http://www.w3.org/2000/svg" width="34" height="35" fill="none"><rect width="33.411" height="33.411" x="-.007" y=".919" fill="#F5F7FA" rx="5.569"/><g fill="#3A3B7B" clip-path="url(#a)"><path d="M30.617 10.255c0 .023 0 .053-.006.07-.03.23-.03.46-.012.695.012.059.024.117.073.165.08.088.203.07.252-.036a.237.237 0 0 0 .012-.159 2.895 2.895 0 0 1-.08-.688v-.047c.068-.006.129-.012.184-.012a.303.303 0 0 0 .11-.03c.093-.046.093-.146-.006-.194a.312.312 0 0 0-.128-.023c-.154.006-.307.006-.46.006-.055 0-.11.006-.166.011-.03.006-.067.006-.092.024-.043.018-.067.047-.067.088.006.041.024.065.067.083a.145.145 0 0 0 .086.023c.074.006.154.018.233.024Zm1.686.27c0 .006.006.012.006.012.025.16.05.312.068.465.006.053.012.1.049.141.08.1.202.088.257-.017a.253.253 0 0 0 .019-.165c-.037-.177-.055-.353-.092-.524a3.592 3.592 0 0 0-.086-.3.143.143 0 0 0-.135-.106.15.15 0 0 0-.16.077.74.74 0 0 0-.091.147c-.043.094-.08.188-.13.276a.175.175 0 0 1-.024.06c-.006-.013-.012-.018-.012-.018-.08-.148-.153-.295-.233-.436-.012-.012-.018-.024-.024-.035-.037-.053-.08-.083-.148-.083a.181.181 0 0 0-.14.095c-.013.023-.013.04-.019.064-.024.189-.055.377-.08.565a2.754 2.754 0 0 0-.018.318.114.114 0 0 0 .012.076.11.11 0 0 0 .098.083c.062.006.104-.012.123-.06a.331.331 0 0 0 .03-.093c.025-.106.043-.206.062-.306.012-.059.018-.106.037-.17.012.023.024.04.037.058.055.07.11.141.177.2.068.047.123.041.178-.012.012-.011.019-.017.03-.03.056-.082.123-.164.178-.246.013-.012.019-.024.031-.036ZM18.177 10.37c-.043.112-.05.193-.031.26.022.09.078.12.155.097.72-.17 2.299.315 2.883.45.138.028.25-.143.156-.296-.137-.148-1.715-.783-2.318-.818-.236-.013-.658-.07-.845.307ZM24.348 8.315c.077.042.12.083.141.128.032.06.015.1-.038.122-.476.223-1.11 1.183-1.365 1.514-.062.076-.205.031-.227-.094.005-.141.566-1.183.88-1.467.123-.11.326-.328.61-.203ZM20.558 7.842c.092-.067.188-.09.237-.047.718.59 1.099 1.523 1.335 2.378.008.02.009.049.002.078-.003.026-.022.053-.053.074-.033.023-.062.03-.075.01-.315-.411-2.112-2.01-1.446-2.493ZM5.35 18.063c.171-.123.358-.226.556-.305a1.03 1.03 0 0 1 .63.027c.2.074.371.209.485.384a.894.894 0 0 1-.156 1.102 1.875 1.875 0 0 1-.385.3c-.63.39-1.265.76-1.9 1.15-.13.098-.268.185-.412.262-.22.105-.471.133-.71.08a1.058 1.058 0 0 1-.6-.374 2.086 2.086 0 0 1-.279-.433c-.601-1.215-1.226-2.423-1.805-3.659-.268-.535-.485-1.15-.697-1.744a.716.716 0 0 1-.05-.557.751.751 0 0 1 .37-.433.803.803 0 0 1 .579-.063.77.77 0 0 1 .46.342c.313.398.589.82.826 1.262.602 1.07 1.176 2.14 1.755 3.177.034.058.071.113.112.166a5.472 5.472 0 0 0 1.22-.684ZM11.572 17.69c-1.376 1.545-3.684 1.155-4.843-.835-.824-1.412-.97-3.744.825-5.215a3.013 3.013 0 0 1 1.332-.61 2.986 2.986 0 0 1 1.752.291c.538.272.972.7 1.24 1.223.982 1.711.842 3.894-.306 5.145Zm-.557-3.606c-.146-.42-.44-.78-.83-1.016a1.218 1.218 0 0 0-1.488.091c-.797.68-.965 2.29-.385 3.247.074.156.182.295.318.406a1.277 1.277 0 0 0 1.488.08c.432-.321.749-.764.906-1.266a2.427 2.427 0 0 0-.026-1.536l.017-.006ZM17.19 14.758a1.126 1.126 0 0 1-.825-.15.807.807 0 0 1-.265-.232.767.767 0 0 1-.117-.662.777.777 0 0 1 .17-.304c.138-.176.335-.302.557-.358a8.38 8.38 0 0 1 1.784-.294 1.045 1.045 0 0 1 .747.208c.104.08.19.18.253.294a.934.934 0 0 1 .114.364c.174.627.193 1.285.056 1.92-.502 2.055-2.23 2.76-4.169 2.103a2.886 2.886 0 0 1-1.37-.942 4.349 4.349 0 0 1-.965-1.824 3.69 3.69 0 0 1 .044-1.81 3.797 3.797 0 0 1 .904-1.591c.407-.493.935-.881 1.538-1.129.38-.201.826-.259 1.248-.16a.564.564 0 0 1 .252.143.514.514 0 0 1-.023.766c-.14.12-.29.228-.452.32a4.573 4.573 0 0 0-1.27 1.15 2.46 2.46 0 0 0-.455.995c-.075.36-.066.73.026 1.086a2.4 2.4 0 0 0 .802 1.247c1.226 1.07 2.82.037 2.541-1.423-.407.096-.763.198-1.126.283ZM24.68 17.775c-1.812 1.07-3.874 0-4.325-2.246-.329-1.605.295-3.851 2.48-4.707.465-.178.969-.241 1.465-.182a2.936 2.936 0 0 1 1.566.806c.42.42.694.955.78 1.531.369 1.91-.468 3.948-1.967 4.798Zm.63-3.6c-.001-.444-.165-.874-.463-1.214-.16-.21-.39-.36-.652-.426a1.215 1.215 0 0 0-.786.068c-.981.406-1.672 1.883-1.421 2.968.019.17.077.335.169.482.092.147.216.272.365.368a1.257 1.257 0 0 0 1.02.156 2.628 2.628 0 0 0 1.285-.93 2.46 2.46 0 0 0 .482-1.472ZM28.478 18.224a.739.739 0 0 1-.298.493.8.8 0 0 1-1.087-.14.723.723 0 0 1 .145-1.044.8.8 0 0 1 1.088.14c.125.157.18.356.152.551Zm-.485-7.215a.892.892 0 0 1 .444-.337.933.933 0 0 1 .565-.016.85.85 0 0 1 .472.3.791.791 0 0 1 .17.518 6.132 6.132 0 0 1-.14.888c-.184.99-.363 1.98-.558 2.958-.089.39-.206.765-.334 1.16a.826.826 0 0 1-.217.327.578.578 0 0 1-.758.079.538.538 0 0 1-.173-.207 1.197 1.197 0 0 1-.106-.466c0-.663 0-1.332.045-2 .076-.954.225-1.902.446-2.835.026-.125.075-.245.145-.353v-.016Z"/><path fill-rule="evenodd" d="M2.994 22.522a.711.711 0 0 0-.051.45c.021.2.068.395.14.584.089.23.189.459.312.74l.089.203c.166.38.374.867.652 1.572.08.2.149.402.22.605.028.082.056.164.086.247.104.293.284.557.523.766a.802.802 0 0 0 .387.24.83.83 0 0 0 .469-.007.798.798 0 0 0 .383-.26.747.747 0 0 0 .164-.413c.062-.293.041-.596-.061-.878a14.828 14.828 0 0 0-.562-1.395v-.002a86.03 86.03 0 0 0-1.083-2.143l-.003-.005a1.859 1.859 0 0 0-.42-.49.757.757 0 0 0-.923-.153.75.75 0 0 0-.322.34ZM8.361 20.756a4.071 4.071 0 0 0-1.686-.058c-.434.04-.86.136-1.156.327a.862.862 0 0 0-.34.379.805.805 0 0 0-.021.542c.102.37.234.731.366 1.09l.021.058v.002c.398 1.043.799 2.083 1.203 3.12.047.163.114.32.199.469l.001.003c.112.184.256.35.426.488a.668.668 0 0 0 .648.133.642.642 0 0 0 .284-.19.603.603 0 0 0 .14-.297c.073-.297.05-.61-.068-.893-.036-.096-.065-.194-.095-.297l-.03-.105c.925-.347 1.91-.814 2.256-1.9.136-.376.147-.782.032-1.164a1.923 1.923 0 0 0-.673-.97c-.44-.348-.955-.6-1.507-.737ZM6.834 22.09l.055-.014c.603-.091 1.22.03 1.736.34.228.153.321.322.337.484.017.168-.047.349-.174.523-.24.33-.68.593-1.077.643-.29-.64-.583-1.305-.877-1.976Z" clip-rule="evenodd"/><path d="M12.034 19.586c.656-.291 1.469-.341 2.105-.137.16.045.299.142.393.274.093.132.136.29.122.449a.63.63 0 0 1-.077.295.662.662 0 0 1-.213.233.697.697 0 0 1-.621.08l-.008-.003-.008-.004a.723.723 0 0 0-.165-.06h-.004c-.447-.114-.87.075-1.024.307-.073.11-.082.223-.021.324.066.109.226.231.552.318l.274.07c.257.064.525.13.783.222h.001c1.193.436 1.638 1.338 1.486 2.187-.15.84-.881 1.603-1.98 1.783-.399.085-.815.069-1.206-.048a2.369 2.369 0 0 1-1.024-.618l-.008-.008a.846.846 0 0 1-.174-.372.629.629 0 0 1 .037-.364.657.657 0 0 1 .233-.287.732.732 0 0 1 .782-.058c.122.056.235.128.337.214l.002.002c.18.157.397.198.605.16a.917.917 0 0 0 .539-.318c.127-.158.178-.346.118-.53-.061-.183-.245-.39-.647-.562a3.504 3.504 0 0 0-.328-.11l-.093-.028a7.836 7.836 0 0 1-.255-.078l-.174-.055a4.468 4.468 0 0 1-.456-.16 1.567 1.567 0 0 1-.788-.573 1.465 1.465 0 0 1-.276-.914c.001-.793.521-1.339 1.18-1.631ZM20.352 19.501a.882.882 0 0 0-.81.032.838.838 0 0 0-.295.281.872.872 0 0 0-.134.667c.024.146.05.289.076.43.043.232.085.46.112.691l.001.006c.063.363.096.731.099 1.1v.005c.022.397-.12.788-.393 1.087l-.005.005a.78.78 0 0 1-.343.242.81.81 0 0 1-.804-.155.745.745 0 0 1-.22-.35 3.669 3.669 0 0 1-.14-.866l.138-2.122.007-.085c.005-.065.01-.13.013-.192a.975.975 0 0 0-.021-.27.504.504 0 0 0-.14-.248.706.706 0 0 0-.304-.16c-.23-.065-.424-.063-.585.003a.711.711 0 0 0-.352.33c-.078.14-.128.306-.166.472-.028.124-.05.253-.072.377l-.022.124v.002a8.66 8.66 0 0 0-.102 2.045c.009.37.09.734.237 1.076.167.44.468.821.865 1.094.398.272.873.423 1.362.43.49.009.969-.126 1.376-.386.407-.26.722-.631.904-1.066a3.84 3.84 0 0 0 .35-1.761c-.015-.442-.04-.887-.065-1.33a108.49 108.49 0 0 1-.036-.65 1.031 1.031 0 0 0-.212-.6.844.844 0 0 0-.32-.258ZM24.855 22.83a4.55 4.55 0 0 1-.041.048c-.104-.573-.2-1.146-.296-1.72l-.104-.618-.004-.023-.012-.02c-.024-.037-.027-.074-.027-.152v-.009l-.001-.009a.8.8 0 0 0-.218-.43.856.856 0 0 0-.432-.239.898.898 0 0 0-.5.025.862.862 0 0 0-.4.285c-.085.1-.154.212-.205.33l-.355.771-.003.005c-.296.643-.595 1.29-.885 1.942l-.001.002c-.178.423-.325.869-.472 1.313l-.088.266c-.053.14-.076.289-.068.438a.632.632 0 0 0 .095.38.672.672 0 0 0 .313.264c.139.058.293.07.44.035a.683.683 0 0 0 .368-.23c.12-.14.221-.293.305-.455.245-.483.48-.971.714-1.457.09-.188.178-.357.278-.54l.022.066c.104.443.281.868.524 1.258.046.082.11.154.187.211a.693.693 0 0 0 .559.12.694.694 0 0 0 .265-.119l.156-.112 1.207-.975-.072.436c-.098.6-.195 1.195-.298 1.79-.068.264-.068.54 0 .803.03.149.104.285.215.393a.823.823 0 0 0 .873.165.784.784 0 0 0 .352-.283c.199-.237.323-.524.357-.827.051-.427.109-.86.167-1.293.067-.5.133-.999.19-1.488v-.002c.054-.535.08-1.073.078-1.612a.787.787 0 0 0-.126-.484.84.84 0 0 0-.4-.323.915.915 0 0 0-.548-.057.888.888 0 0 0-.474.264 6.753 6.753 0 0 0-.625.633l-.001.002c-.212.253-.422.51-.63.767l-.38.464Z"/></g><defs><clipPath id="a"><path fill="#fff" d="M-.007 7.773h32.715V27.96H-.007z"/></clipPath></defs></svg>