<svg xmlns="http://www.w3.org/2000/svg" width="35" height="35" fill="none"><rect width="33.411" height="33.411" x=".943" y=".919" fill="#F5F7FA" rx="5.569"/><g fill="#212326" clip-path="url(#a)"><path d="M27.698 9.057c0 .324.266.587.595.587h.594a.591.591 0 0 0 .595-.587.591.591 0 0 0-.595-.587h-.594a.591.591 0 0 0-.595.587ZM10.456 27.264h2.888l-.84-.831a1.196 1.196 0 0 0-.842-.344h-1.206c-4.597 0-8.324-3.681-8.324-8.223 0-4.54 3.727-8.222 8.324-8.222h9.513c4.597 0 8.324 3.681 8.324 8.222 0 4.542-3.727 8.223-8.324 8.223H16.41c-.473 0-.927-.186-1.261-.516l-.985-.973a2.992 2.992 0 0 0-2.102-.86h-1.606c-3.284 0-5.946-2.63-5.946-5.873 0-3.244 2.662-5.874 5.946-5.874h9.513c3.284 0 5.945 2.63 5.945 5.873 0 3.244-2.662 5.874-5.945 5.874h-2.285c-.473 0-.927-.186-1.262-.516l-.985-.974a2.991 2.991 0 0 0-2.102-.86h-2.88c-1.97 0-3.567-1.577-3.567-3.524 0-1.946 1.598-3.523 3.568-3.523h9.513c1.97 0 3.567 1.577 3.567 3.523 0 1.923-1.558 3.486-3.495 3.524h-.87c-.474 0-.927-.185-1.262-.516l-.985-.973a2.986 2.986 0 0 0-1.682-.83l-.03-.03h-4.756c-.657 0-1.19-.526-1.19-1.175 0-.648.533-1.174 1.19-1.174h9.513c.656 0 1.189.526 1.189 1.174 0 .65-.533 1.175-1.19 1.175H17.59l.841.83c.223.221.526.345.841.345h.697c1.313 0 2.378-1.052 2.378-2.35 0-1.297-1.065-2.349-2.378-2.349h-9.513c-1.314 0-2.378 1.052-2.378 2.35 0 1.297 1.064 2.349 2.378 2.349h4.366c.473 0 .927.185 1.261.516l.985.973c.558.55 1.314.86 2.102.86h1.096v-.009c2.489-.152 4.46-2.193 4.46-4.69 0-2.594-2.13-4.698-4.757-4.698h-9.513c-2.627 0-4.757 2.104-4.757 4.698 0 2.596 2.13 4.699 4.757 4.699h2.88c.472 0 .926.186 1.26.516l.986.973c.557.55 1.313.86 2.102.86h2.285c3.94 0 7.134-3.155 7.134-7.048 0-3.892-3.194-7.047-7.134-7.047h-9.513c-3.94 0-7.135 3.155-7.135 7.047 0 3.893 3.194 7.048 7.135 7.048h1.606c.473 0 .927.186 1.261.516l.985.973c.558.551 1.314.86 2.102.86h3.559c5.254 0 9.513-4.207 9.513-9.397s-4.26-9.396-9.513-9.396h-9.513c-5.254 0-9.513 4.207-9.513 9.396 0 5.19 4.259 9.398 9.513 9.398Z"/></g><defs><clipPath id="a"><path fill="#fff" d="M.943 8.47h28.539v18.794H.942z"/></clipPath></defs></svg>