<svg xmlns="http://www.w3.org/2000/svg" width="38" height="35" fill="none"><rect width="33.411" height="33.411" x=".893" y=".919" fill="#F5F7FA" rx="5.569"/><g fill="#394149" clip-path="url(#a)"><path d="M9.485 10.558a5.33 5.33 0 0 0-3.769 1.56l-3.262 3.263a5.33 5.33 0 1 0 7.537 7.537l2.257-2.256 6.574-6.574a2.545 2.545 0 0 1 4.22 1.01l2.075-2.075a5.33 5.33 0 0 0-8.264-.904l-8.83 8.83a2.545 2.545 0 1 1-3.6-3.6l3.262-3.261a2.545 2.545 0 0 1 4.22 1.01l2.075-2.075a5.326 5.326 0 0 0-4.495-2.465Z"/><path d="M19.16 20.95a2.545 2.545 0 0 1-4.22-1.01l-2.075 2.074a5.33 5.33 0 0 0 8.264.904l8.83-8.83a2.545 2.545 0 1 1 3.6 3.6l-3.262 3.261a2.545 2.545 0 0 1-4.22-1.01l-2.075 2.075a5.33 5.33 0 0 0 8.264.904l3.262-3.262a5.33 5.33 0 1 0-7.538-7.537l-8.83 8.83Z"/></g><defs><clipPath id="a"><path fill="#fff" d="M.893 10.558H37.09v13.92H.893z"/></clipPath></defs></svg>