<svg xmlns="http://www.w3.org/2000/svg" width="34" height="35" fill="none"><rect width="33.411" height="33.411" x=".142" y=".919" fill="#E8F5E9" rx="5.569"/><g clip-path="url(#a)"><path fill="#5417D7" fill-rule="evenodd" d="M7.349 1.055a6.96 6.96 0 0 1 6.96 6.96v-6.96h6.961a6.96 6.96 0 1 1 0 13.921 6.96 6.96 0 0 1 4.948 11.857l-.026.026-.023.023a6.939 6.939 0 0 1-4.899 2.016 6.939 6.939 0 0 1-4.873-1.99l-.049-.05-.046-.045a6.938 6.938 0 0 1-1.993-4.876 6.96 6.96 0 0 1-13.921 0v-6.96h6.96a6.96 6.96 0 1 1 0-13.922Zm5.568 6.96a5.569 5.569 0 0 1-5.568 5.57V2.446a5.569 5.569 0 0 1 5.568 5.568ZM26.84 21.938a5.569 5.569 0 0 0-11.137 0h11.137ZM1.78 16.368v5.569a5.569 5.569 0 0 0 11.137 0v-5.569H1.78Zm13.921-2.784V2.447h5.569a5.569 5.569 0 1 1 0 11.137h-5.569Z" clip-rule="evenodd"/></g><defs><clipPath id="a"><path fill="#fff" d="M.388 1.055H28.23v27.843H.388z"/></clipPath></defs></svg>