<svg xmlns="http://www.w3.org/2000/svg" width="34" height="35" fill="none"><rect width="33.411" height="33.411" x=".092" y=".919" fill="#F5F7FA" rx="5.569"/><g clip-path="url(#a)"><path fill="#3B4158" fill-rule="evenodd" d="m7.121 10.637-6.95 6.881a19.676 19.676 0 0 0 4.71 3.444 9.7 9.7 0 0 0 2.25 3.447c3.844 3.806 10.077 3.806 13.921 0a9.7 9.7 0 0 0 2.251-3.447 19.677 19.677 0 0 0 4.71-3.444l-6.945-6.875a1.125 1.125 0 0 0-.016-.015c-3.844-3.806-10.077-3.806-13.92 0l-.01.01Zm13.266 11.567a19.871 19.871 0 0 1-12.59 0c.219.288.461.564.726.827 3.076 3.045 8.062 3.045 11.137 0 .266-.263.508-.54.727-.827ZM8.666 11.868a9.93 9.93 0 0 0 10.852 0c-3.037-2.86-7.815-2.86-10.852 0Z" clip-rule="evenodd"/></g><defs><clipPath id="a"><path fill="#fff" d="M.17 7.773h27.843v19.49H.17z"/></clipPath></defs></svg>