<svg xmlns="http://www.w3.org/2000/svg" width="39" height="35" fill="none"><rect width="33.411" height="33.411" x=".042" y=".919" fill="#F5F7FA" rx="5.569"/><g clip-path="url(#a)"><path fill="#000" d="M38.323 14.504a.32.32 0 0 0 0-.087.226.226 0 0 0 0-.072l-.283-2.041a1.323 1.323 0 0 0-.316-.66l-.049-.055-.089-.087-4.91-4.146.138.135a1.173 1.173 0 0 0-.924-.413H30.4c-.243-.005-.48.07-.673.214a1.183 1.183 0 0 0-.697-.214h-1.49a1.128 1.128 0 0 0-.56.138c-.17.093-.313.229-.413.394a1.094 1.094 0 0 0-.162.794l.187 1.287a.823.823 0 0 0-.405-.103h-7.22a1.373 1.373 0 0 0-.729.214c-.21.129-.378.313-.486.532l-.559-.468c-.22-.2-.51-.308-.81-.302H5.057c-.26.004-.514.076-.738.206-.305.175-.529.46-.623.795L.098 22.36a1.014 1.014 0 0 0 .308 1.112c.041.034.085.066.13.095 0 0-.073-.048-.114-.087l4.91 4.154c.208.187.48.292.762.294h11.415c.261-.007.515-.08.738-.215.125-.067.238-.156.332-.262l.04-.056.065-.079.049-.087.534.453c.205.18.47.279.746.277h11.44a1.546 1.546 0 0 0 1.07-.476l.04-.056.065-.08c.034-.05.064-.103.089-.158a.844.844 0 0 0 .065-.15l3.28-10.772v-.095a.504.504 0 0 0 0-.111v-.071a.215.215 0 0 0 0-.072c.005-.05.005-.1 0-.15h1.054c.092.007.184.007.276 0h.072a.81.81 0 0 0 .17-.072h.082l.145-.112.065-.047.114-.143v-.048l.08-.135a.235.235 0 0 1 0-.08.063.063 0 0 1 0-.039.95.95 0 0 0 .041-.143.101.101 0 0 1 0-.048.214.214 0 0 1 0-.071s.162-.31.162-.326Z"/><path fill="#fff" d="M16.715 10.47a.277.277 0 0 1 .073.309L13.2 22.566a.55.55 0 0 1-.26.302.69.69 0 0 1-.331.111H1.2a.4.4 0 0 1-.26-.11.277.277 0 0 1-.072-.303L4.465 10.78a.55.55 0 0 1 .251-.31c.101-.06.215-.095.333-.103h11.407c.097 0 .19.038.26.103ZM10.76 20.19l2.148-7.037H6.896l-2.14 7.037h6.004Zm16.844-9.603a.397.397 0 0 0 .316.135h1.483a.337.337 0 0 0 .284-.15.33.33 0 0 0 .056-.255l-.291-2.097a.665.665 0 0 0-.146-.262.397.397 0 0 0-.316-.135h-1.483a.337.337 0 0 0-.283.151c-.057.111-.081.183-.057.246l.3 2.097a.48.48 0 0 0 .137.27Zm4.708-2.382a.663.663 0 0 0-.146-.263.38.38 0 0 0-.308-.135h-1.49a.313.313 0 0 0-.276.151.329.329 0 0 0-.065.247l.3 2.096a.536.536 0 0 0 .137.27.412.412 0 0 0 .316.136h1.491a.321.321 0 0 0 .276-.151.299.299 0 0 0 .056-.255l-.291-2.096ZM26.3 11.383l-.146-1.033h-7.186a.64.64 0 0 0-.316.103.467.467 0 0 0-.235.31l-.6 1.97a.265.265 0 0 0 .049.302c.068.063.157.1.251.103h8.734l-2.147 7.037h-8.71a.615.615 0 0 0-.316.096.54.54 0 0 0-.235.31l-.607 1.97a.289.289 0 0 0 .056.301.376.376 0 0 0 .252.111h11.44a.738.738 0 0 0 .332-.11.534.534 0 0 0 .25-.303l3.29-10.77h-3.702a.435.435 0 0 1-.316-.127.576.576 0 0 1-.138-.254v-.016Z"/></g><defs><clipPath id="a"><path fill="#fff" d="M.042 7.077h38.284V27.96H.042z"/></clipPath></defs></svg>