<svg xmlns="http://www.w3.org/2000/svg" width="17" height="17" fill="none"><g clip-path="url(#a)"><path fill="#263238" fill-rule="evenodd" d="M4.75 2.08A3.339 3.339 0 0 1 8.09 5.42V2.08h3.338a3.339 3.339 0 1 1 0 6.678 3.339 3.339 0 0 1 2.373 5.687l-.012.012-.011.011a3.328 3.328 0 0 1-2.35.967 3.328 3.328 0 0 1-2.383-1 3.328 3.328 0 0 1-.956-2.339 3.339 3.339 0 0 1-6.677 0V8.758h3.339a3.339 3.339 0 0 1 0-6.678ZM7.423 5.42a2.67 2.67 0 0 1-2.671 2.67V2.75a2.67 2.67 0 0 1 2.67 2.67Zm6.677 6.677a2.67 2.67 0 1 0-5.342 0H14.1Zm-12.02-2.67v2.67a2.671 2.671 0 0 0 5.343 0v-2.67H2.08ZM8.758 8.09V2.748h2.671a2.67 2.67 0 0 1 0 5.342h-2.67Z" clip-rule="evenodd"/></g><defs><clipPath id="a"><path fill="#fff" d="M1.412 2.08h13.355v13.355H1.412z"/></clipPath></defs></svg>