<svg xmlns="http://www.w3.org/2000/svg" width="17" height="17" fill="none"><g fill="#212326" clip-path="url(#a)"><path d="M14.97 4.648c0 .155.129.282.286.282h.285a.283.283 0 0 0 .285-.282.283.283 0 0 0-.285-.282h-.285a.283.283 0 0 0-.285.282ZM6.7 13.38h1.386l-.403-.398a.574.574 0 0 0-.403-.165H6.7c-2.204 0-3.992-1.765-3.992-3.944 0-2.178 1.788-3.943 3.993-3.943h4.563c2.205 0 3.992 1.765 3.992 3.943 0 2.179-1.787 3.944-3.992 3.944H9.557a.86.86 0 0 1-.605-.247l-.473-.467a1.435 1.435 0 0 0-1.008-.413h-.77c-1.575 0-2.852-1.26-2.852-2.817 0-1.555 1.277-2.817 2.852-2.817h4.563c1.575 0 2.851 1.262 2.851 2.817 0 1.556-1.276 2.817-2.851 2.817h-1.096a.86.86 0 0 1-.605-.247l-.473-.467a1.435 1.435 0 0 0-1.008-.412H6.7a1.7 1.7 0 0 1-1.711-1.69 1.7 1.7 0 0 1 1.71-1.69h4.564a1.7 1.7 0 0 1 1.71 1.69 1.7 1.7 0 0 1-1.676 1.69h-.417a.861.861 0 0 1-.605-.248l-.473-.467a1.432 1.432 0 0 0-.806-.398l-.015-.014H6.701a.567.567 0 0 1-.57-.564c0-.31.255-.563.57-.563h4.563c.315 0 .57.252.57.563a.567.567 0 0 1-.57.564h-1.141l.403.398a.574.574 0 0 0 .404.165h.334c.63 0 1.14-.504 1.14-1.127 0-.622-.51-1.126-1.14-1.126H6.7c-.63 0-1.14.504-1.14 1.126C5.56 9.496 6.07 10 6.7 10h2.094a.86.86 0 0 1 .605.248l.472.466c.268.265.63.413 1.009.413h.525v-.004c1.194-.073 2.139-1.052 2.139-2.25 0-1.244-1.021-2.253-2.281-2.253H6.7c-1.26 0-2.282 1.009-2.282 2.253 0 1.245 1.022 2.254 2.282 2.254h1.38a.86.86 0 0 1 .606.247l.472.467c.268.264.63.413 1.009.413h1.096c1.89 0 3.422-1.514 3.422-3.38 0-1.868-1.532-3.381-3.422-3.381H6.7c-1.89 0-3.422 1.513-3.422 3.38s1.532 3.38 3.422 3.38h.77a.86.86 0 0 1 .605.248l.473.467c.267.264.63.413 1.008.413h1.707c2.52 0 4.563-2.018 4.563-4.508 0-2.489-2.043-4.507-4.563-4.507H6.7c-2.52 0-4.563 2.018-4.563 4.507 0 2.49 2.043 4.508 4.563 4.508Z"/></g><defs><clipPath id="a"><path fill="#fff" d="M2.138 4.366h13.688v9.014H2.138z"/></clipPath></defs></svg>