<svg xmlns="http://www.w3.org/2000/svg" width="20" height="17" fill="none"><g clip-path="url(#a)"><path fill="#000" d="M19.025 7.26a.155.155 0 0 0 0-.041.11.11 0 0 0 0-.034l-.136-.98a.634.634 0 0 0-.152-.316l-.023-.026-.043-.042-2.355-1.99.066.066a.563.563 0 0 0-.443-.198h-.715a.523.523 0 0 0-.322.102.567.567 0 0 0-.334-.102h-.716a.54.54 0 0 0-.466.255.525.525 0 0 0-.078.38l.09.618a.395.395 0 0 0-.194-.05H9.74a.658.658 0 0 0-.583.359l-.268-.225A.562.562 0 0 0 8.5 4.89H3.07a.726.726 0 0 0-.354.1.642.642 0 0 0-.3.38L.69 11.03a.486.486 0 0 0 .148.533c.02.016.04.032.062.046 0 0-.035-.023-.054-.042L3.2 13.558c.1.09.23.14.365.141h5.475a.72.72 0 0 0 .354-.103.576.576 0 0 0 .16-.125l.019-.027.031-.038.023-.042.257.217a.538.538 0 0 0 .357.133h5.487a.741.741 0 0 0 .513-.228l.02-.027.03-.038a.487.487 0 0 0 .044-.076.408.408 0 0 0 .03-.072l1.575-5.166V8.06a.25.25 0 0 0 0-.054v-.034a.104.104 0 0 0 0-.034.514.514 0 0 0 0-.073h.505a.738.738 0 0 0 .132 0h.035a.393.393 0 0 0 .082-.034h.038l.07-.053.031-.023.055-.069v-.022l.039-.065a.116.116 0 0 1 0-.038.031.031 0 0 1 0-.02.455.455 0 0 0 .02-.068.05.05 0 0 1 0-.023.104.104 0 0 1 0-.034s.077-.149.077-.156Z"/><path fill="#fff" d="M8.66 5.325a.133.133 0 0 1 .036.149l-1.722 5.653a.265.265 0 0 1-.124.145.331.331 0 0 1-.16.054H1.22a.192.192 0 0 1-.125-.054.133.133 0 0 1-.035-.145l1.726-5.653a.264.264 0 0 1 .12-.149.355.355 0 0 1 .16-.05h5.471c.047.001.091.019.125.05ZM5.805 9.988l1.03-3.375H3.951L2.925 9.988h2.88Zm8.08-4.606a.19.19 0 0 0 .151.065h.711a.162.162 0 0 0 .136-.072.158.158 0 0 0 .027-.122l-.14-1.006a.318.318 0 0 0-.07-.126.19.19 0 0 0-.151-.064h-.711a.162.162 0 0 0-.136.072c-.027.053-.039.088-.027.118l.143 1.006c.008.049.031.094.066.13ZM16.14 4.24a.318.318 0 0 0-.07-.125.182.182 0 0 0-.147-.065h-.715a.15.15 0 0 0-.133.072.158.158 0 0 0-.03.118l.143 1.006a.257.257 0 0 0 .066.13.198.198 0 0 0 .152.065h.715a.154.154 0 0 0 .132-.073.144.144 0 0 0 .027-.122l-.14-1.006Zm-2.883 1.524-.07-.495H9.74a.307.307 0 0 0-.152.05.224.224 0 0 0-.112.148l-.288.945a.127.127 0 0 0 .023.145c.033.03.076.048.12.05h4.19l-1.03 3.375H8.315a.295.295 0 0 0-.152.046.26.26 0 0 0-.112.148l-.292.945a.138.138 0 0 0 .027.145.18.18 0 0 0 .12.053h5.488a.355.355 0 0 0 .16-.053.256.256 0 0 0 .12-.145l1.577-5.166h-1.775a.21.21 0 0 1-.152-.061.277.277 0 0 1-.066-.122v-.008Z"/></g><defs><clipPath id="a"><path fill="#fff" d="M.664 3.698h18.363v10.016H.664z"/></clipPath></defs></svg>