<svg xmlns="http://www.w3.org/2000/svg" width="18" height="17" fill="none"><g fill="#394149" clip-path="url(#a)"><path d="M4.687 5.368c-.678 0-1.328.27-1.808.749L1.316 7.68a2.556 2.556 0 0 0 3.615 3.615l1.082-1.082 3.154-3.153a1.22 1.22 0 0 1 2.024.485l.995-.996a2.554 2.554 0 0 0-3.964-.433l-4.235 4.235a1.22 1.22 0 1 1-1.727-1.726L3.824 7.06a1.22 1.22 0 0 1 2.024.485l.995-.996a2.554 2.554 0 0 0-2.156-1.182Z"/><path d="M9.328 10.352a1.22 1.22 0 0 1-2.025-.484l-.995.995a2.555 2.555 0 0 0 3.964.434l4.236-4.236a1.221 1.221 0 0 1 1.726 1.727l-1.564 1.564a1.22 1.22 0 0 1-2.025-.484l-.995.995a2.554 2.554 0 0 0 3.964.434l1.565-1.565a2.556 2.556 0 0 0-3.616-3.615l-4.235 4.235Z"/></g><defs><clipPath id="a"><path fill="#fff" d="M.566 5.368h17.361v6.677H.567z"/></clipPath></defs></svg>