<svg xmlns="http://www.w3.org/2000/svg" width="17" height="17" fill="none"><g clip-path="url(#a)"><path fill="#3B4158" fill-rule="evenodd" d="m5.177 5.406-3.333 3.3a9.438 9.438 0 0 0 2.259 1.652c.23.603.59 1.168 1.08 1.654a4.755 4.755 0 0 0 6.677 0c.49-.486.85-1.05 1.079-1.654a9.436 9.436 0 0 0 2.26-1.651l-3.332-3.298a4.756 4.756 0 0 0-6.685-.007l-.005.004Zm6.364 5.548a9.53 9.53 0 0 1-6.04 0 3.804 3.804 0 0 0 6.04 0ZM5.917 5.996a4.738 4.738 0 0 0 2.603.775 4.763 4.763 0 0 0 2.602-.775 3.805 3.805 0 0 0-5.205 0Z" clip-rule="evenodd"/></g><defs><clipPath id="a"><path fill="#fff" d="M1.844 4.032h13.355v9.348H1.844z"/></clipPath></defs></svg>