<svg xmlns="http://www.w3.org/2000/svg" width="17" height="17" fill="none"><g fill="#3A3B7B" clip-path="url(#a)"><path d="M15.394 5.223c0 .01 0 .025-.003.033-.015.11-.015.22-.006.333.006.029.012.057.035.08.038.042.097.033.12-.017a.115.115 0 0 0 .007-.077 1.387 1.387 0 0 1-.039-.33v-.022c.033-.003.062-.006.089-.006a.145.145 0 0 0 .053-.014c.044-.023.044-.07-.003-.093a.15.15 0 0 0-.062-.012c-.074.003-.147.003-.22.003-.027 0-.054.003-.08.006-.015.003-.032.003-.044.011-.02.009-.032.023-.032.042.002.02.011.032.032.04a.07.07 0 0 0 .041.011c.035.003.073.009.112.012Zm.808.13c0 .002.003.005.003.005.012.076.024.15.033.223.003.025.006.048.023.068.038.048.097.042.124-.009a.122.122 0 0 0 .009-.079c-.018-.084-.027-.17-.045-.25a1.683 1.683 0 0 0-.04-.145.069.069 0 0 0-.065-.05.072.072 0 0 0-.077.036.361.361 0 0 0-.044.07c-.02.046-.038.09-.062.133a.083.083 0 0 1-.012.028l-.005-.008c-.039-.07-.074-.141-.112-.209-.006-.006-.009-.011-.012-.017-.018-.025-.038-.04-.07-.04a.087.087 0 0 0-.068.046c-.006.011-.006.02-.009.03l-.038.272a1.32 1.32 0 0 0-.009.152.055.055 0 0 0 .006.037.052.052 0 0 0 .047.04c.03.002.05-.006.059-.029.009-.017.012-.03.014-.045.012-.05.021-.099.03-.147.006-.028.009-.05.018-.082.005.012.011.02.017.029a.67.67 0 0 0 .086.096c.032.022.058.02.085-.006l.014-.014c.027-.04.06-.08.086-.119.006-.005.009-.011.014-.017ZM9.427 5.278c-.02.054-.024.092-.015.124.01.044.038.058.074.047.346-.082 1.103.15 1.383.216.067.013.12-.069.075-.142-.066-.071-.823-.376-1.111-.392-.114-.006-.316-.034-.406.147ZM12.387 4.292c.037.02.057.04.067.062.016.028.008.048-.018.058-.228.107-.532.567-.655.726-.03.037-.098.015-.108-.045.002-.068.271-.567.422-.703.059-.053.156-.158.292-.098ZM10.569 4.065c.044-.032.09-.043.113-.022.345.283.527.73.64 1.14.005.01.005.024.002.038-.002.012-.01.025-.026.035-.015.011-.03.014-.036.005-.15-.197-1.013-.964-.693-1.196ZM3.274 8.967c.083-.058.172-.108.267-.146a.495.495 0 0 1 .302.013c.096.036.178.1.233.185A.429.429 0 0 1 4 9.547a.9.9 0 0 1-.184.144c-.302.187-.607.364-.912.551a1.497 1.497 0 0 1-.198.126.525.525 0 0 1-.34.038.508.508 0 0 1-.288-.179 1 1 0 0 1-.133-.208c-.29-.582-.589-1.162-.867-1.754-.128-.257-.232-.552-.334-.837a.344.344 0 0 1-.024-.267.36.36 0 0 1 .178-.208.385.385 0 0 1 .277-.03.37.37 0 0 1 .222.164c.15.19.281.393.395.605.289.514.564 1.027.842 1.524a.803.803 0 0 0 .054.08c.209-.085.406-.195.585-.329ZM6.259 8.789c-.66.74-1.767.554-2.323-.4-.396-.678-.465-1.797.396-2.502.183-.148.403-.248.638-.293.289-.04.583.01.84.14.259.13.467.336.596.587.47.82.403 1.867-.147 2.468Zm-.268-1.73a.928.928 0 0 0-.398-.487.584.584 0 0 0-.713.044c-.383.325-.463 1.098-.185 1.557a.567.567 0 0 0 .153.195.596.596 0 0 0 .477.129.603.603 0 0 0 .236-.09c.207-.155.36-.367.435-.608.076-.241.071-.499-.013-.737l.008-.003ZM8.953 7.383A.54.54 0 0 1 8.43 7.2a.369.369 0 0 1-.056-.318.373.373 0 0 1 .082-.146.49.49 0 0 1 .267-.172 4.02 4.02 0 0 1 .856-.14.5.5 0 0 1 .358.1.467.467 0 0 1 .176.315c.084.3.093.616.027.92-.24.986-1.07 1.325-2 1.01a1.384 1.384 0 0 1-.657-.452 2.086 2.086 0 0 1-.462-.875 1.77 1.77 0 0 1 .02-.869c.08-.284.228-.545.434-.763.195-.236.449-.422.738-.541a.865.865 0 0 1 .598-.077.27.27 0 0 1 .121.069.247.247 0 0 1-.011.367c-.067.058-.14.11-.216.154a2.195 2.195 0 0 0-.61.552 1.156 1.156 0 0 0-.206.998c.06.232.195.441.385.597.588.513 1.353.018 1.22-.682-.196.046-.367.095-.54.136ZM12.546 8.83c-.869.513-1.858 0-2.074-1.078-.158-.77.141-1.847 1.19-2.257a1.48 1.48 0 0 1 .702-.088c.286.05.549.186.75.387.203.201.334.458.375.734.177.916-.224 1.894-.943 2.302Zm.302-1.727a.885.885 0 0 0-.222-.582.563.563 0 0 0-.313-.205.583.583 0 0 0-.377.033c-.47.195-.802.903-.681 1.424a.55.55 0 0 0 .256.407.603.603 0 0 0 .49.075 1.26 1.26 0 0 0 .615-.446 1.18 1.18 0 0 0 .232-.706ZM14.368 9.045a.354.354 0 0 1-.143.237.384.384 0 0 1-.522-.068.347.347 0 0 1 .07-.5.384.384 0 0 1 .522.067c.06.075.086.17.073.264Zm-.233-3.46a.428.428 0 0 1 .213-.163.447.447 0 0 1 .271-.007c.09.022.17.072.226.144a.38.38 0 0 1 .081.248 2.937 2.937 0 0 1-.066.426c-.089.475-.174.95-.268 1.419a6.485 6.485 0 0 1-.16.557.396.396 0 0 1-.104.156.278.278 0 0 1-.364.038.259.259 0 0 1-.083-.1.574.574 0 0 1-.05-.223c0-.318 0-.638.02-.96a8.98 8.98 0 0 1 .215-1.359.502.502 0 0 1 .07-.17v-.007Z"/><path fill-rule="evenodd" d="M2.145 11.107a.34.34 0 0 0-.025.215c.01.096.033.19.067.28.043.111.09.22.15.355l.043.098c.08.183.18.416.313.754.037.096.07.193.105.29l.04.119c.051.14.137.267.252.367a.397.397 0 0 0 .594-.013.358.358 0 0 0 .079-.198.765.765 0 0 0-.03-.421 7.12 7.12 0 0 0-.269-.67c-.169-.345-.34-.686-.52-1.028v-.002a.891.891 0 0 0-.203-.236.363.363 0 0 0-.597.09ZM4.719 10.26a1.955 1.955 0 0 0-.809-.029c-.208.02-.412.066-.554.157a.413.413 0 0 0-.164.182.386.386 0 0 0-.01.26c.05.178.113.35.176.523l.01.028c.19.501.383 1 .577 1.497.023.078.055.154.095.225l.001.002a.921.921 0 0 0 .204.234.314.314 0 0 0 .311.063c.053-.017.1-.049.136-.09a.29.29 0 0 0 .067-.143.691.691 0 0 0-.032-.429c-.018-.046-.031-.092-.046-.142a6.26 6.26 0 0 0-.015-.05c.444-.166.917-.39 1.083-.912a.888.888 0 0 0 .016-.558.922.922 0 0 0-.324-.465 1.906 1.906 0 0 0-.722-.354Zm-.733.639a1.256 1.256 0 0 1 .86.157c.109.072.153.153.161.231a.372.372 0 0 1-.083.251.813.813 0 0 1-.517.308c-.139-.306-.28-.626-.42-.947Z" clip-rule="evenodd"/><path d="M6.48 9.698c.315-.14.705-.164 1.01-.066a.345.345 0 0 1 .188.132.32.32 0 0 1 .059.215.317.317 0 0 1-.139.253.334.334 0 0 1-.298.039l-.004-.002-.003-.002a.348.348 0 0 0-.08-.028h-.002c-.214-.055-.417.036-.49.147-.036.053-.04.107-.01.155.03.053.108.111.264.153l.131.033c.124.031.252.063.376.107.573.21.786.642.713 1.05-.072.402-.423.768-.95.854-.19.041-.39.033-.578-.023a1.135 1.135 0 0 1-.491-.296l-.004-.004a.405.405 0 0 1-.083-.178.301.301 0 0 1 .017-.175.351.351 0 0 1 .487-.166.721.721 0 0 1 .162.103c.087.076.191.096.291.078a.44.44 0 0 0 .258-.153.266.266 0 0 0 .057-.253c-.03-.089-.117-.188-.31-.27a1.72 1.72 0 0 0-.158-.054l-.044-.013a3.817 3.817 0 0 1-.206-.063c-.075-.024-.148-.047-.219-.077a.75.75 0 0 1-.378-.275.703.703 0 0 1-.132-.438c0-.38.25-.643.566-.783ZM10.47 9.658a.424.424 0 0 0-.389.015.401.401 0 0 0-.141.135.419.419 0 0 0-.064.32c.011.07.024.138.036.205.02.112.04.221.054.332v.003c.03.174.046.35.048.527v.003a.716.716 0 0 1-.189.521l-.002.003a.374.374 0 0 1-.165.116.39.39 0 0 1-.385-.074.357.357 0 0 1-.106-.168 1.76 1.76 0 0 1-.067-.416l.066-1.018.004-.04.006-.092a.469.469 0 0 0-.01-.13.242.242 0 0 0-.068-.119.339.339 0 0 0-.145-.077.43.43 0 0 0-.28.002.341.341 0 0 0-.17.158.867.867 0 0 0-.079.227c-.013.059-.024.121-.035.18l-.01.06a4.154 4.154 0 0 0-.05.982c.005.177.044.352.114.516.08.21.225.394.416.524a1.19 1.19 0 0 0 1.313.022c.195-.125.346-.303.433-.512.122-.265.18-.554.168-.845-.007-.211-.02-.425-.031-.637a58.397 58.397 0 0 1-.017-.312.494.494 0 0 0-.102-.287.406.406 0 0 0-.153-.124ZM12.63 11.254l-.02.023c-.05-.274-.095-.55-.141-.824l-.05-.297-.002-.011-.006-.01c-.012-.017-.013-.035-.013-.072V10.053a.385.385 0 0 0-.105-.207.43.43 0 0 0-.447-.102.413.413 0 0 0-.192.137.65.65 0 0 0-.099.158l-.17.37v.002c-.143.308-.287.619-.426.932-.086.203-.156.417-.226.63a27.13 27.13 0 0 1-.043.128.517.517 0 0 0-.032.21.302.302 0 0 0 .046.183.339.339 0 0 0 .538.033c.056-.068.105-.141.145-.219.118-.231.23-.466.343-.699.043-.09.085-.171.133-.259l.01.032c.05.213.136.416.252.603a.331.331 0 0 0 .358.159c.046-.01.09-.03.127-.057l.075-.054.579-.468-.035.21c-.047.288-.093.573-.143.858a.774.774 0 0 0 0 .386.36.36 0 0 0 .103.188.394.394 0 0 0 .419.079.376.376 0 0 0 .169-.136.746.746 0 0 0 .171-.396c.025-.205.052-.413.08-.62.032-.24.064-.48.091-.714v-.001c.026-.257.039-.515.038-.773a.378.378 0 0 0-.06-.233.404.404 0 0 0-.192-.155.439.439 0 0 0-.49.1 3.241 3.241 0 0 0-.3.304h-.001c-.102.122-.202.245-.302.368l-.182.223Z"/></g><defs><clipPath id="a"><path fill="#fff" d="M.705 4.032h15.692v9.682H.705z"/></clipPath></defs></svg>