<svg xmlns="http://www.w3.org/2000/svg" width="20" height="17" fill="none"><g clip-path="url(#a)"><path fill="#000" d="M19.299 7.26a.155.155 0 0 0 0-.041.11.11 0 0 0 0-.034l-.136-.98a.635.635 0 0 0-.152-.316l-.023-.026-.043-.042-2.355-1.99.066.066a.562.562 0 0 0-.443-.198h-.715a.524.524 0 0 0-.322.102.567.567 0 0 0-.334-.102h-.715a.54.54 0 0 0-.467.255.524.524 0 0 0-.077.38l.089.618a.395.395 0 0 0-.194-.05h-3.463a.658.658 0 0 0-.583.359l-.268-.225a.562.562 0 0 0-.389-.145H3.343a.726.726 0 0 0-.354.1.642.642 0 0 0-.3.38L.965 11.03a.486.486 0 0 0 .148.533c.02.016.04.032.062.046 0 0-.035-.023-.054-.042l2.355 1.992c.1.09.23.14.365.141h5.476a.72.72 0 0 0 .353-.103.576.576 0 0 0 .16-.125l.02-.027.03-.038.023-.042.257.217a.538.538 0 0 0 .357.133h5.488a.741.741 0 0 0 .512-.228l.02-.027.031-.038a.48.48 0 0 0 .043-.076.408.408 0 0 0 .03-.072l1.575-5.166V8.06a.238.238 0 0 0 0-.054v-.034a.104.104 0 0 0 0-.034.486.486 0 0 0 0-.073h.505a.738.738 0 0 0 .132 0h.035a.392.392 0 0 0 .082-.034h.038l.07-.053.031-.023.055-.069v-.022l.039-.065a.11.11 0 0 1 0-.038.03.03 0 0 1 0-.02.443.443 0 0 0 .02-.068.05.05 0 0 1 0-.023.11.11 0 0 1 0-.034s.077-.149.077-.156Z"/><path fill="#fff" d="M8.935 5.325a.133.133 0 0 1 .035.149l-1.722 5.653a.265.265 0 0 1-.124.145.331.331 0 0 1-.16.054H1.494a.192.192 0 0 1-.124-.054.133.133 0 0 1-.035-.145l1.725-5.653a.264.264 0 0 1 .12-.149.355.355 0 0 1 .16-.05H8.81c.047.001.091.019.125.05ZM6.079 9.988l1.03-3.375H4.224L3.199 9.988h2.88Zm8.079-4.606a.19.19 0 0 0 .151.065h.711a.162.162 0 0 0 .136-.072.16.16 0 0 0 .028-.122l-.14-1.006a.318.318 0 0 0-.07-.126.19.19 0 0 0-.152-.064h-.711a.161.161 0 0 0-.136.072c-.027.053-.039.088-.027.118l.144 1.006a.23.23 0 0 0 .066.13Zm2.258-1.143a.32.32 0 0 0-.07-.125.182.182 0 0 0-.148-.065h-.715a.15.15 0 0 0-.132.072.157.157 0 0 0-.031.118l.143 1.006a.257.257 0 0 0 .066.13.198.198 0 0 0 .152.065h.715a.154.154 0 0 0 .132-.073.144.144 0 0 0 .027-.122l-.14-1.006Zm-2.884 1.524-.07-.495h-3.447a.307.307 0 0 0-.151.05.224.224 0 0 0-.113.148l-.288.945a.127.127 0 0 0 .024.145c.032.03.075.048.12.05h4.19l-1.03 3.375H8.588a.295.295 0 0 0-.152.046.26.26 0 0 0-.112.148l-.292.945a.138.138 0 0 0 .027.145.18.18 0 0 0 .12.053h5.488a.354.354 0 0 0 .16-.053.256.256 0 0 0 .12-.145l1.577-5.166H13.75a.21.21 0 0 1-.152-.061.276.276 0 0 1-.066-.122v-.008Z"/></g><defs><clipPath id="a"><path fill="#fff" d="M.938 3.698H19.3v10.016H.938z"/></clipPath></defs></svg>