<svg xmlns="http://www.w3.org/2000/svg" width="148" height="146" fill="none"><path fill="#263238" d="M126.068 145.398c0 .049-23.961.09-53.509.09-29.547 0-53.518-.041-53.518-.09 0-.048 23.957-.089 53.518-.089 29.562 0 53.509.044 53.509.089Z"/><path fill="#4CAF4F" d="M102.721 103.156c-5.331-3.723-6.539-10.635-6.329-16.85.035-1.034-.079-2.132.415-3.04.493-.907 1.646-1.531 2.574-1.097.769.363 1.104 1.26 1.535 2.002a6.062 6.062 0 0 0 2.433 2.322c.659.345 1.477.552 2.129.193.897-.493 1.001-1.725.994-2.76 0-1.926-.012-3.849-.035-5.77a9.595 9.595 0 0 1 .311-3.064c.321-.98 1.035-1.887 2.011-2.163.977-.276 2.195.293 2.416 1.3a10 10 0 0 1 .031 1.284c.028.431.228.904.631 1.035.404.132.825-.169 1.136-.472 1.062-1.036 1.787-2.385 2.46-3.717.673-1.332 1.332-2.701 2.298-3.837.966-1.135 2.302-2.036 3.796-2.122 1.494-.086 3.05.832 3.423 2.281.372 1.45-.473 2.93-1.381 4.106a23.062 23.062 0 0 1-4.792 4.572 1.874 1.874 0 0 0-.804.86c-.225.69.427 1.38 1.107 1.597.77.255 1.605.176 2.416.273.811.096 1.673.448 1.98 1.207.421 1.056-.462 2.16-1.328 2.885a19.796 19.796 0 0 1-5.839 3.371c-.759.276-1.556.521-2.17 1.053-.614.531-.98 1.46-.611 2.187.369.728 1.318.96 2.115.811.798-.148 1.505-.576 2.264-.862 1.418-.535 3.247-.439 4.141.786a3.264 3.264 0 0 1 .345 2.888 7.545 7.545 0 0 1-1.563 2.55 19.894 19.894 0 0 1-8.509 5.946c-3.289 1.139-6.336 1.449-9.604.252"/><path fill="#263238" d="M123.431 67.252s-.031.035-.1.097l-.307.273c-.269.241-.666.593-1.166 1.059a38.5 38.5 0 0 0-3.941 4.255c-.769.955-1.566 2.039-2.415 3.215a88.027 88.027 0 0 0-2.595 3.796 46.799 46.799 0 0 0-2.543 4.41c-.4.79-.752 1.615-1.114 2.457l-1.07 2.57a94.988 94.988 0 0 0-3.679 9.928 46.335 46.335 0 0 0-1.725 8.464 33.666 33.666 0 0 0-.096 5.828c.055.69.107 1.218.155 1.577.021.173.034.311.048.411v.141a.725.725 0 0 1-.031-.138c-.017-.1-.038-.234-.065-.407-.063-.345-.128-.89-.19-1.58a32.067 32.067 0 0 1 .034-5.846 45.511 45.511 0 0 1 1.688-8.502 92.443 92.443 0 0 1 3.668-9.951l1.097-2.56c.362-.84.718-1.67 1.121-2.464a46.433 46.433 0 0 1 2.564-4.42c.883-1.38 1.774-2.63 2.612-3.796a76.29 76.29 0 0 1 2.416-3.21 36.721 36.721 0 0 1 5.186-5.258l.321-.259a.754.754 0 0 1 .127-.09Z"/><path fill="#263238" d="M110.25 84.278a2.123 2.123 0 0 1-.1-.439 25.94 25.94 0 0 1-.19-1.214c-.148-1.035-.3-2.454-.462-4.023a94.782 94.782 0 0 0-.497-4.017 75.29 75.29 0 0 0-.197-1.208 1.885 1.885 0 0 1-.058-.448c.059.138.102.283.127.431.076.283.162.69.259 1.204.197 1.036.39 2.443.552 4.017.162 1.573.3 2.953.407 4.027.052.483.097.893.131 1.221.027.148.037.299.028.449ZM123.528 81.8a2.753 2.753 0 0 1-.511.062c-.345.031-.835.073-1.442.142a63.324 63.324 0 0 0-4.717.718 77.885 77.885 0 0 0-4.662 1.035c-.59.151-1.066.29-1.38.383-.168.06-.341.1-.518.124.16-.08.326-.146.497-.197.325-.114.794-.272 1.38-.441a51.802 51.802 0 0 1 4.662-1.108 46.991 46.991 0 0 1 4.71-.656 22.792 22.792 0 0 1 1.45-.079c.177-.012.355-.006.531.017ZM104.488 99.019a.719.719 0 0 1-.09-.163l-.228-.48a53.802 53.802 0 0 1-.78-1.79c-.641-1.518-1.459-3.644-2.329-6.004-.869-2.36-1.67-4.486-2.277-6.021-.297-.746-.542-1.357-.725-1.812l-.193-.493a.664.664 0 0 1-.055-.18c.037.05.067.105.09.162l.227.48c.194.417.463 1.035.78 1.79.642 1.52 1.46 3.645 2.329 6.005.87 2.36 1.67 4.486 2.278 6.021.296.745.541 1.356.721 1.812.079.196.145.345.196.493a.666.666 0 0 1 .056.18Z"/><path fill="#263238" d="M122.113 93.335a.718.718 0 0 1-.176.073l-.51.172-1.888.611a644.777 644.777 0 0 0-6.211 2.07c-2.415.815-4.627 1.54-6.232 2.023-.8.245-1.452.43-1.905.555l-.521.135a.884.884 0 0 1-.186.038.738.738 0 0 1 .176-.073l.511-.172 1.887-.611a647.197 647.197 0 0 0 6.211-2.07c2.416-.815 4.624-1.54 6.229-2.022a69.018 69.018 0 0 1 1.908-.556l.521-.135a.89.89 0 0 1 .186-.038Z"/><path fill="#4CAF4F" d="m114.922 9.634-1.777.635-.762-2.322c-1.401-4.282-5.866-6.556-9.969-5.11-4.103 1.446-6.287 6.142-4.886 10.424l.762 2.322-1.784.639a2.836 2.836 0 0 0-1.663 3.547l4.945 15.11a2.669 2.669 0 0 0 3.402 1.763l18.416-6.587a2.85 2.85 0 0 0 1.681-3.582l-4.949-15.11a2.66 2.66 0 0 0-3.416-1.729Zm-14.037 2.416a4.55 4.55 0 0 1 2.678-5.71 4.266 4.266 0 0 1 5.462 2.798l.759 2.322-8.14 2.912-.759-2.322Zm10.352 13.409 1.263 3.858a.313.313 0 0 1-.197.386l-1.77.632a.282.282 0 0 1-.345-.187l-1.273-3.84a3.452 3.452 0 0 1-3.106-2.416 3.628 3.628 0 0 1 2.136-4.547 3.4 3.4 0 0 1 4.351 2.229 3.681 3.681 0 0 1-1.055 3.895l-.004-.01Z"/><path fill="#263238" d="M113.066 10.228c0 .048-3.295 1.287-7.395 2.76-4.099 1.474-7.443 2.658-7.46 2.623-.017-.035 3.295-1.284 7.398-2.76 4.103-1.477 7.44-2.668 7.457-2.623ZM116.979 10.863a.62.62 0 0 1 .038.093c.027.069.058.159.1.27l.369 1.034 1.325 3.858c.552 1.636 1.211 3.575 1.943 5.728.345 1.08.752 2.205 1.132 3.389.203.61.29 1.252.258 1.894a2.542 2.542 0 0 1-.279.956 2.636 2.636 0 0 1-.652.77 6.21 6.21 0 0 1-1.753.893l-1.777.638-3.365 1.204-5.697 2.03-3.847 1.352-1.035.345-.276.09a.299.299 0 0 1-.093.024s.027 0 .086-.041l.269-.107 1.035-.39 3.827-1.408 5.687-2.07 3.357-1.215 1.777-.642a5.907 5.907 0 0 0 1.701-.866c.247-.197.453-.44.607-.714.147-.275.235-.577.259-.887a4.959 4.959 0 0 0-.248-1.825c-.373-1.174-.766-2.309-1.122-3.389-.717-2.156-1.38-4.103-1.904-5.738-.525-1.636-.967-2.95-1.27-3.875-.145-.452-.256-.804-.345-1.06l-.083-.276a.309.309 0 0 1-.024-.065Z"/><path fill="#263238" d="M107.262 6.104s-.183-.09-.521-.227a4.597 4.597 0 0 0-1.508-.304 5.176 5.176 0 0 0-2.229.421 4.965 4.965 0 0 0-2.108 1.763 4.662 4.662 0 0 0-.811 2.62c.007.765.123 1.526.345 2.26.179.627.366 1.128.49 1.476.073.177.133.36.179.546a3.037 3.037 0 0 1-.245-.522c-.141-.345-.345-.835-.545-1.466a7.836 7.836 0 0 1-.397-2.295c-.009-.97.28-1.919.828-2.719a5.05 5.05 0 0 1 2.192-1.815 5.13 5.13 0 0 1 2.294-.393c.528.027 1.046.15 1.529.362.129.06.254.129.373.207.049.022.094.05.134.086ZM107.421 19.607c.055-.034.112-.062.172-.087.173-.077.352-.14.535-.19.291-.085.591-.136.894-.151a3.03 3.03 0 0 1 1.211.183c.883.31 1.694 1.211 2.094 2.415a3.478 3.478 0 0 1 0 1.98 4.474 4.474 0 0 1-1.111 1.86l.021-.092c.459 1.259.959 2.626 1.477 4.05l.031.087-.086.03-.791.263-1.725.576-.086.028-.028-.086c-.472-1.429-.99-2.76-1.38-4.069l.076.06a3.452 3.452 0 0 1-1.85-.729 4.185 4.185 0 0 1-1.156-1.38 3.165 3.165 0 0 1-.365-1.553 3.747 3.747 0 0 1 1.446-2.85c.179-.146.381-.262.596-.345a6.764 6.764 0 0 0-.565.376c-.48.405-.847.927-1.067 1.515a3.268 3.268 0 0 0 .107 2.784c.276.519.661.97 1.129 1.325.507.399 1.12.639 1.763.69h.059l.017.052c.379 1.284.9 2.626 1.38 4.062l-.114-.056 1.725-.576.787-.265-.055.117c-.514-1.425-1.011-2.795-1.466-4.055v-.051l.041-.042a4.384 4.384 0 0 0 1.09-1.784 3.337 3.337 0 0 0 0-1.894c-.376-1.16-1.152-2.04-1.994-2.35a2.967 2.967 0 0 0-1.17-.197 3.946 3.946 0 0 0-.883.121c-.514.128-.756.245-.759.228Z"/><path fill="#455A64" d="m96.755 119.239-34.468-.158a7.514 7.514 0 0 1-7.47-7.543l.365-86.407a7.505 7.505 0 0 1 7.543-7.474l34.465.159a7.514 7.514 0 0 1 7.474 7.54l-.366 86.402a7.518 7.518 0 0 1-2.222 5.303 7.5 7.5 0 0 1-5.321 2.178Z"/><path fill="#fff" d="M97.138 20.787h-6.68a1.66 1.66 0 0 0-1.63 1.69v1.212a1.658 1.658 0 0 1-1.628 1.687l-13.022-.059a1.663 1.663 0 0 1-1.619-1.704v-1.211a1.663 1.663 0 0 0-1.615-1.705h-2.35l-5.848-.027a5.258 5.258 0 0 0-5.29 5.206l-.345 84.34a5.256 5.256 0 0 0 5.231 5.279l34.396.159a5.268 5.268 0 0 0 3.725-1.523 5.247 5.247 0 0 0 1.557-3.711l.346-84.34a5.261 5.261 0 0 0-5.228-5.293Z"/><path fill="#4CAF4F" d="m92.51 104.402-25.575-.111c-.266 0-.48-.29-.477-.642l.028-6.69c0-.345.218-.642.483-.642l25.576.117a.58.58 0 0 1 .476.645l-.024 6.684c0 .356-.22.642-.486.639Z"/><path fill="#E8E8E3" d="M74.71 100.321c-.14 0-.276-.022-.407-.068a.781.781 0 0 1-.298-.179l.079-.155c.066.066.156.121.268.166.114.043.234.065.359.065.12 0 .216-.014.29-.043a.356.356 0 0 0 .166-.122.283.283 0 0 0 .054-.169.248.248 0 0 0-.065-.179.417.417 0 0 0-.166-.106 1.702 1.702 0 0 0-.228-.07l-.25-.063a1.136 1.136 0 0 1-.23-.092.496.496 0 0 1-.169-.15.443.443 0 0 1-.062-.247c0-.094.024-.18.073-.257a.52.52 0 0 1 .231-.19.928.928 0 0 1 .396-.074 1.123 1.123 0 0 1 .59.169l-.068.16a.977.977 0 0 0-.524-.158.742.742 0 0 0-.283.047.363.363 0 0 0-.165.124.302.302 0 0 0-.052.174c0 .074.02.134.063.18.043.044.1.08.168.105.07.026.147.048.23.068.084.02.166.042.248.065.083.024.159.054.228.093.07.036.126.085.168.146a.41.41 0 0 1 .065.242.474.474 0 0 1-.076.258.548.548 0 0 1-.233.19.97.97 0 0 1-.4.07Zm1.147-.016v-1.9h.2v1.9h-.2Zm.82 0v-1.9h.165l1.31 1.65h-.086v-1.65h.198v1.9H78.1l-1.309-1.65h.087v1.65h-.2Zm3.04.016a.987.987 0 0 1-.72-.274.951.951 0 0 1-.207-.307.995.995 0 0 1-.074-.385.931.931 0 0 1 .603-.893c.123-.05.257-.074.402-.074.144 0 .276.023.396.068a.79.79 0 0 1 .31.206l-.125.128a.71.71 0 0 0-.264-.17.91.91 0 0 0-.31-.053.87.87 0 0 0-.325.06.76.76 0 0 0-.489.728c0 .112.02.216.06.312.042.096.099.18.171.252.074.071.16.126.258.166.1.038.207.057.323.057.109 0 .21-.016.307-.049a.711.711 0 0 0 .269-.165l.114.152a.932.932 0 0 1-.318.181c-.121.04-.248.06-.38.06Zm.506-.266v-.7h.193v.725l-.193-.025Zm2.237.266c-.242 0-.433-.069-.573-.209-.139-.14-.209-.346-.209-.619v-1.088h.201v1.08c0 .225.051.39.152.497.102.107.245.16.43.16.186 0 .33-.053.43-.16.102-.107.153-.272.153-.497v-1.08h.195v1.088c0 .273-.07.48-.209.619-.137.14-.327.209-.57.209Zm1.385-.016v-1.9h.711a1 1 0 0 1 .415.078c.116.051.205.125.266.223a.621.621 0 0 1 .096.35c0 .134-.032.25-.096.348a.6.6 0 0 1-.266.222 1 1 0 0 1-.415.079h-.6l.09-.095v.695h-.201Zm.2-.679-.089-.098h.595c.19 0 .334-.04.431-.122.1-.083.15-.2.15-.35 0-.152-.05-.27-.15-.353-.097-.083-.241-.125-.431-.125h-.595l.09-.095v1.143Z"/><path fill="#4CAF4F" d="m72.036 45.58-8.875-.04-.007 1.628 8.875.04.007-1.629Z"/><path fill="#000" d="m72.036 45.58-8.875-.04-.007 1.628 8.875.04.007-1.629Z" opacity=".1"/><path fill="#E0E0E0" d="M98.052 55.579a.793.793 0 0 0 .204-.048.544.544 0 0 0 .345-.466v-4.583a.669.669 0 0 0-.097-.451.518.518 0 0 0-.41-.211H92.569l-28.86-.107a.46.46 0 0 0-.38.19.659.659 0 0 0-.09.452v4.14c-.014.161-.014.323 0 .484a.466.466 0 0 0 .27.31c.067.027.14.04.213.038h1.757l7.663.041 12.975.08 8.747.069 2.377.027h.828-11.952l-12.975-.04-7.663-.032h-1.757a.691.691 0 0 1-.283-.048.65.65 0 0 1-.372-.432.973.973 0 0 1-.021-.276V50.32a1.926 1.926 0 0 1 0-.276.586.586 0 0 1 .114-.28.635.635 0 0 1 .524-.265l28.861.159 4.986.034h.538a.59.59 0 0 1 .484.252c.097.15.136.33.11.507v2.205c0 1.035-.024 1.83-.031 2.381a.56.56 0 0 1-.362.48.414.414 0 0 1-.218.062Z"/><path fill="#4CAF4F" d="M82.059 51.445H65.827v1.522H82.06v-1.522Z"/><path fill="#fff" d="M82.059 51.445H65.827v1.522H82.06v-1.522Z" opacity=".2"/><path fill="#4CAF4F" d="m71.976 60.437-8.875-.04-.008 1.629 8.875.04.008-1.629Z"/><path fill="#000" d="m71.976 60.437-8.875-.04-.008 1.629 8.875.04.008-1.629Z" opacity=".1"/><path fill="#E0E0E0" d="M97.828 70.438c.07-.01.139-.022.207-.038a.706.706 0 0 0 .435-.394.966.966 0 0 0 .062-.438v-4.117a.743.743 0 0 0-.1-.455.67.67 0 0 0-.376-.293 2.116 2.116 0 0 0-.521-.028h-4.966l-28.76-.107a.639.639 0 0 0-.632.556v4.14c-.013.162-.006.324.02.483.044.14.133.262.253.345.127.081.277.12.428.11h1.476l7.637.039 12.929.08 8.716.068 2.37.028H85.92l-12.936-.014-7.636-.028h-1.502a.866.866 0 0 1-.527-.141.828.828 0 0 1-.325-.452 2.175 2.175 0 0 1-.027-.531V65.11a.818.818 0 0 1 .81-.715l28.761.16 4.966.037c.185-.011.37.002.552.038.18.059.33.182.424.345.09.152.128.329.11.504v4.134a.962.962 0 0 1-.072.452.731.731 0 0 1-.466.393.65.65 0 0 1-.224-.02Z"/><path fill="#4CAF4F" d="m71.909 75.94-8.875-.04-.008 1.629 8.875.04.008-1.629Z"/><path fill="#000" d="m71.909 75.94-8.875-.04-.008 1.629 8.875.04.008-1.629Z" opacity=".1"/><path fill="#E0E0E0" d="M97.759 85.934c.07-.008.139-.02.207-.038a.711.711 0 0 0 .435-.39.973.973 0 0 0 .062-.438V80.948a.742.742 0 0 0-.1-.456.69.69 0 0 0-.376-.29 2.111 2.111 0 0 0-.521-.03H92.5l-28.76-.107a.638.638 0 0 0-.632.555v4.141c-.013.16-.006.321.02.48.042.14.131.262.253.344a.69.69 0 0 0 .427.11h1.502l7.636.042 12.929.08 8.716.069 2.37.027H85.876l-12.93-.038-7.635-.03h-1.502a.846.846 0 0 1-.527-.142.828.828 0 0 1-.325-.452 2.175 2.175 0 0 1-.028-.532V80.561a.815.815 0 0 1 .808-.714l28.76.159 4.966.038c.185-.011.37.001.552.038.18.058.33.181.425.345.089.152.128.328.11.504v4.133a.946.946 0 0 1-.072.453.732.732 0 0 1-.466.393.545.545 0 0 1-.252.024Z"/><path fill="#4CAF4F" d="m81.712 66.734-16.231-.074-.007 1.522 16.231.073.007-1.521Z"/><path fill="#fff" d="m81.712 66.734-16.231-.074-.007 1.522 16.231.073.007-1.521Z" opacity=".2"/><path fill="#4CAF4F" d="M66.948 83.118a.71.71 0 0 1-1.235.425.712.712 0 0 1 .545-1.187.731.731 0 0 1 .69.762ZM69.147 83.129a.71.71 0 1 1-1.419 0 .71.71 0 1 1 1.419 0ZM71.348 83.14a.71.71 0 1 1-.69-.764.735.735 0 0 1 .69.763ZM73.546 83.15a.71.71 0 1 1-.69-.763.735.735 0 0 1 .69.762ZM75.744 83.156a.71.71 0 1 1-.69-.759.735.735 0 0 1 .69.76ZM77.946 83.167a.71.71 0 1 1-.708-.76.735.735 0 0 1 .708.76ZM80.144 83.177a.712.712 0 1 1-1.419 0 .712.712 0 1 1 1.419 0ZM82.342 83.187a.71.71 0 1 1-.708-.759.735.735 0 0 1 .708.76ZM84.54 83.198a.71.71 0 1 1-.69-.76.735.735 0 0 1 .69.76Z"/><g fill="#fff" opacity=".2"><path d="M66.948 83.118a.71.71 0 0 1-1.235.425.712.712 0 0 1 .545-1.187.731.731 0 0 1 .69.762ZM69.147 83.129a.71.71 0 1 1-1.419 0 .71.71 0 1 1 1.419 0ZM71.348 83.14a.71.71 0 1 1-.69-.764.735.735 0 0 1 .69.763ZM73.546 83.15a.71.71 0 1 1-.69-.763.735.735 0 0 1 .69.762ZM75.744 83.156a.71.71 0 1 1-.69-.759.735.735 0 0 1 .69.76ZM77.946 83.167a.71.71 0 1 1-.708-.76.735.735 0 0 1 .708.76ZM80.144 83.177a.712.712 0 1 1-1.419 0 .712.712 0 1 1 1.419 0ZM82.342 83.187a.71.71 0 1 1-.708-.759.735.735 0 0 1 .708.76ZM84.54 83.198a.711.711 0 1 1-.69-.76.735.735 0 0 1 .69.76Z"/></g><path fill="#4CAF4F" d="M81.417 33.385a1.335 1.335 0 0 0 .797-1.239 1.256 1.256 0 1 0-2.509 0 1.339 1.339 0 0 0 .8 1.253c-1.931.29-1.845 2.387-1.845 2.387l4.568.021s.107-2.136-1.811-2.422Z"/><path fill="#000" d="M81.417 33.385a1.335 1.335 0 0 0 .797-1.239 1.256 1.256 0 1 0-2.509 0 1.339 1.339 0 0 0 .8 1.253c-1.931.29-1.845 2.387-1.845 2.387l4.568.021s.107-2.136-1.811-2.422Z" opacity=".1"/><path fill="#4CAF4F" d="m88.84 37.16-16.283-.074-.008 1.947 16.283.073.009-1.946Z"/><path fill="#fff" d="m88.84 37.16-16.283-.074-.008 1.947 16.283.073.009-1.946Z" opacity=".2"/><path fill="#4CAF4F" d="M28.978 47.246h-.162l-.47.034a5.311 5.311 0 0 0-.755.1 4.65 4.65 0 0 0-.48.094l-.534.148c-.91.28-1.77.705-2.543 1.26a8.95 8.95 0 0 0-2.506 2.788 9.348 9.348 0 0 0-.876 2.004 9.636 9.636 0 0 0-.383 2.34 9.47 9.47 0 0 0 .02 1.249c0 .21.06.42.087.635.023.215.063.429.12.638a9.107 9.107 0 0 0 5.177 6.325c.938.405 1.943.63 2.964.666a8.003 8.003 0 0 0 3.105-.445l.304-.114h.041l.035.02 4.351 2.21-.128.11c-.465-1.443-.914-2.84-1.349-4.183v-.051l.038-.038a9.317 9.317 0 0 0 2.284-3.796 9.559 9.559 0 0 0 .345-4.044 9.448 9.448 0 0 0-1.142-3.43 9.314 9.314 0 0 0-1.967-2.415 9.61 9.61 0 0 0-2.136-1.36 9.29 9.29 0 0 0-1.808-.57l-.69-.113-.5-.038-.304-.02h-.103a.471.471 0 0 1 .103 0h.307l.5.02.69.1a9.145 9.145 0 0 1 1.833.549 9.593 9.593 0 0 1 2.174 1.356 9.34 9.34 0 0 1 2.008 2.415 9.47 9.47 0 0 1 1.177 3.475 9.663 9.663 0 0 1-.321 4.113 9.44 9.44 0 0 1-2.319 3.875l.02-.09c.436 1.343.888 2.74 1.357 4.18l.066.21-.197-.1-4.351-2.205h.076l-.311.114a8.232 8.232 0 0 1-3.164.455 8.384 8.384 0 0 1-3.026-.69 9.08 9.08 0 0 1-5.3-6.422 5.29 5.29 0 0 1-.121-.652c-.028-.217-.073-.431-.083-.645a10.197 10.197 0 0 1 .383-3.644 9.28 9.28 0 0 1 .9-2.029 9.03 9.03 0 0 1 2.557-2.805 8.726 8.726 0 0 1 2.585-1.25l.542-.137c.16-.037.32-.066.483-.087.252-.046.506-.074.762-.083l.473-.017c.054-.007.108-.01.162-.01Z"/><path fill="#4CAF4F" d="M30.945 55.293h-.638l-1.38-1.94V52.08s-.988-.062-.87 1.605c.117 1.666 0 1.242 0 1.242s-2.095 0-2.267.19c-.173.19-.183 2.212-.207 3.34a1.222 1.222 0 0 0 .866 1.228c.073.02.148.03.224.031.525 0 3.192-.424 3.192-.424h1.1l-.02-4ZM32.77 54.951l-.393 4.362h-1.09V55.04l1.483-.09ZM45.776 143.745v-2.95l-5.29-.038-.045 4.462.328.024c1.46.093 7.425.231 8.405-.073 1.09-.338-3.398-1.425-3.398-1.425Z"/><path fill="#263238" d="M49.299 144.894c0 .049-1.981.09-4.42.09-2.44 0-4.42-.041-4.42-.09 0-.048 1.98-.089 4.42-.089 2.439 0 4.42.041 4.42.089ZM45.869 144.349c-.045-.024 0-.179.107-.345.107-.166.252-.235.286-.2.035.034-.038.165-.141.307-.104.141-.207.262-.252.238ZM46.207 144.542c-.048 0-.024-.193.08-.376.103-.183.24-.293.279-.266.038.028-.024.183-.12.346-.097.162-.194.314-.239.296Z"/><path fill="#263238" d="M42.053 144.88c-.021 0-.1-.062-.214-.193a3.45 3.45 0 0 0-.463-.462 1.216 1.216 0 0 0-.573-.252c-.162-.021-.265 0-.276-.021-.01-.021.09-.093.28-.107.25-.005.495.078.69.235.183.149.337.33.455.535.08.152.121.252.1.265ZM45.886 143.794c.024.041-.066.145-.217.2-.152.055-.287.034-.294 0-.007-.035.1-.107.231-.156.132-.048.252-.086.28-.044ZM45.803 143.507c0 .052-.138.093-.317.097-.18.003-.321-.038-.318-.087.004-.048.145-.093.318-.096.172-.004.31.038.317.086Z"/><path fill="#4CAF4F" d="M58.802 143.745v-2.95l-5.29-.038-.045 4.417.328.024c1.46.093 7.429.276 8.405-.028 1.09-.338-3.398-1.425-3.398-1.425Z"/><path fill="#263238" d="M62.325 144.901c0 .049-1.978.09-4.42.09-2.444 0-4.418-.041-4.418-.09 0-.048 1.978-.089 4.417-.089 2.44 0 4.42.041 4.42.089ZM58.895 144.349c-.042-.024 0-.179.107-.345.107-.166.252-.235.286-.2.035.034-.038.165-.141.307-.104.141-.207.262-.252.238ZM59.233 144.542c-.045 0-.024-.193.083-.376.107-.183.241-.293.28-.266.037.028-.028.183-.125.346-.097.162-.19.314-.238.296Z"/><path fill="#263238" d="M55.078 144.88c-.02 0-.096-.062-.214-.193a3.45 3.45 0 0 0-.462-.462 1.216 1.216 0 0 0-.573-.252c-.159-.021-.265 0-.276-.021-.01-.021.09-.093.28-.107.25-.005.495.078.69.235.184.148.338.329.455.535.08.152.121.252.1.265ZM58.912 143.794c.024.041-.065.145-.217.2-.152.055-.287.034-.294 0-.007-.035.1-.107.232-.156.13-.048.252-.086.28-.044ZM58.836 143.507c0 .052-.138.093-.317.097-.18.003-.318-.038-.314-.087.003-.048.141-.093.314-.096.172-.004.317.038.317.086Z"/><path fill="#FFBE9D" d="M78.29 56.135c-.138-.142-.48-.073-.48-.073a1.764 1.764 0 0 0 0-.6c-.061-.194-.496-.156-.496-.156a2.008 2.008 0 0 1 0-.49.176.176 0 0 0-.1-.175 1.594 1.594 0 0 0-.649-.118c-.265-.19.811-1.698 1.211-2.18.4-.484.328-.86-.027-.86-.245 0-1.501 1.45-1.888 1.936-.386.487-1.41 1.84-1.446.76-.034-1.081-.469-1.895-.741-2.033-.273-.138-.563.186-.414.486.13.341.211.7.241 1.063.038.29.025.584-.038.87-.114.53-.27 1.052-.466 1.56h-.027s-7.53 7.221-8.075 7.736c-.486.462-10.272-.55-12.235-.756a13.141 13.141 0 0 0-2.016-.138c-.852.038-1.004.159-1.853.169a41.968 41.968 0 0 0-6.397.562 5.303 5.303 0 0 0-4.161 3.61c-1.978 6.176-6.456 20.796-7.247 29.009a34.848 34.848 0 0 0-1.615 3.337c-.555 1.511-.42 1.563-.234 1.597.504.093 1.076-2.619 1.29-1.963.214.655-1.087 3.233-.559 3.309.69.096 1.24-2.76 1.305-2.988.065-.228.407-.156.345.058-.1.304-1.07 3.523-.394 3.627.373.055.414-.625.414-.625s.69-3.081 1.004-3.019c.314.062-.02 1.881-.179 2.488s.062.914.387.766c.22-.104.748-1.95.893-2.55.145-.6.508-2.264.994-1.3.487.962 1.225 1.521 1.529 1.535a.344.344 0 0 0 .169-.618 3.91 3.91 0 0 1-.666-.863 2.542 2.542 0 0 1-.345-.807 8.753 8.753 0 0 1-.242-1.746l-.055-.345c.773-3.827 2.998-15.059 6.211-22.232l1.318 2.712.573 2.008-3.513 8.671 14.983-.196-2.236-8.606 2.715-8.972c2.937.066 10.476.176 11.732-.393 1.58-.69 9.755-11.014 9.755-11.014a18.898 18.898 0 0 0 1.529-1.325s.497-.418.197-.728Z"/><path fill="#4CAF4F" d="M38.957 80.962c.435-1.484 2.667-8.82 2.667-8.82s1.098 5.98.808 6.7a12.778 12.778 0 0 1-.942 1.781c-2.533 3.855-2.202 5.784-2.202 5.784l15.304-.466c.034-2.14-1.232-7.115-1.494-7.909-.262-.794.61-3.392.61-3.392s1.726-1.756 1.664-2.66a14.629 14.629 0 0 0-.3-2.416l9.316.345-.293-6.314-13.382-1.34c-.465 1.316-4.679.67-4.679.67-4.547.152-4.83.987-6.721 2.457-1.891 1.47-5.021 14.085-5.021 14.085l4.665 1.495Z"/><path fill="#263238" d="M48.005 79.468a3.218 3.218 0 0 1-.804.041 20.4 20.4 0 0 1-1.943-.11 21.125 21.125 0 0 1-1.925-.28 3.321 3.321 0 0 1-.784-.2c.27 0 .54.026.804.076.49.062 1.17.148 1.922.224.753.076 1.436.128 1.93.162.268.004.536.033.8.087ZM49.054 78.167c-.266.13-.546.226-.835.286a15.34 15.34 0 0 1-4.22.5 3.484 3.484 0 0 1-.877-.082c.29-.037.584-.052.877-.045a24.942 24.942 0 0 0 2.108-.152 22.862 22.862 0 0 0 2.07-.345c.288-.077.58-.131.877-.162ZM54.202 72.363a3.587 3.587 0 0 1-.107.78c-.09.48-.228 1.135-.404 1.853-.176.717-.345 1.38-.497 1.828a3.447 3.447 0 0 1-.269.742 3.51 3.51 0 0 1 .145-.773l.445-1.839c.166-.68.325-1.3.456-1.839.047-.26.124-.512.231-.752ZM39.12 80.082a16.05 16.05 0 0 1-2.357-.549 16.372 16.372 0 0 1-2.312-.725c.798.126 1.585.309 2.356.549.788.183 1.56.426 2.312.725ZM55.237 69.488a1.16 1.16 0 0 1-.393 0 4.323 4.323 0 0 1-3.55-2.705 4.459 4.459 0 0 1-.308-1.943 3.02 3.02 0 0 1 .473-1.539c.206-.31.515-.538.873-.645.095-.026.194-.039.293-.038h.103s-.145 0-.376.093a1.57 1.57 0 0 0-.79.646c-.47.738-.6 2.087-.1 3.347a4.217 4.217 0 0 0 1.066 1.56c.385.353.827.638 1.308.841a6.65 6.65 0 0 0 1.401.383ZM63.28 69.785a28.744 28.744 0 0 1-.082-3.181 28.47 28.47 0 0 1 .096-3.178c.087 1.057.114 2.118.083 3.178a27.6 27.6 0 0 1-.096 3.181Z"/><path fill="#FFBE9D" d="M50.624 62.642c.038-.77.117-1.639.117-1.639s1.905-.21 2.019-2.177c.113-1.967 0-6.504 0-6.504l-3.451-1.767-3.83 3.012.59 9.834 3.512.225a1.015 1.015 0 0 0 1.043-.984Z"/><path fill="#EB996E" d="M50.965 57.27s0 .038-.03.082a.255.255 0 0 1-.218.097c-.221 0-.435-.255-.511-.552a.9.9 0 0 1 0-.438.379.379 0 0 1 .207-.297.19.19 0 0 1 .145 0 .175.175 0 0 1 .08.08c.023.058 0 .096 0 .093 0-.004 0-.035-.035-.07a.124.124 0 0 0-.162-.034.294.294 0 0 0-.142.245.882.882 0 0 0 0 .39c.07.27.255.486.421.507a.238.238 0 0 0 .183-.051c.041-.028.055-.056.062-.052Z"/><path fill="#263238" d="M53.943 51.259c-.265-.904-1.228-1.353-2.105-1.601-1.335-.38-2.777-.545-4.082-.066-1.304.48-2.87 1.322-2.87 2.76-.77-.061-1.212.612-1.516 1.447a5.42 5.42 0 0 0-.344 1.587c-.097 1.884-.625 4.486-1.847 5.866-.69.77-1.646 1.3-2.039 2.26-.345.832-.166 1.818-.486 2.66-.287.742-.918 1.27-1.38 1.916a5.134 5.134 0 0 0-.328 4.965 6.287 6.287 0 0 0 3.757 3.243c1.612.49 3.33.508 4.952.049a8.282 8.282 0 0 0 3.32-1.646A5.542 5.542 0 0 0 50.9 71.51c.245-1.407-.149-2.84-.442-4.24-.918-4.427-.655-4.659.504-8.768.027-.073.041-.149.062-.221.02-.073.031-.107.045-.162.033-.163.05-.328.052-.494a.949.949 0 0 1-.998-.214 1.035 1.035 0 0 1-.234-1.035 1.506 1.506 0 0 1 .89-.838c.383-.16.794-.242 1.17-.418.797-.38 1.349-1.166 1.725-1.99.31-.573.405-1.236.27-1.871Z"/><path fill="#4CAF4F" d="M51.103 57.363c.073.108.133.224.18.345.103.218.241.525.393.88l.028.066h-.073l-.345.03c-.238 0-.438.046-.673.042a.125.125 0 0 1-.09-.08.155.155 0 0 1 0-.096c.009-.046.019-.092.032-.138l.062-.245c.03-.163.08-.323.145-.476-.007.166-.031.332-.073.493l-.048.245c-.017.083-.048.21 0 .2.172 0 .417-.037.645-.051l.345-.031-.045.076c-.148-.346-.272-.67-.345-.894a1.343 1.343 0 0 1-.138-.366Z"/><path fill="#263238" d="m39.288 86.407 15.304-.466 6.66 25.997-1.226 29.82h-8.091l.99-29.185-5.918-18.099.911 48.44-8.178.121-.859-45.531c-.038-1.267-.452-4.12-.297-5.376l.704-5.721Z"/><path fill="#455A64" d="M49.043 94.843c-.25.016-.502.001-.748-.044a24.152 24.152 0 0 1-3.551-.715 2.848 2.848 0 0 1-.69-.248c0-.052 1.125.217 2.505.497s2.491.459 2.484.51ZM59.944 140.122c0 .048-1.833.09-4.093.09s-4.096-.042-4.096-.09c0-.048 1.833-.09 4.096-.09 2.264 0 4.093.038 4.093.09ZM47.846 141.654c0 .052-1.78.09-3.975.09-2.195 0-3.972-.038-3.972-.09s1.78-.09 3.972-.09c2.19 0 3.975.042 3.975.09Z"/><path fill="#455A64" d="M46.79 141.53c-.048 0-.262-10.583-.48-23.636-.217-13.054-.345-23.644-.3-23.644.045 0 .266 10.58.48 23.64.214 13.061.352 23.64.3 23.64ZM58.857 140.122a.873.873 0 0 1 0-.141v-.414c0-.373.028-.908.048-1.588.048-1.38.117-3.385.204-5.841.186-4.942.448-11.753.735-19.272v-.204.024c-1.812-7.246-3.45-13.823-4.641-18.581l-1.38-5.628c-.16-.659-.28-1.173-.366-1.532-.042-.169-.07-.3-.093-.4a.6.6 0 0 1-.025-.138.773.773 0 0 1 .042.134c.027.097.062.228.11.394.093.345.228.87.4 1.525.346 1.332.832 3.25 1.44 5.614 1.2 4.755 2.856 11.314 4.692 18.571V112.873c-.307 7.519-.586 14.327-.79 19.268-.107 2.46-.197 4.451-.259 5.838l-.08 1.588c0 .176-.02.314-.023.414a.661.661 0 0 1-.014.141Z"/><path fill="#455A64" d="M56.217 112.055a9.266 9.266 0 0 1-1.787.397c-.746.127-1.38.217-1.667.231v-.069c.093.028.142.045.142.059 0 .013-.06 0-.156 0h-.207l.207-.063c.27-.079.904-.21 1.65-.345a9.345 9.345 0 0 1 1.818-.21ZM56.076 113.045a8.86 8.86 0 0 1-1.612-.072 9.106 9.106 0 0 1-1.604-.176 10.234 10.234 0 0 1 3.216.248Z"/><path fill="#000" d="M39.223 86.955a2.097 2.097 0 0 0 1.511.804c.617.073 1.24.062 1.853-.034 3.951-.438 8.137-.842 12.005-1.784-5.007.28-10.297.186-15.303.466l-.052.428M44.382 94.012l2.822 10.952-.197-10.49-2.625-.462Z" opacity=".2"/></svg>