<svg xmlns="http://www.w3.org/2000/svg" width="17" height="17" fill="none"><g clip-path="url(#a)"><path fill="#4CAF4F" stroke="#4CAF4F" stroke-width=".334" d="M11.348 4.12c-.245 0-.488.034-.722.1l-.002.001a.585.585 0 0 1-.45-.048l-.08.146.08-.146a.585.585 0 0 1 .133-1.077h.003a3.764 3.764 0 0 1 1.037-.144h.001a3.833 3.833 0 0 1 2.471 6.772l-.203.17.242.11a6.098 6.098 0 0 1 2.474 2.048.576.576 0 0 1-.14.812l-.002.001a.57.57 0 0 1-.604.04.592.592 0 0 1-.208-.182 4.938 4.938 0 0 0-4.03-2.092.585.585 0 0 1 0-1.169 2.671 2.671 0 0 0 0-5.342Zm0 0v.167-.167Zm-2.63 5.605-.203.17.24.11a6.098 6.098 0 0 1 2.475 2.047l.005.006a.584.584 0 0 1 .104.21l.162-.042-.162.043a.584.584 0 0 1-1.059.461l-.004-.006a4.924 4.924 0 0 0-8.06 0h-.001a.579.579 0 0 1-.476.248h-.001a.572.572 0 0 1-.334-.107h-.001a.585.585 0 0 1-.141-.813 6.1 6.1 0 0 1 2.473-2.048l.242-.109-.203-.17a3.84 3.84 0 1 1 4.943 0ZM1.306 13a.746.746 0 0 0 1.045-.181 4.757 4.757 0 0 1 7.787 0L1.307 13Zm2.718-7.694a2.67 2.67 0 1 0 4.441 2.968 2.67 2.67 0 0 0-4.441-2.968Z"/></g><defs><clipPath id="a"><path fill="#fff" d="M.737.03h16.026v16.026H.737z"/></clipPath></defs></svg>