<svg xmlns="http://www.w3.org/2000/svg" width="17" height="17" fill="none"><path fill="#4CAF4F" d="M14.091 14.407v-1.335a2.67 2.67 0 0 0-2.67-2.671h-.668a.668.668 0 0 1-.668-.668V6.395a1.335 1.335 0 1 0-2.67 0v6.01l-1.603-2.138a1.336 1.336 0 0 0-1.069-.534h-.29a1.046 1.046 0 0 0-.896 1.584l1.854 3.09M8.75 3.056v-.668.668Zm4.006 4.006h.668-.668Zm-8.68 0h.667-.668Zm1.564-3.11-.472-.471.472.472Zm6.22 0 .471-.471-.472.472Z"/><path stroke="#4CAF4F" stroke-linecap="round" stroke-linejoin="round" stroke-width=".668" d="M14.091 14.407v-1.335a2.67 2.67 0 0 0-2.67-2.671h-.668a.668.668 0 0 1-.668-.668V6.395A1.335 1.335 0 0 0 8.75 5.059v0a1.335 1.335 0 0 0-1.336 1.336v6.01l-1.602-2.138a1.336 1.336 0 0 0-1.069-.534h-.29a1.046 1.046 0 0 0-.896 1.584l1.854 3.09M8.75 3.056v-.668m4.006 4.674h.668m-9.349 0h.668m.897-3.11-.472-.471m6.691.472.472-.472"/></svg>