<svg xmlns="http://www.w3.org/2000/svg" width="17" height="17" fill="none"><mask id="a" fill="#fff"><path d="M10.34 7.925a.467.467 0 0 1-.22-.058.469.469 0 0 1-.473.473.467.467 0 0 1-.224-.059.468.468 0 0 1-.47.445.472.472 0 0 1-.47-.445.474.474 0 0 1-.256.058.481.481 0 0 1-.44-.486V5.728l-.243.419a.52.52 0 0 1-.71.19.424.424 0 0 1-.155-.581l.84-1.456.036-.08c.013-.03.025-.061.036-.092a1.6 1.6 0 0 1 1.543-1.093c.926 0 1.68.817 1.68 1.821v2.596a.47.47 0 0 1-.473.473ZM9.135 3.286a1.34 1.34 0 0 0-1.307.926 1.543 1.543 0 0 1-.042.11c-.047.104-.047.104-.06.118l-.002-.001c-.064.122-.256.455-.827 1.442a.174.174 0 0 0 .064.239.275.275 0 0 0 .367-.098l.476-.826a.126.126 0 0 1 .234.063v2.594c0 .123.093.228.206.236a.223.223 0 0 0 .237-.221V6.171a.126.126 0 0 1 .252 0v2.083a.222.222 0 0 0 .442 0V6.17a.126.126 0 1 1 .252 0v1.697a.222.222 0 0 0 .442 0V6.17a.126.126 0 1 1 .252 0v1.28a.222.222 0 0 0 .442 0V4.857c0-.865-.64-1.57-1.428-1.57Z"/></mask><path fill="#4CAF4F" d="M10.34 7.925a.467.467 0 0 1-.22-.058.469.469 0 0 1-.473.473.467.467 0 0 1-.224-.059.468.468 0 0 1-.47.445.472.472 0 0 1-.47-.445.474.474 0 0 1-.256.058.481.481 0 0 1-.44-.486V5.728l-.243.419a.52.52 0 0 1-.71.19.424.424 0 0 1-.155-.581l.84-1.456.036-.08c.013-.03.025-.061.036-.092a1.6 1.6 0 0 1 1.543-1.093c.926 0 1.68.817 1.68 1.821v2.596a.47.47 0 0 1-.473.473ZM9.135 3.286a1.34 1.34 0 0 0-1.307.926 1.543 1.543 0 0 1-.042.11c-.047.104-.047.104-.06.118l-.002-.001c-.064.122-.256.455-.827 1.442a.174.174 0 0 0 .064.239.275.275 0 0 0 .367-.098l.476-.826a.126.126 0 0 1 .234.063v2.594c0 .123.093.228.206.236a.223.223 0 0 0 .237-.221V6.171a.126.126 0 0 1 .252 0v2.083a.222.222 0 0 0 .442 0V6.17a.126.126 0 1 1 .252 0v1.697a.222.222 0 0 0 .442 0V6.17a.126.126 0 1 1 .252 0v1.28a.222.222 0 0 0 .442 0V4.857c0-.865-.64-1.57-1.428-1.57Z"/><path fill="#4CAF4F" d="M10.34 7.925v-.446h1.574l-1.34.825-.233-.38Zm-.22-.058h-.446v-.744l.656.352-.21.392Zm-.139.335-.315-.315.315.315Zm-.558.08-.445-.027.041-.7.617.335-.213.391Zm-.136.306.315.314-.315-.314Zm-.804-.307-.212-.391.615-.333.041.698-.444.026Zm-.256.058-.029.445.029-.445Zm-.44-2.611L7.4 5.505l.83-1.439v1.662h-.445Zm-.243.419-.386-.222.386.222Zm-.71.19-.22.387-.003-.001.224-.385Zm-.198-.258.43-.115-.43.115Zm.043-.323-.385-.223.128-.222h.257v.445Zm.84-1.456.405.184-.008.02-.01.018-.387-.222Zm.036-.08-.407-.181.407.18Zm.036-.092.42.149-.42-.149Zm3.222.728h-.445.445Zm0 2.596h.446-.446Zm-.138.334.315.315-.315-.315Zm-.334.139v.445H8.768l1.34-.825.233.38ZM9.134 3.286v-.445h.59l-.162.568-.428-.123Zm-1.307.926.42.149-.42-.149Zm-.042.11.406.18-.406-.18Zm-.06.118.335.293-.29.334-.336-.29.291-.337Zm-.002-.001-.393-.208.262-.494.422.365-.29.337Zm-.827 1.442.386.223-.386-.223Zm-.017.133-.43.116v-.002l.43-.114Zm.08.106-.22.386h-.002l.223-.386Zm.368-.098L6.94 5.8v-.001l.386.223Zm.476-.826-.385-.222.385.222Zm.141-.058-.115.43.115-.43Zm.3 2.95-.024.445h-.006l.03-.444Zm.172-.063.314.314-.314-.314Zm.316-1.854h.445-.445Zm0 2.083h-.446.446Zm.378.156.315.315-.315-.315Zm.316-2.239h.445-.445Zm0 1.677H8.98h.446Zm.378.176.314.315-.314-.315Zm.316-1.853h.445-.445Zm0 1.28h-.446.446Zm.378.158.314.315-.314-.315Zm.064-.157h-.445.445Zm0-2.596h.445-.445Zm-1.428-1.57v.445h-.59l.162-.567.428.122ZM10.34 8.37a.911.911 0 0 1-.432-.11l.42-.785.012.004c.001 0 0 0 0 0v.89Zm.224-.503h-.89.89Zm0 0a.914.914 0 0 1-.27.65l-.628-.63a.025.025 0 0 0 .005-.008l.002-.011h.89Zm-.27.65a.915.915 0 0 1-.648.269v-.89c.005 0 .008-.002.01-.003a.027.027 0 0 0 .01-.006l.629.63Zm-.648.269a.912.912 0 0 1-.437-.114l.426-.782.01.005c.002 0 .002 0 0 0v.89Zm.22-.479a.913.913 0 0 1-.265.595l-.63-.629a.015.015 0 0 0 .004-.005c0-.002.002-.006.002-.013l.89.052Zm-.265.595a.915.915 0 0 1-.65.27V8.28l.012-.002a.027.027 0 0 0 .008-.006l.63.63Zm-.65.27a.917.917 0 0 1-.913-.864l.888-.053a.029.029 0 0 0 .017.024l.009.002v.89Zm-.257-.5a.92.92 0 0 1-.497.112l.057-.889h.004a.052.052 0 0 0 .012-.005l.424.783Zm-.497.112a.926.926 0 0 1-.857-.93h.89a.05.05 0 0 0 .013.033c.006.008.011.008.012.008l-.058.889Zm-.857-.93V5.727h.89v2.125h-.89Zm.83-1.904-.241.42-.771-.446.242-.419.77.445Zm-.24.419a.966.966 0 0 1-.837.483v-.89a.075.075 0 0 0 .064-.037l.772.444Zm-.837.483a.967.967 0 0 1-.48-.128l.442-.772c.012.006.025.01.038.01v.89Zm-.483-.13a.869.869 0 0 1-.405-.528l.86-.23a.022.022 0 0 0-.008-.011l-.447.77Zm-.405-.528a.868.868 0 0 1 .088-.661l.77.446a.02.02 0 0 0 .002-.007v-.008l-.86.23Zm.473-.883a.955.955 0 0 0-.383.218l-.001.002c-.001 0-.001 0 0 0V5.53a6.007 6.007 0 0 0 .032-.055 568.048 568.048 0 0 0 .806-1.395l.772.443a1061.914 1061.914 0 0 1-.832 1.441l-.007.012-.001.003-.001.001v.001l-.002.003a.955.955 0 0 1-.383.218v-.89Zm.435-1.195.034-.077.814.361c-.014.03-.03.07-.038.084l-.81-.368Zm.034-.077a.833.833 0 0 0 .023-.06l.84.298a1.7 1.7 0 0 1-.05.123l-.813-.361Zm.023-.06A2.046 2.046 0 0 1 9.134 2.59v.89c-.524 0-.948.3-1.124.797l-.839-.298ZM9.134 2.59c1.205 0 2.124 1.05 2.124 2.266h-.89c0-.793-.587-1.376-1.234-1.376v-.89Zm2.124 2.266v2.596h-.89V4.856h.89Zm0 2.596a.915.915 0 0 1-.268.649l-.63-.63a.027.027 0 0 0 .006-.008.03.03 0 0 0 .002-.011h.89Zm-.268.649a.915.915 0 0 1-.65.269v-.89a.028.028 0 0 0 .012-.003.026.026 0 0 0 .008-.006l.63.63Zm-.883-.556.467.759-.466-.759Zm-.973-3.814a.895.895 0 0 0-.887.63l-.84-.298a1.784 1.784 0 0 1 1.727-1.222v.89Zm-.887.63c-.014.04-.033.09-.056.142l-.813-.362c.009-.02.018-.044.03-.079l.839.3Zm-.056.142c-.02.046-.037.084-.05.11a.57.57 0 0 1-.04.07c-.02.027-.039.049-.04.05l-.671-.585c.001-.002 0-.001 0 0a.33.33 0 0 0-.023.03c-.014.02-.022.036-.023.037l.002-.002a1.388 1.388 0 0 0 .032-.073l.813.363Zm-.757.274-.001-.001.581-.674.002.002-.582.673Zm.683-.13c-.07.132-.269.476-.835 1.457l-.771-.445c.574-.995.76-1.316.82-1.428l.786.416Zm-.835 1.457a.271.271 0 0 0 .027-.204l-.86.228a.619.619 0 0 1 .062-.47l.77.446Zm.026-.206a.27.27 0 0 0-.126-.163l-.445.77a.62.62 0 0 1-.288-.375l.86-.232Zm-.126-.164a.177.177 0 0 0-.134-.02.179.179 0 0 0-.107.086l.772.443a.72.72 0 0 1-.975.263l.444-.772Zm-.24.065.476-.825.77.445-.476.825-.77-.445Zm.476-.826a.57.57 0 0 1 .643-.265l-.233.86a.32.32 0 0 0 .36-.148l-.77-.447Zm.642-.265a.57.57 0 0 1 .423.551h-.89a.32.32 0 0 0 .236.31l.23-.86Zm.423.551v2.594h-.89V5.26h.89Zm0 2.594a.2.2 0 0 0-.05-.132.233.233 0 0 0-.16-.076l-.059.888c-.375-.025-.622-.351-.622-.68h.89Zm-.216-.209a.223.223 0 0 0-.166.066l.63.63a.668.668 0 0 1-.511.193l.047-.889ZM8.1 7.71a.225.225 0 0 0-.066.158h.89c0 .177-.069.346-.195.471l-.63-.63Zm-.066.158V6.171h.89v1.697h-.89Zm0-1.697a.57.57 0 0 1 .571-.57v.89a.32.32 0 0 0 .32-.32h-.89Zm.571-.57a.57.57 0 0 1 .57.57h-.89c0 .177.144.32.32.32v-.89Zm.57.57v2.083h-.89V6.17h.89Zm0 2.083c0-.124-.1-.224-.223-.224v.89a.667.667 0 0 1-.667-.666h.89Zm-.223-.224a.225.225 0 0 0-.158.065l.63.63a.666.666 0 0 1-.472.195v-.89Zm-.158.066a.225.225 0 0 0-.066.158h.89c0 .176-.069.345-.194.47l-.63-.628Zm-.066.158V6.17h.89v2.083h-.89Zm0-2.083a.57.57 0 0 1 .571-.57v.89a.32.32 0 0 0 .32-.32h-.89Zm.571-.57a.57.57 0 0 1 .57.57h-.89c0 .177.144.32.32.32v-.89Zm.57.57v1.677h-.89V6.171h.89Zm0 1.677v.02h-.89v-.02h.89Zm0 .02c0-.124-.1-.224-.223-.224v.89a.667.667 0 0 1-.667-.666h.89Zm-.223-.224a.225.225 0 0 0-.157.065l.628.63a.666.666 0 0 1-.471.195v-.89Zm-.158.065a.226.226 0 0 0-.066.159h.89c0 .177-.069.346-.195.471l-.629-.63Zm-.066.159V6.17h.89v1.697h-.89Zm0-1.697a.57.57 0 0 1 .571-.57v.89a.32.32 0 0 0 .32-.32h-.89Zm.571-.57a.57.57 0 0 1 .57.57h-.89c0 .177.144.32.32.32V5.6Zm.57.57v1.281h-.89v-1.28h.89Zm0 1.28c0-.123-.1-.223-.223-.223v.89a.667.667 0 0 1-.667-.666h.89Zm-.223-.223a.225.225 0 0 0-.158.066l.629.63a.665.665 0 0 1-.471.195v-.89Zm-.158.066a.225.225 0 0 0-.066.158h.89c0 .176-.069.345-.195.472l-.63-.63Zm-.066.158V4.856h.89v2.596h-.89Zm0-2.596c0-.66-.48-1.125-.983-1.125v-.89c1.072 0 1.873.944 1.873 2.015h-.89ZM8.706 3.164l.856.245-.856-.245Z" mask="url(#a)"/><mask id="b" fill="#fff"><path d="m5.405 9.729 1.823-1.094a.481.481 0 0 1 .644.128c.051.074.077.16.082.249a.469.469 0 0 1 .623.174.47.47 0 0 1-.14.632.467.467 0 0 1 .22.52.47.47 0 0 1-.216.29.47.47 0 0 1 0 .81l-2.225 1.335c-.416.249-.896.335-1.352.242a1.606 1.606 0 0 1-1.074-.746 1.6 1.6 0 0 1 .143-1.885c.021-.025.042-.051.06-.078.02-.028.043-.06.05-.072.048-.084.817-1.47.817-1.47a.426.426 0 0 1 .58-.165.52.52 0 0 1 .2.706l-.235.424Zm.011-.815a.266.266 0 0 0-.098-.096.175.175 0 0 0-.239.068c-.55.991-.737 1.33-.81 1.45h.002c-.006.02-.006.02-.072.114a1.522 1.522 0 0 1-.072.094 1.34 1.34 0 0 0-.122 1.596c.195.326.518.549.909.628.395.08.811.006 1.172-.21l2.226-1.336a.22.22 0 0 0 .076-.304.221.221 0 0 0-.304-.076l-1.098.659a.125.125 0 1 1-.129-.215l1.098-.66.357-.213a.22.22 0 0 0 .076-.304.222.222 0 0 0-.304-.076l-1.455.873a.125.125 0 1 1-.129-.215l1.785-1.072a.22.22 0 0 0 .076-.303.22.22 0 0 0-.303-.076l-.33.198h-.001l-1.455.873a.125.125 0 1 1-.13-.216l1.456-.872a.22.22 0 0 0 .067-.317c-.064-.094-.203-.118-.308-.055l-2.224 1.334a.126.126 0 0 1-.174-.169l.462-.833a.269.269 0 0 0-.005-.269Z"/></mask><path fill="#4CAF4F" d="m5.405 9.729 1.823-1.094a.481.481 0 0 1 .644.128c.051.074.077.16.082.249a.469.469 0 0 1 .623.174.47.47 0 0 1-.14.632.467.467 0 0 1 .22.52.47.47 0 0 1-.216.29.47.47 0 0 1 0 .81l-2.225 1.335c-.416.249-.896.335-1.352.242a1.606 1.606 0 0 1-1.074-.746 1.6 1.6 0 0 1 .143-1.885c.021-.025.042-.051.06-.078.02-.028.043-.06.05-.072.048-.084.817-1.47.817-1.47a.426.426 0 0 1 .58-.165.52.52 0 0 1 .2.706l-.235.424Zm.011-.815a.266.266 0 0 0-.098-.096.175.175 0 0 0-.239.068c-.55.991-.737 1.33-.81 1.45h.002c-.006.02-.006.02-.072.114a1.522 1.522 0 0 1-.072.094 1.34 1.34 0 0 0-.122 1.596c.195.326.518.549.909.628.395.08.811.006 1.172-.21l2.226-1.336a.22.22 0 0 0 .076-.304.221.221 0 0 0-.304-.076l-1.098.659a.125.125 0 1 1-.129-.215l1.098-.66.357-.213a.22.22 0 0 0 .076-.304.222.222 0 0 0-.304-.076l-1.455.873a.125.125 0 1 1-.129-.215l1.785-1.072a.22.22 0 0 0 .076-.303.22.22 0 0 0-.303-.076l-.33.198h-.001l-1.455.873a.125.125 0 1 1-.13-.216l1.456-.872a.22.22 0 0 0 .067-.317c-.064-.094-.203-.118-.308-.055l-2.224 1.334a.126.126 0 0 1-.174-.169l.462-.833a.269.269 0 0 0-.005-.269Z"/><path fill="#4CAF4F" d="m5.405 9.729.23.381-1.425.855.806-1.452.39.216Zm1.823-1.094.23.382-.23-.382Zm.644.128-.366.254.366-.254Zm.082.249.206.394-.619.323-.032-.697.445-.02Zm.332-.04.108-.433-.108.432Zm.29.214.383-.229-.382.23Zm.054.358-.432-.108.432.108Zm-.193.274-.226.383-.603-.356.578-.395.251.368Zm.166.162-.382.229.382-.229Zm.053.358.432.107-.432-.107Zm-.215.29-.236-.377.007-.004.229.381Zm0 0-.23.383-.623-.374.616-.386.236.378Zm.162.161.382-.23v.001l-.382.229Zm.054.358.432.108-.432-.108Zm-.216.29.23.382-.23-.382Zm-2.225 1.336.229.382-.23-.382Zm-1.352.242-.09.436.09-.436Zm-1.074-.746.382-.229-.382.23Zm.143-1.885L3.59 10.1l.343.284Zm.06-.078-.364-.255.364.255Zm.05-.072.39.217-.011.02-.012.017-.366-.254Zm.817-1.47.39.216-.788-.414.398.199Zm.373-.219v.446-.446Zm.207.054.215-.39.002.001-.217.389Zm.192.186-.382.23v-.001l.382-.229Zm.009.52-.39-.216.39.216Zm-.225-.39.382-.23.155.258-.181.24-.356-.269Zm-.098-.097.215-.39.002.002-.217.388Zm-.239.068.39.216-.39-.216Zm-.81 1.45-.103.432-.592-.14.314-.522.381.23Zm.002 0 .103-.433.46.11-.137.451-.426-.128Zm-.072.114.365.256h-.001l-.364-.255Zm-.072.094.344.283-.344-.283Zm-.122 1.596-.381.23.381-.23Zm.909.628-.089.437.089-.437Zm1.172-.21-.229-.382.23.381Zm2.226-1.336-.229-.382.23.382Zm.101-.136-.432-.108.432.108Zm-.025-.168-.381.23.381-.23Zm-.304-.076.23.382-.23-.382Zm-1.098.659-.229-.382.23.382Zm-.172-.043.382-.23v.001l-.382.229Zm.043-.172-.23-.382h.001l.229.382Zm1.098-.66.23.383-.23-.382Zm.357-.213.229.382-.23-.382Zm.1-.136.433.108-.432-.108Zm-.024-.168-.382.23.382-.23Zm-.304-.076.23.382-.23-.382Zm-1.455.873-.229-.382.23.382Zm-.172-.043.382-.23-.382.23Zm.043-.172-.23-.382h.001l.229.382Zm1.785-1.072.23.382-.23-.382Zm.101-.136-.431-.108.431.108Zm-.025-.167.382-.23-.382.23Zm-.136-.101.108-.432-.108.432Zm-.167.025-.23-.382.23.382Zm-.33.198.228.382-.106.063h-.123v-.445Zm-.001 0-.23-.382.107-.063h.123v.445Zm-1.455.873-.23-.382h.001l.23.382Zm-.172-.043.381-.23v.001l-.381.229Zm.043-.173-.23-.381.23.381Zm1.455-.872.229.381-.23-.381Zm.1-.136-.431-.108.432.108Zm-.033-.181-.366.253.366-.253Zm-.308-.055.23.381-.23-.381Zm-2.224 1.334.23.382h-.001l-.229-.382Zm-.152-.018-.309.32.31-.32Zm-.022-.15-.39-.217.39.216Zm.462-.834-.389-.216.39.216Zm-.005-.269-.381.23-.155-.258.181-.24.355.268Zm-.24.433L7 8.253l.458.764-1.823 1.093-.458-.763ZM7 8.254a.926.926 0 0 1 1.239.256l-.732.506s-.003-.004-.013-.006a.05.05 0 0 0-.036.007L7 8.254Zm1.239.255c.104.15.153.32.16.482l-.89.041c0-.013-.003-.017-.002-.015l.732-.508Zm-.49.108a.914.914 0 0 1 .423-.105v.89l-.011.004-.412-.79Zm.423-.105c.075 0 .15.009.223.027l-.215.864a.033.033 0 0 0-.008-.001v-.89Zm.223.027c.237.06.439.21.565.418l-.764.458a.027.027 0 0 0-.007-.008.026.026 0 0 0-.01-.004l.216-.864Zm.565.419c.125.209.162.457.103.694l-.864-.216a.026.026 0 0 0 .001-.01.028.028 0 0 0-.004-.01l.764-.458Zm.103.694a.912.912 0 0 1-.374.534l-.502-.736a.037.037 0 0 0 .01-.008.014.014 0 0 0 .002-.006l.864.216Zm-.399-.217a.912.912 0 0 1 .322.316l-.764.458a.048.048 0 0 0-.01-.008l.452-.766Zm.322.316c.125.21.162.457.103.694l-.863-.215a.027.027 0 0 0 0-.01.028.028 0 0 0-.004-.011l.764-.458Zm.103.695a.915.915 0 0 1-.418.564l-.458-.763a.027.027 0 0 0 .008-.008.026.026 0 0 0 .005-.01l.863.217Zm-.411.56-.473-.755h.001l.472.755Zm-.008-.76a.915.915 0 0 1 .316.314l-.763.458H8.22a.054.054 0 0 0-.01-.007l.458-.764Zm.316.314c.126.21.163.458.104.695l-.864-.216a.026.026 0 0 0 0-.01.028.028 0 0 0-.003-.01l.763-.459Zm.104.695a.916.916 0 0 1-.419.564l-.458-.763a.028.028 0 0 0 .009-.007.027.027 0 0 0 .004-.01l.864.216Zm-.419.564-2.225 1.335-.458-.763 2.225-1.335.458.763Zm-2.225 1.335c-.507.304-1.1.413-1.67.297l.178-.873c.342.07.71.007 1.034-.187l.458.764Zm-1.67.297a2.05 2.05 0 0 1-1.367-.953l.764-.458c.164.275.437.468.78.539l-.177.872Zm-1.367-.953A2.045 2.045 0 0 1 3.59 10.1l.687.567a1.156 1.156 0 0 0-.105 1.373l-.764.458ZM3.59 10.1a.83.83 0 0 0 .039-.05l.729.512a1.677 1.677 0 0 1-.082.106L3.59 10.1Zm.04-.05.048-.07.732.508-.053.074-.728-.512Zm.025-.034a832.545 832.545 0 0 0 .782-1.408l.025-.044.006-.011.002-.003v-.001c.001-.001.598-.178.788.415l-.796-.398c.19.592.787.415.787.415l-.002.004-.007.011-.024.044a1031.134 1031.134 0 0 1-.784 1.411l-.777-.435ZM4.47 8.55a.871.871 0 0 1 .763-.449v.89c.003 0 .006 0 .008-.002a.022.022 0 0 0 .008-.008L4.47 8.55Zm.763-.449a.87.87 0 0 1 .422.11l-.431.778a.02.02 0 0 0 .009.003V8.1Zm.424.11c.147.082.27.202.357.347l-.764.457a.074.074 0 0 0-.028-.026l.435-.778Zm.356.346a.966.966 0 0 1 .016.966l-.777-.434a.075.075 0 0 0-.002-.074l.763-.458Zm.017.965-.235.424-.779-.432.235-.424.779.432Zm-.995-.378a.18.18 0 0 0 .065.064l.435-.777a.71.71 0 0 1 .263.255l-.763.458Zm.067.065a.27.27 0 0 0 .367-.106l-.78-.431a.62.62 0 0 1 .844-.242l-.431.779Zm.367-.106c-.547.985-.74 1.334-.818 1.463l-.763-.46c.067-.11.248-.437.802-1.435l.779.432Zm-1.096.8h.001l-.206.867h-.002l.207-.867Zm.324.562a.564.564 0 0 1-.063.138c-.016.027-.042.063-.07.104l-.73-.51.037-.053.009-.013a.33.33 0 0 0-.035.078s0 .001 0 0l.852.256Zm-.134.242a2.001 2.001 0 0 1-.092.12l-.688-.565c.023-.027.039-.048.052-.066l.728.511Zm-.093.121a.895.895 0 0 0-.083 1.084l-.764.458a1.784 1.784 0 0 1 .16-2.109l.687.567Zm-.083 1.084c.127.213.34.365.616.421l-.178.873a1.802 1.802 0 0 1-1.202-.836l.764-.458Zm.616.421c.28.057.584.006.854-.156l.458.763c-.452.271-.98.37-1.49.266l.178-.873Zm.854-.156 2.226-1.336.458.764-2.226 1.335-.458-.763Zm2.226-1.336a.225.225 0 0 0-.102.138l.864.216a.665.665 0 0 1-.304.41l-.458-.764Zm-.102.138a.225.225 0 0 0 .026.17l.763-.459a.665.665 0 0 1 .075.505l-.864-.216Zm.025.17c.064.105.2.14.308.076l-.46-.763a.667.667 0 0 1 .916.228l-.764.458Zm.307.076-1.098.659-.458-.764 1.098-.658.458.763Zm-1.097.659a.57.57 0 0 1-.784-.196l.764-.458a.32.32 0 0 0-.439-.11l.459.764Zm-.784-.196a.57.57 0 0 1 .196-.783l.458.763a.32.32 0 0 0 .11-.438l-.764.458Zm.196-.783 1.098-.659.458.764-1.098.658-.458-.763Zm1.098-.659.357-.214.458.764-.357.214-.458-.764Zm.357-.214a.224.224 0 0 0-.102.138l.864.216a.666.666 0 0 1-.304.41l-.458-.764Zm-.102.138a.225.225 0 0 0 .025.17l.763-.46a.665.665 0 0 1 .076.506l-.864-.216Zm.025.17c.064.105.2.14.307.076l-.458-.763a.667.667 0 0 1 .914.228l-.763.458Zm.307.076-1.455.873-.458-.764 1.455-.873.458.764Zm-1.455.873a.57.57 0 0 1-.783-.196l.764-.458a.32.32 0 0 0-.439-.11l.458.764Zm-.783-.196a.57.57 0 0 1 .196-.783l.458.763a.32.32 0 0 0 .11-.438l-.764.458Zm.196-.783 1.785-1.071.458.763-1.785 1.071-.458-.763Zm1.785-1.071a.225.225 0 0 0-.101.137l.863.216a.665.665 0 0 1-.303.41l-.459-.763Zm-.101.137a.225.225 0 0 0 .025.17l.763-.458c.091.152.118.332.075.504l-.863-.216Zm.025.17c.03.05.08.087.137.102l.216-.864a.665.665 0 0 1 .41.304l-.763.458Zm.138.102a.225.225 0 0 0 .169-.025l-.458-.764a.665.665 0 0 1 .504-.075l-.215.864Zm.169-.026-.33.199-.459-.764.33-.198.459.763Zm-.56.262a.446.446 0 0 0 .31-.125l.005-.005-.001.001a.362.362 0 0 1-.02.018.445.445 0 0 1-.294.111v-.89a.444.444 0 0 0-.31.125l-.005.005a.1.1 0 0 1 .005-.005.456.456 0 0 1 .252-.121.444.444 0 0 1 .058-.004v.89Zm0 0v-.89.89Zm.229-.063-1.455.873-.458-.764 1.455-.873.458.764Zm-1.454.872a.57.57 0 0 1-.784-.196l.764-.457a.32.32 0 0 0-.44-.11l.46.763Zm-.784-.195a.57.57 0 0 1 .196-.783l.458.763a.32.32 0 0 0 .11-.438l-.764.458Zm.196-.783 1.455-.873.458.763-1.455.873-.458-.763Zm1.454-.873a.225.225 0 0 0-.101.138l.864.216a.666.666 0 0 1-.304.41l-.459-.764Zm-.101.137a.226.226 0 0 0 .032.181l.732-.507c.11.158.147.354.1.543l-.864-.217Zm.032.181c.043.062.103.09.149.099a.2.2 0 0 0 .139-.026l-.459-.763c.282-.17.69-.126.903.184l-.732.506Zm.287.073-2.224 1.335-.458-.764L7.128 8.47l.458.763Zm-2.224 1.335a.571.571 0 0 1-.69-.08l.618-.64a.32.32 0 0 0-.385-.044l.457.764Zm-.69-.08A.57.57 0 0 1 4.57 9.8l.779.432a.32.32 0 0 0-.058-.385l-.618.64ZM4.57 9.8l.463-.833.778.432-.462.833-.779-.432Zm.463-.834a.176.176 0 0 0 .003.177l.763-.458c.13.218.137.491.012.715l-.778-.434Zm.03-.32.71.537-.71-.537Z" mask="url(#b)"/><path fill="#4CAF4F" stroke="#4CAF4F" stroke-width=".445" d="M9.73 8.985A.444.444 0 0 0 9.627 9l.105-.014Zm0 0 .003-.028-.002.028Zm-.403 1.01Zm0 0-.025-.015.025.014m0 0 .002-.002-.002.002Zm1.707 1.316Z"/></svg>