<svg xmlns="http://www.w3.org/2000/svg" width="17" height="17" fill="none"><path fill="#4CAF4F" stroke="#4CAF4F" stroke-width=".334" d="M2.725 5.894v.167h12.353v-.918a1.419 1.419 0 0 0-1.42-1.42H4.145a1.419 1.419 0 0 0-1.42 1.42v.75Zm12.353 1.001v-.167H2.725v4.925a1.42 1.42 0 0 0 1.419 1.419h9.515a1.419 1.419 0 0 0 1.419-1.42V6.896ZM2.058 5.143a2.087 2.087 0 0 1 2.086-2.087h9.515a2.086 2.086 0 0 1 2.087 2.087v6.51a2.086 2.086 0 0 1-2.087 2.087H4.144a2.087 2.087 0 0 1-2.087-2.087v-6.51Zm9.347 4.924h1.503a.334.334 0 1 1 0 .668h-1.503a.334.334 0 0 1 0-.668Z"/></svg>