<svg xmlns="http://www.w3.org/2000/svg" width="24" height="23" fill="none"><path fill="#fff" fill-rule="evenodd" d="M.852 11.774C.852 5.624 5.838.637 11.989.637c6.15 0 11.137 4.986 11.137 11.137 0 6.151-4.986 11.137-11.137 11.137-6.151 0-11.137-4.986-11.137-11.137Z" clip-rule="evenodd" opacity=".1"/><path fill="#fff" fill-rule="evenodd" d="M11.989 5.835c-1.613 0-1.816.007-2.45.035-.632.03-1.063.13-1.44.276-.392.152-.723.355-1.053.685-.33.33-.533.662-.686 1.052-.147.378-.247.81-.276 1.442-.028.634-.035.836-.035 2.45 0 1.613.007 1.814.035 2.448.03.632.13 1.064.276 1.442.152.39.355.722.685 1.052.33.33.662.534 1.052.685.378.147.81.247 1.442.276.634.03.836.036 2.45.036 1.612 0 1.814-.007 2.448-.036.632-.029 1.064-.129 1.442-.276.39-.151.722-.355 1.052-.685.33-.33.533-.662.685-1.052.146-.378.247-.81.276-1.442.029-.634.036-.835.036-2.449 0-1.613-.007-1.815-.036-2.449-.03-.632-.13-1.064-.276-1.441a2.915 2.915 0 0 0-.685-1.053c-.33-.33-.661-.533-1.052-.685-.379-.147-.81-.247-1.443-.276-.634-.028-.835-.035-2.449-.035h.002Zm-.533 1.07h.533c1.586 0 1.774.006 2.4.034.58.027.894.123 1.103.205.277.107.475.236.682.444.208.208.337.406.445.683.081.21.178.523.205 1.103.028.626.034.814.034 2.399s-.006 1.773-.034 2.4c-.027.579-.124.893-.205 1.102a1.837 1.837 0 0 1-.445.682 1.835 1.835 0 0 1-.682.445c-.21.081-.524.178-1.103.204-.626.029-.814.035-2.4.035-1.586 0-1.774-.006-2.4-.035-.58-.026-.894-.123-1.103-.205a1.839 1.839 0 0 1-.683-.444 1.841 1.841 0 0 1-.445-.682c-.081-.21-.178-.524-.204-1.103-.029-.626-.035-.814-.035-2.4 0-1.587.006-1.774.035-2.4.026-.58.123-.893.204-1.103a1.84 1.84 0 0 1 .445-.683c.208-.208.406-.336.683-.444.21-.082.524-.179 1.103-.205.548-.025.76-.032 1.867-.034v.002Zm3.704.986a.713.713 0 1 0 0 1.425.713.713 0 0 0 0-1.425Zm-3.171.833a3.05 3.05 0 1 0 0 6.101 3.05 3.05 0 0 0 0-6.101Zm0 1.07a1.98 1.98 0 1 1 0 3.96 1.98 1.98 0 0 1 0-3.96Z" clip-rule="evenodd"/></svg>