<svg xmlns="http://www.w3.org/2000/svg" width="23" height="23" fill="none"><path fill="#fff" fill-rule="evenodd" d="M.674 11.774C.674 5.624 5.66.637 11.811.637c6.151 0 11.137 4.986 11.137 11.137 0 6.151-4.986 11.137-11.137 11.137-6.15 0-11.137-4.986-11.137-11.137Z" clip-rule="evenodd" opacity=".1"/><path fill="#fff" fill-rule="evenodd" d="m11.478 9.69.023.385-.39-.047c-1.417-.181-2.656-.795-3.708-1.825l-.514-.511-.132.377c-.28.842-.101 1.73.483 2.328.311.33.241.378-.296.181-.187-.063-.35-.11-.366-.086-.055.055.132.77.28 1.054.203.393.616.778 1.067 1.006l.382.181-.452.008c-.436 0-.452.008-.405.173.156.511.771 1.054 1.457 1.29l.483.165-.42.252a4.385 4.385 0 0 1-2.089.582c-.35.008-.638.039-.638.063 0 .078.95.519 1.503.692 1.66.51 3.63.29 5.11-.582 1.052-.622 2.104-1.856 2.595-3.052.264-.637.53-1.8.53-2.36 0-.36.023-.408.459-.84.257-.252.499-.528.545-.606.078-.15.07-.15-.327-.016-.662.236-.756.204-.428-.15.241-.251.53-.707.53-.84 0-.025-.117.015-.25.086-.14.078-.452.196-.685.267l-.421.134-.382-.26c-.21-.141-.506-.299-.662-.346-.397-.11-1.005-.094-1.363.032-.974.353-1.59 1.266-1.52 2.265Z" clip-rule="evenodd"/></svg>