<svg xmlns="http://www.w3.org/2000/svg" width="23" height="23" fill="none"><path fill="#fff" fill-rule="evenodd" d="M.085 11.774C.085 5.624 5.072.637 11.223.637c6.15 0 11.137 4.986 11.137 11.137 0 6.151-4.987 11.137-11.137 11.137-6.151 0-11.138-4.986-11.138-11.137Z" clip-rule="evenodd" opacity=".1"/><path fill="#fff" fill-rule="evenodd" d="M15.864 7.946c.511.14.914.553 1.05 1.078.248.951.248 2.936.248 2.936s0 1.985-.248 2.936c-.136.525-.539.938-1.05 1.078-.926.255-4.641.255-4.641.255s-3.715 0-4.642-.255a1.508 1.508 0 0 1-1.05-1.078c-.248-.951-.248-2.936-.248-2.936s0-1.985.248-2.936c.137-.525.54-.938 1.05-1.078.927-.255 4.642-.255 4.642-.255s3.715 0 4.641.255Zm-5.755 2.343v3.713l2.97-1.856-2.97-1.857Z" clip-rule="evenodd"/></svg>