<svg xmlns="http://www.w3.org/2000/svg" width="46" height="40" fill="none"><path fill="#E8F5E9" d="M45.919 26.883c0 6.92-5.61 12.53-12.53 12.53H14.596a3.48 3.48 0 0 1-3.48-3.48V12.265a6.96 6.96 0 0 1 6.96-6.96h24.362a3.48 3.48 0 0 1 3.48 3.48v18.097Z"/><path fill="#103E13" d="M17.373 7.393c-2.486 0-4.51 2.042-4.51 4.539 0 1.58.811 2.974 2.036 3.786a7.827 7.827 0 0 0-3.698 2.628 6.518 6.518 0 0 0-1.724-.95 3.866 3.866 0 0 0 1.568-3.105c0-2.117-1.713-3.85-3.817-3.85-2.105 0-3.817 1.733-3.817 3.85 0 1.272.62 2.403 1.569 3.106a6.609 6.609 0 0 0-4.306 6.21v2.006a.575.575 0 0 0 .578.575h8.802a.529.529 0 0 0 .064.003h14.51a.526.526 0 0 0 .064-.003h8.803a.576.576 0 0 0 .573-.575v-2.006a6.607 6.607 0 0 0-4.301-6.21 3.866 3.866 0 0 0 1.568-3.106c0-2.117-1.712-3.85-3.816-3.85-2.105 0-3.817 1.733-3.817 3.85 0 1.27.62 2.401 1.567 3.105a6.518 6.518 0 0 0-1.726.953 7.82 7.82 0 0 0-3.695-2.63 4.543 4.543 0 0 0 2.036-3.787c0-2.497-2.025-4.539-4.511-4.539Zm0 1.152c1.859 0 3.358 1.509 3.358 3.387a3.36 3.36 0 0 1-3.314 3.382l-.044-.002-.044.002a3.36 3.36 0 0 1-3.313-3.382c0-1.879 1.497-3.387 3.356-3.387ZM7.228 11.592c1.475 0 2.665 1.198 2.665 2.7 0 1.49-1.174 2.683-2.636 2.7l-.03-.002-.028.001c-1.462-.016-2.636-1.208-2.636-2.7 0-1.501 1.19-2.699 2.665-2.699Zm20.29 0c1.475 0 2.665 1.198 2.665 2.7 0 1.49-1.174 2.683-2.636 2.7l-.029-.002-.03.001c-1.46-.016-2.635-1.208-2.635-2.7 0-1.501 1.19-2.699 2.665-2.699Zm-10.19 4.873.045.002.044-.002c3.687.024 6.638 3 6.638 6.726v1.848H10.69v-1.848c0-3.726 2.95-6.702 6.637-6.726Zm-10.144 1.68.044.001.044-.002c1.247.01 2.385.44 3.291 1.16A7.875 7.875 0 0 0 9.54 23.19v1.844H1.825v-1.428c0-3.028 2.38-5.44 5.359-5.463Zm20.29 0 .044.001.044-.002c2.978.024 5.359 2.435 5.359 5.463v1.428h-7.719v-1.844a7.88 7.88 0 0 0-1.022-3.885 5.334 5.334 0 0 1 3.294-1.162Z"/></svg>