<svg xmlns="http://www.w3.org/2000/svg" width="131" height="136" fill="none"><path fill="#E0E0E0" d="M112.426 131.316c10.087 0 18.265-4.72 18.265-10.542 0-5.823-8.178-10.543-18.265-10.543s-18.265 4.72-18.265 10.543c0 5.822 8.178 10.542 18.265 10.542ZM49.66 135.966a1.307 1.307 0 0 1-1.269-1.048l-.295-1.554a16.497 16.497 0 0 1-1.971-.485h-.051l-2.735 1.269a1.617 1.617 0 0 1-1.412-.064l-2.714-1.574a1.081 1.081 0 0 1-.092-1.846l1.65-1.187a6.01 6.01 0 0 1-.411-.624l-3.475-.217a1.246 1.246 0 0 1-1.167-1.238v-2.036a1.242 1.242 0 0 1 1.164-1.241l3.474-.221c.124-.215.261-.422.41-.62l-1.655-1.177a1.082 1.082 0 0 1-.31-1.472c.1-.157.238-.286.402-.374l2.714-1.574a1.55 1.55 0 0 1 .774-.196c.22-.004.437.042.638.132l2.738 1.269h.034a16.89 16.89 0 0 1 1.995-.489l.295-1.553a1.308 1.308 0 0 1 1.27-1.049h4.006a1.313 1.313 0 0 1 1.27 1.049l.295 1.553c.664.122 1.322.283 1.968.482h.05l2.739-1.269c.199-.09.416-.135.634-.132.272-.004.54.064.777.197l2.715 1.574a1.079 1.079 0 0 1 .454 1.432 1.086 1.086 0 0 1-.36.413l-1.652 1.187c.15.199.288.406.414.621l3.475.22a1.25 1.25 0 0 1 1.163 1.242v2.035a1.25 1.25 0 0 1-1.163 1.242l-3.475.217a6.04 6.04 0 0 1-.414.624l1.653 1.187a1.086 1.086 0 0 1 .47.949 1.08 1.08 0 0 1-.565.896L61.4 134.09a1.587 1.587 0 0 1-.777.197 1.557 1.557 0 0 1-.634-.132l-2.738-1.269h-.034a17.03 17.03 0 0 1-1.992.492l-.295 1.55a1.313 1.313 0 0 1-1.27 1.052l-4-.014Zm2.006-11.424a8.452 8.452 0 0 0-4.164.983c-.933.54-1.469 1.228-1.469 1.896 0 .669.536 1.357 1.47 1.897a9.32 9.32 0 0 0 8.33 0c.932-.54 1.465-1.228 1.465-1.897 0-.668-.533-1.356-1.466-1.896a8.488 8.488 0 0 0-4.166-.983ZM64.657 77.909l-1.137-.655a3.084 3.084 0 0 0-2.79 0L.725 111.904c-.767.441-.767 1.167 0 1.608l1.134.655a3.093 3.093 0 0 0 2.792 0l18.228-10.516 7.386 4.261c2.09 1.207 5.514 1.207 7.604 0l12.575-7.259c1.785-1.018 1.785-2.714 0-3.732l-7.936-4.616L64.66 79.52c.763-.444.763-1.167-.003-1.611Z"/><path fill="#103E13" d="M66.98 19.15 12.693 50.485v30.708a.886.886 0 0 0 .142.502.38.38 0 0 0 .309.184.442.442 0 0 0 .22-.065l54.91-31.72v-30.19c0-.834-.58-1.166-1.292-.752Z" opacity=".1"/><path fill="#37474F" d="m39.005 106.107 10.403-6.011c1.072-.62 1.609-1.431 1.609-2.242v-1.448l-9.793-5.553a2.298 2.298 0 0 1-1.035-1.794V76.236L22.026 86.735v12.822a2.283 2.283 0 0 0 1.018 1.791l8.177 4.749c2.162 1.248 5.64 1.248 7.784.01Z"/><path fill="#263238" d="M26.386 101.826v1.442l-3.328-1.92a2.292 2.292 0 0 1-1.035-1.794v-12.82l3.46-1.997c.075.878.15 1.788.225 2.673l-2.43 1.404v10.017a2.276 2.276 0 0 0 1.018 1.794l2.09 1.201Z"/><path fill="#455A64" d="M23.278 98.835a2.296 2.296 0 0 0 1.018 1.794l6.922 4.033c2.148 1.238 5.626 1.238 7.77 0l10.407-6.01c2.147-1.239 2.147-3.247 0-4.485l-6.93-4.037a2.283 2.283 0 0 1-1.034-1.794V78.323L23.278 88.814v10.02Z"/><path fill="#103E13" d="m44.593 91.348-2.107-1.218a2.284 2.284 0 0 1-1.035-1.794V78.323L23.278 88.814v10.02a2.296 2.296 0 0 0 1.018 1.795l2.073 1.194 18.224-10.475Z" opacity=".15"/><path fill="#37474F" d="M1.63 106.741a2.781 2.781 0 0 0 2.51-.047c8.935-5.156 50.853-29.352 59.787-34.504a2.87 2.87 0 0 0 1.293-2.243v-50.05a2.428 2.428 0 0 0-3.733-2.147L1.712 52.254a2.87 2.87 0 0 0-1.28 2.242v50.051a2.778 2.778 0 0 0 1.198 2.194Z"/><path fill="#455A64" d="m4.141 106.694 59.786-34.508a2.86 2.86 0 0 0 1.293-2.242V19.897c0-.828-.58-1.16-1.293-.746L4.141 53.654a2.86 2.86 0 0 0-1.293 2.242v50.051c-.003.824.577 1.156 1.293.746Z"/><path fill="#4CAF4F" d="M4.558 99.91V56.49a1.76 1.76 0 0 1 .794-1.376l57.36-33.107c.438-.255.794-.048.794.458v43.419a1.758 1.758 0 0 1-.797 1.38L5.352 100.371c-.437.251-.794.048-.794-.461Z"/><path fill="#fff" d="M4.558 99.91V56.49a1.76 1.76 0 0 1 .794-1.376l57.36-33.107c.438-.255.794-.048.794.458v43.419a1.758 1.758 0 0 1-.797 1.38L5.352 100.371c-.437.251-.794.048-.794-.461Z" opacity=".75"/><path fill="#263238" d="m.799 53.22 2.43 1.402a2.73 2.73 0 0 0-.384 1.279v50.047c0 .753.512 1.173 1.296.746a2.743 2.743 0 0 1-2.51.047 2.497 2.497 0 0 1-1.215-2.035V54.503c.017-.453.149-.894.383-1.282Z"/><path fill="#4CAF4F" d="m31.39 87.515 5.284-3.053c.264-.149.475-.044.475.241a1.018 1.018 0 0 1-.475.787l-5.283 3.053c-.261.153-.475.044-.475-.238a1.017 1.017 0 0 1 .475-.79Z"/><path fill="#F5F7FA" d="M11.945 80.358a.438.438 0 0 0 .22-.068l58.117-33.582a1.838 1.838 0 0 0 .825-1.421v-43.9c0-.31-.129-.492-.34-.492a.679.679 0 0 0-.339.101l-58.12 33.569a1.845 1.845 0 0 0-.824 1.424v43.67a.899.899 0 0 0 .142.502.395.395 0 0 0 .32.197Z"/><path fill="#F5F7FA" d="M10.571 79.788c.098.05.797.448 1.103.624a.914.914 0 0 1-.34-.756v-40.74l-1.15-.678v40.763a.878.878 0 0 0 .387.787Z"/><path fill="#E0E0E0" d="M70.76 1.047c.17 0 .194.21.194.34v43.896a1.697 1.697 0 0 1-.746 1.293L12.09 80.158a.3.3 0 0 1-.146.044c-.16 0-.298-.248-.298-.533V35.98a1.672 1.672 0 0 1 .746-1.292L70.51 1.128a.51.51 0 0 1 .25-.081Zm0-.302a.787.787 0 0 0-.4.122L12.24 34.422a1.987 1.987 0 0 0-.895 1.557v43.68c0 .451.25.838.6.838a.587.587 0 0 0 .299-.088l58.113-33.582a1.978 1.978 0 0 0 .903-1.554V1.386c0-.407-.204-.64-.5-.64Z"/><path fill="#4CAF4F" d="M71.257 1.366v3.009l-59.912 34.6-1.15-.68v-2.957c.013-.318.106-.627.271-.9.151-.267.367-.492.628-.654L69.211.216a.638.638 0 0 1 .654-.054c.167.102.954.55 1.113.63a.244.244 0 0 1 .068.048.34.34 0 0 1 .072.071.424.424 0 0 1 .057.092c.021.033.036.07.044.109.013.04.022.08.027.122.008.043.011.088.01.132Z"/><path fill="#103E13" d="M71.257 1.366v3.009l-59.912 34.6-1.15-.68v-2.957c.013-.318.106-.627.271-.9.151-.267.367-.492.628-.654L69.211.216a.638.638 0 0 1 .654-.054c.167.102.954.55 1.113.63a.244.244 0 0 1 .068.048.34.34 0 0 1 .072.071.424.424 0 0 1 .057.092c.021.033.036.07.044.109.013.04.022.08.027.122.008.043.011.088.01.132Z" opacity=".15"/><path fill="#4CAF4F" d="M71.256 1.366v3.009l-59.911 34.6v-2.972a1.605 1.605 0 0 1 .146-.651 2.03 2.03 0 0 1 .122-.245c.15-.27.367-.499.63-.661L70.358.867a.597.597 0 0 1 .679-.027c.027.02.05.044.07.072a.42.42 0 0 1 .059.091c.02.033.035.07.044.109.013.04.022.08.027.122.01.043.017.087.02.132Z"/><path fill="#F5F7FA" d="M65.24 4.972a1.482 1.482 0 0 0-.56 1.187c0 .478.251.72.56.54a1.483 1.483 0 0 0 .56-1.188c-.017-.458-.268-.719-.56-.54ZM67.242 3.805a1.477 1.477 0 0 0-.56 1.187c0 .475.251.72.56.54a1.48 1.48 0 0 0 .563-1.188c0-.478-.25-.719-.563-.54ZM69.264 2.635a1.48 1.48 0 0 0-.563 1.187c0 .478.251.719.563.543a1.487 1.487 0 0 0 .56-1.188c0-.478-.25-.719-.56-.542Z"/><path fill="#4CAF4F" d="M70.36.867 12.244 34.422a1.852 1.852 0 0 0-.635.678l-1.14-.678c.148-.27.363-.497.625-.658L69.21.216a.638.638 0 0 1 .655-.054c.16.098.906.522 1.096.624a.655.655 0 0 0-.6.081Z"/><path fill="#fff" d="M70.36.867 12.244 34.422a1.852 1.852 0 0 0-.635.678l-1.14-.678c.148-.27.363-.497.625-.658L69.21.216a.638.638 0 0 1 .655-.054c.16.098.906.522 1.096.624a.655.655 0 0 0-.6.081Z" opacity=".5"/><path fill="#455A64" d="M25.88 40.412a.081.081 0 0 1-.08-.081v-3.423a.082.082 0 0 1 .08-.081.077.077 0 0 1 .057.024.078.078 0 0 1 .021.057v3.423a.077.077 0 0 1-.047.075.08.08 0 0 1-.03.006Z"/><path fill="#455A64" d="m25.592 40.009.275.274.272-.274v.234l-.272.271-.275-.271v-.234ZM28.775 40.786a.074.074 0 0 1-.071-.041.08.08 0 0 1-.008-.06.077.077 0 0 1 .038-.049l2.253-1.302a.082.082 0 0 1 .112.03.081.081 0 0 1-.03.109l-2.257 1.302a.067.067 0 0 1-.037.01Z"/><path fill="#455A64" d="m30.886 39.802.101-.373-.373-.102.2-.115.373.098-.098.373-.203.119ZM28.358 58.767a.075.075 0 0 1-.072-.04.08.08 0 0 1-.008-.061.08.08 0 0 1 .039-.048l2.253-1.303a.085.085 0 0 1 .112.03.088.088 0 0 1-.03.113l-2.257 1.299a.067.067 0 0 1-.037.01Z"/><path fill="#455A64" d="m30.468 57.783.102-.373-.373-.098.2-.119.373.102-.098.373-.204.115ZM36.538 54.045a.074.074 0 0 1-.068-.04.073.073 0 0 1-.01-.062.074.074 0 0 1 .04-.047l2.254-1.302a.075.075 0 0 1 .108.03.078.078 0 0 1-.027.109l-2.256 1.302a.082.082 0 0 1-.04.01Z"/><path fill="#455A64" d="m38.652 53.062.102-.373-.373-.102.2-.116.373.099-.102.373-.2.119ZM37.078 36a.075.075 0 0 1-.068-.041.078.078 0 0 1 .027-.109l2.257-1.303a.077.077 0 0 1 .06-.008.08.08 0 0 1 .048.039.078.078 0 0 1-.027.108l-2.256 1.303a.092.092 0 0 1-.041.01Z"/><path fill="#455A64" d="m39.178 35.016.102-.374-.373-.101.2-.116.373.099-.102.376-.2.116ZM36.918 45.043a.081.081 0 0 1-.071-.038.082.082 0 0 1 .006-.09.079.079 0 0 1 .024-.021l2.253-1.303a.082.082 0 0 1 .112.03.082.082 0 0 1-.03.112l-2.256 1.3a.068.068 0 0 1-.038.01Z"/><path fill="#455A64" d="m37.057 44.568-.098.373.373.098-.2.116-.373-.099.098-.373.2-.115ZM36.773 61.86a.075.075 0 0 1-.068-.04.075.075 0 0 1 .034-.119l2.103-1.218a.081.081 0 0 1 .109.031.078.078 0 0 1-.027.109l-2.107 1.217a.091.091 0 0 1-.044.02Z"/><path fill="#455A64" d="m36.915 61.382-.102.373.373.102-.2.116-.373-.102.102-.373.2-.116ZM28.812 49.72a.075.075 0 0 1-.068-.04.078.078 0 0 1 .027-.109l2.257-1.302a.081.081 0 0 1 .078.142l-2.253 1.3-.04.01Z"/><path fill="#455A64" d="m28.955 49.245-.102.373.373.099-.2.115-.373-.098.102-.373.2-.116ZM41.638 39.056a.082.082 0 0 1-.081-.082v-2.608a.081.081 0 0 1 .162 0v2.608a.082.082 0 0 1-.08.082Z"/><path fill="#455A64" d="m41.367 38.655.271.272.275-.272v.23l-.275.272-.271-.271v-.23ZM25.88 55.724a.07.07 0 0 1-.04 0 .074.074 0 0 1-.04-.067v-1.92a.081.081 0 0 1 .111-.076.078.078 0 0 1 .048.076v1.777l15.608-9.01v-1.193a.081.081 0 0 1 .163 0v1.241a.082.082 0 0 1-.041.068l-15.775 9.104a.067.067 0 0 1-.034 0Z"/><path fill="#455A64" d="m26.139 54.045-.272-.271-.275.271v-.23l.275-.275.272.275v.23ZM25.88 64.629a.073.073 0 0 1-.04 0 .075.075 0 0 1-.04-.072V63.32a.081.081 0 0 1 .137-.057.078.078 0 0 1 .022.057v1.096l15.608-9.01v-1.879a.081.081 0 0 1 .081-.081.081.081 0 0 1 .082.081v1.92a.081.081 0 0 1-.041.068l-15.785 9.104a.07.07 0 0 1-.023.01Z"/><path fill="#455A64" d="m41.913 53.845-.275-.271-.271.271v-.23l.271-.272.275.272v.23ZM22.257 62.288a.09.09 0 0 1-.041 0 .082.082 0 0 1-.04-.071v-8.792a.081.081 0 0 1 .04-.068l.855-.495a.081.081 0 0 1 .095.02.082.082 0 0 1-.006.091.082.082 0 0 1-.024.02l-.811.469v8.596l.895-.516a.083.083 0 0 1 .068-.019.08.08 0 0 1 .057.04.082.082 0 0 1-.047.118l-1.017.587a.09.09 0 0 1-.024.02Z"/><path fill="#455A64" d="m23.132 62.02.099-.373-.374-.102.204-.115.37.102-.099.37-.2.118ZM44.695 57.292a.074.074 0 0 1-.068-.041.08.08 0 0 1 .006-.091.079.079 0 0 1 .025-.021l.848-.489v-7.767l-.733.42a.078.078 0 0 1-.108-.027.082.082 0 0 1-.01-.062.082.082 0 0 1 .037-.05l.855-.492a.084.084 0 0 1 .081 0 .081.081 0 0 1 .038.072v7.95a.078.078 0 0 1-.038.068l-.892.53a.082.082 0 0 1-.04 0Z"/><path fill="#455A64" d="m44.838 56.81-.099.373.373.098-.203.119-.373-.102.101-.373.2-.115Z"/><path fill="#4CAF4F" d="M28.3 33.38c0 .913-1.09 2.28-2.433 3.054-1.344.773-2.436.678-2.436-.248s1.09-2.28 2.436-3.053c1.347-.773 2.433-.665 2.433.248ZM34.725 64.507c1.255-1.05 1.882-2.366 1.402-2.939s-1.886-.187-3.14.863c-1.255 1.05-1.882 2.365-1.403 2.938.48.574 1.887.187 3.141-.862ZM28.083 42.566l-4.435 2.558c-.132.075-.238 0-.238-.183v-2.283a.573.573 0 0 1 .238-.458l4.435-2.547c.132-.075.237 0 .237.183v2.28a.577.577 0 0 1-.237.45Z"/><path fill="#fff" d="m28.083 42.566-4.435 2.558c-.132.075-.238 0-.238-.183v-2.283a.573.573 0 0 1 .238-.458l4.435-2.547c.132-.075.237 0 .237.183v2.28a.577.577 0 0 1-.237.45Z" opacity=".6"/><path fill="#4CAF4F" d="m36.06 37.957-4.411 2.554c-.133.078-.241 0-.241-.18v-2.283a.572.572 0 0 1 .24-.458l4.412-2.557c.132-.078.24 0 .24.18v2.282a.572.572 0 0 1-.24.462Z"/><path fill="#fff" d="m36.06 37.957-4.411 2.554c-.133.078-.241 0-.241-.18v-2.283a.572.572 0 0 1 .24-.458l4.412-2.557c.132-.078.24 0 .24.18v2.282a.572.572 0 0 1-.24.462Z" opacity=".6"/><path fill="#4CAF4F" d="m36.06 46.912-4.411 2.557c-.133.078-.241 0-.241-.18v-2.282a.576.576 0 0 1 .24-.458l4.412-2.558c.132-.078.24 0 .24.18v2.283a.573.573 0 0 1-.24.458Z"/><path fill="#fff" d="m36.06 46.912-4.411 2.557c-.133.078-.241 0-.241-.18v-2.282a.576.576 0 0 1 .24-.458l4.412-2.558c.132-.078.24 0 .24.18v2.283a.573.573 0 0 1-.24.458Z" opacity=".6"/><path fill="#4CAF4F" d="m36.06 55.697-4.411 2.558c-.133.075-.241 0-.241-.183v-2.283a.576.576 0 0 1 .24-.458l4.412-2.558c.132-.074.24 0 .24.183v2.28a.58.58 0 0 1-.24.461Z"/><path fill="#fff" d="m36.06 55.697-4.411 2.558c-.133.075-.241 0-.241-.183v-2.283a.576.576 0 0 1 .24-.458l4.412-2.558c.132-.074.24 0 .24.183v2.28a.58.58 0 0 1-.24.461Z" opacity=".6"/><path fill="#4CAF4F" d="m43.864 51.203-4.431 2.557c-.133.078-.241 0-.241-.18v-2.282a.577.577 0 0 1 .24-.458l4.432-2.558c.132-.078.24 0 .24.18v2.283a.573.573 0 0 1-.24.458Z"/><path fill="#fff" d="m43.864 51.203-4.431 2.557c-.133.078-.241 0-.241-.18v-2.282a.577.577 0 0 1 .24-.458l4.432-2.558c.132-.078.24 0 .24.18v2.283a.573.573 0 0 1-.24.458Z" opacity=".6"/><path fill="#4CAF4F" d="M43.864 59.154 39.422 61.7c-.132.078-.24 0-.24-.18V59.24a.573.573 0 0 1 .24-.458l4.442-2.548c.132-.078.24 0 .24.18v2.283a.575.575 0 0 1-.24.458Z"/><path fill="#fff" d="M43.864 59.154 39.422 61.7c-.132.078-.24 0-.24-.18V59.24a.573.573 0 0 1 .24-.458l4.442-2.548c.132-.078.24 0 .24.18v2.283a.575.575 0 0 1-.24.458Z" opacity=".6"/><path fill="#4CAF4F" d="m28.083 51.525-4.435 2.558c-.132.078-.238 0-.238-.184v-2.28a.58.58 0 0 1 .238-.46l4.435-2.558c.132-.075.237 0 .237.183v2.283a.575.575 0 0 1-.237.458Z"/><path fill="#fff" d="m28.083 51.525-4.435 2.558c-.132.078-.238 0-.238-.184v-2.28a.58.58 0 0 1 .238-.46l4.435-2.558c.132-.075.237 0 .237.183v2.283a.575.575 0 0 1-.237.458Z" opacity=".6"/><path fill="#455A64" d="m41.414 35.674-1.873-2.616a.719.719 0 0 1 .224-.837l3.732-2.161c.238-.14.37.203.224.576l-1.873 4.78c-.098.292-.319.417-.434.258Z"/><path fill="#C8E6C9" d="m43.545 41.488-1.737 2.995c-.102.173-.238.254-.34.197l-1.737-.99c-.153-.089-.153-.438 0-.703l1.737-2.992c.102-.173.238-.254.34-.197l1.737.99c.153.086.153.439 0 .7ZM27.77 59.374l-1.733 3.006c-.102.173-.241.254-.34.196l-1.737-.99c-.152-.085-.152-.438 0-.702l1.738-2.992c.098-.173.237-.255.339-.197l1.734.99c.145.075.145.428 0 .69Z"/><path fill="#455A64" d="M19.295 48.811a.088.088 0 0 1-.072-.037.085.085 0 0 1 .031-.112l5.232-3.019a.081.081 0 0 1 .112.027.085.085 0 0 1-.03.112l-5.233 3.03a.09.09 0 0 1-.04 0Z"/><path fill="#E0E0E0" d="M19.295 49.585a.084.084 0 0 1-.072-.04.081.081 0 0 1 .031-.11l5.232-3.022a.085.085 0 0 1 .112.03.081.081 0 0 1-.03.11l-5.233 3.022a.092.092 0 0 1-.04.01ZM19.295 50.344a.091.091 0 0 1-.072-.04.085.085 0 0 1 .031-.112l5.232-3.02a.081.081 0 0 1 .112.031.082.082 0 0 1-.03.109l-5.233 3.022-.04.01ZM19.295 51.101a.088.088 0 0 1-.072-.037.085.085 0 0 1 .031-.112l5.232-3.02a.08.08 0 0 1 .062-.009.08.08 0 0 1 .05.037.085.085 0 0 1-.03.112l-5.233 3.019a.092.092 0 0 1-.04.01Z"/><path fill="#455A64" d="M16.994 39.948a.075.075 0 0 1-.068-.041.081.081 0 0 1 .027-.112l5.236-3.019a.082.082 0 0 1 .096.038.081.081 0 0 1-.018.101l-5.232 3.023a.092.092 0 0 1-.04.01Z"/><path fill="#E0E0E0" d="M16.994 40.704a.078.078 0 0 1-.079-.067.081.081 0 0 1 .038-.082l5.236-3.019a.08.08 0 0 1 .06-.01.08.08 0 0 1 .042.128.083.083 0 0 1-.024.021l-5.232 3.02a.091.091 0 0 1-.04.01ZM16.994 41.464a.075.075 0 0 1-.068-.04.08.08 0 0 1-.01-.06.077.077 0 0 1 .037-.05l5.236-3.018a.081.081 0 0 1 .119.06.078.078 0 0 1-.041.079l-5.232 3.022a.093.093 0 0 1-.04.007ZM16.994 42.224a.081.081 0 0 1-.04-.153l5.235-3.019a.078.078 0 0 1 .108.03.078.078 0 0 1-.03.11l-5.232 3.022-.04.01Z"/><path fill="#455A64" d="M31.238 41.84a.082.082 0 0 1-.04-.152l5.235-3.02a.077.077 0 0 1 .089.007.077.077 0 0 1 .02.024.077.077 0 0 1 .008.061.078.078 0 0 1-.039.048l-5.232 3.019a.064.064 0 0 1-.04.013Z"/><path fill="#E0E0E0" d="M31.238 42.597a.075.075 0 0 1-.068-.04.078.078 0 0 1 .027-.11l5.236-3.022a.081.081 0 0 1 .078.143l-5.232 3.019-.04.01ZM31.238 43.357a.075.075 0 0 1-.068-.04.078.078 0 0 1 .027-.11l5.236-3.022a.08.08 0 0 1 .117.091.08.08 0 0 1-.039.048l-5.232 3.023a.092.092 0 0 1-.04.01ZM31.238 44.117a.081.081 0 0 1-.08-.06.081.081 0 0 1 .04-.093l5.235-3.019a.077.077 0 0 1 .06-.01.078.078 0 0 1 .059.067.08.08 0 0 1-.017.061.083.083 0 0 1-.024.021l-5.232 3.02a.065.065 0 0 1-.04.013Z"/><path fill="#455A64" d="M38.808 28.866a.075.075 0 0 1-.068-.04.075.075 0 0 1 .03-.11l5.233-3.022a.081.081 0 0 1 .109.03.078.078 0 0 1-.028.11l-5.235 3.022a.081.081 0 0 1-.04.01Z"/><path fill="#E0E0E0" d="M38.808 29.626a.082.082 0 0 1-.068-.041.081.081 0 0 1 .034-.109l5.232-3.019a.075.075 0 0 1 .109.03.078.078 0 0 1-.027.11l-5.236 3.018a.057.057 0 0 1-.044.01ZM38.808 30.382a.075.075 0 0 1-.068-.04.08.08 0 0 1-.008-.061.077.077 0 0 1 .039-.048l5.232-3.02a.077.077 0 0 1 .06-.009.077.077 0 0 1 .049.037.081.081 0 0 1-.028.112l-5.235 3.019a.081.081 0 0 1-.04.01ZM38.808 31.142a.074.074 0 0 1-.068-.04.075.075 0 0 1 .03-.11l5.233-3.022a.081.081 0 0 1 .109.03.078.078 0 0 1-.028.11l-5.235 3.022a.081.081 0 0 1-.04.01Z"/><path fill="#455A64" d="M43.657 37.36a.075.075 0 0 1-.068-.041.076.076 0 0 1-.01-.061.075.075 0 0 1 .04-.048l5.233-3.022a.082.082 0 0 1 .081.142l-5.236 3.02a.081.081 0 0 1-.04.01Z"/><path fill="#E0E0E0" d="M43.657 38.12a.075.075 0 0 1-.068-.041.08.08 0 0 1-.008-.063.08.08 0 0 1 .039-.05l5.232-3.018a.075.075 0 0 1 .09.005.073.073 0 0 1 .018.025.077.077 0 0 1-.004.088.076.076 0 0 1-.023.02l-5.235 3.023a.081.081 0 0 1-.041.01ZM43.657 38.876a.078.078 0 0 1-.076-.1.08.08 0 0 1 .039-.05l5.232-3.018a.078.078 0 0 1 .108.027.081.081 0 0 1-.027.112l-5.235 3.019a.081.081 0 0 1-.041.01ZM43.657 39.653a.075.075 0 0 1-.068-.041.076.076 0 0 1-.01-.061.075.075 0 0 1 .04-.048l5.233-3.022a.082.082 0 0 1 .108.03.077.077 0 0 1-.004.088.076.076 0 0 1-.023.021l-5.236 3.023a.081.081 0 0 1-.04.01Z"/><path fill="#455A64" d="M43.657 44.904a.074.074 0 0 1-.068-.041.075.075 0 0 1-.01-.061.074.074 0 0 1 .04-.048l5.233-3.022a.082.082 0 0 1 .108.03.077.077 0 0 1-.004.088.076.076 0 0 1-.023.021l-5.236 3.023a.08.08 0 0 1-.04.01Z"/><path fill="#E0E0E0" d="M43.657 45.663a.081.081 0 0 1-.076-.103.08.08 0 0 1 .039-.05l5.232-3.018a.075.075 0 0 1 .108.03.078.078 0 0 1-.027.109l-5.235 3.022a.081.081 0 0 1-.041.01ZM43.657 46.437a.075.075 0 0 1-.068-.041.076.076 0 0 1-.008-.06.079.079 0 0 1 .038-.048l5.233-3.02a.078.078 0 0 1 .108.028.081.081 0 0 1-.027.112l-5.236 3.019a.081.081 0 0 1-.04.01ZM43.657 47.18a.075.075 0 0 1-.068-.04.076.076 0 0 1-.01-.062.075.075 0 0 1 .04-.047l5.233-3.023a.082.082 0 0 1 .108.03.077.077 0 0 1-.004.089.076.076 0 0 1-.023.02l-5.236 3.023a.081.081 0 0 1-.04.01Z"/><path fill="#455A64" d="M19.037 65.952a.084.084 0 0 1-.071-.038.081.081 0 0 1 .03-.112l5.232-3.019a.08.08 0 0 1 .062-.01.081.081 0 0 1 .05.037.085.085 0 0 1-.03.112l-5.215 3.02a.092.092 0 0 1-.058.01Z"/><path fill="#E0E0E0" d="M19.037 66.712a.082.082 0 0 1-.082-.07.08.08 0 0 1 .017-.06.079.079 0 0 1 .024-.02l5.232-3.022a.085.085 0 0 1 .112.03.081.081 0 0 1-.03.109l-5.216 3.022-.057.01ZM19.037 67.468a.089.089 0 0 1-.071-.04.081.081 0 0 1 .03-.113l5.232-3.019a.084.084 0 0 1 .063-.008.083.083 0 0 1 .05.039.081.081 0 0 1-.031.108l-5.215 3.033a.092.092 0 0 1-.058 0ZM19.037 68.228a.081.081 0 0 1-.04-.15l5.231-3.019a.081.081 0 0 1 .112.028.085.085 0 0 1-.03.112l-5.216 3.019-.057.01Z"/><path fill="#455A64" d="M79.933 9.463v41.346a2.187 2.187 0 0 1-.995 1.72L52.506 67.793a.638.638 0 0 1-.339.095.538.538 0 0 1-.126 0 .36.36 0 0 1-.084-.03l-.055-.027-.057-.041a.804.804 0 0 1-.238-.309 1.252 1.252 0 0 1-.105-.502V25.837a2.204 2.204 0 0 1 .994-1.72L78.928 8.883a.723.723 0 0 1 .679-.085c.03.014.058.031.085.05a.703.703 0 0 1 .24.615Z"/><path fill="#455A64" d="M79.38 9.09a.18.18 0 0 1 .091.02h.017s.105.088.105.34v41.36a1.844 1.844 0 0 1-.824 1.424L52.34 67.498a.339.339 0 0 1-.16.051H52.107l-.027-.02h-.02l-.018-.017a.52.52 0 0 1-.101-.15.912.912 0 0 1-.075-.362V25.837a1.886 1.886 0 0 1 .825-1.425L79.12 9.178a.553.553 0 0 1 .272-.088h-.014Zm.013-.34a.892.892 0 0 0-.441.133L52.52 24.117a2.206 2.206 0 0 0-.994 1.72v41.112c0 .172.035.344.105.502a.805.805 0 0 0 .237.308l.058.041.054.027a.361.361 0 0 0 .085.03.528.528 0 0 0 .126 0 .658.658 0 0 0 .315-.094l26.432-15.265a2.187 2.187 0 0 0 .995-1.72V9.464a.703.703 0 0 0-.242-.6.499.499 0 0 0-.312-.099l.014-.014Z"/><path fill="#455A64" d="M79.933 9.463v41.346a2.187 2.187 0 0 1-.995 1.72L52.506 67.793a.638.638 0 0 1-.339.095.538.538 0 0 1-.126 0 .36.36 0 0 1-.084-.03l-.055-.027-.057-.041a.804.804 0 0 1-.238-.309 1.252 1.252 0 0 1-.105-.502V25.837a2.204 2.204 0 0 1 .994-1.72L78.928 8.883a.723.723 0 0 1 .679-.085c.03.014.058.031.085.05a.703.703 0 0 1 .24.615Z" opacity=".8"/><path fill="#4CAF4F" d="M79.607 8.784a.723.723 0 0 0-.679.085L52.496 24.103a2.206 2.206 0 0 0-.994 1.72v3.246l-1.266-.743v-3.222a2.184 2.184 0 0 1 .991-1.716L77.662 8.153a.68.68 0 0 1 .72-.058c.19.119 1.014.594 1.225.688Z"/><path fill="#4CAF4F" d="M79.933 9.463c0-.628-.448-.879-.995-.563L52.507 24.134a2.194 2.194 0 0 0-.99 1.716v3.246L79.933 12.71V9.463Z"/><path fill="#fff" d="M78.938 8.883 52.506 24.117a2.07 2.07 0 0 0-.699.74l-1.258-.733c.16-.295.394-.544.678-.723L77.66 8.167a.702.702 0 0 1 .723-.06c.176.111 1 .58 1.211.678a.716.716 0 0 0-.655.098Z" opacity=".4"/><path fill="#103E13" d="M50.243 28.343v-3.226c.014-.352.12-.694.305-.994l1.263.73a2.014 2.014 0 0 0-.295.987v3.243l-1.273-.74Z" opacity=".15"/><path fill="#455A64" d="M73.95 13.147a1.476 1.476 0 0 0-.56 1.187c0 .475.252.72.56.54a1.486 1.486 0 0 0 .56-1.188c0-.492-.25-.719-.56-.54ZM75.97 11.976a1.487 1.487 0 0 0-.56 1.188c0 .478.25.719.56.542a1.48 1.48 0 0 0 .563-1.187c0-.478-.251-.719-.564-.543ZM77.988 10.82a1.487 1.487 0 0 0-.56 1.187c0 .478.252.72.56.54a1.469 1.469 0 0 0 .564-1.188c0-.485-.252-.73-.564-.54Z"/><path fill="#37474F" d="m51.879 67.783-.126-.071c-.099-.063-.2-.12-.305-.173l-.167-.095-.258-.15-.22-.125-.122-.068a.5.5 0 0 1-.17-.135.737.737 0 0 1-.136-.204 1.231 1.231 0 0 1-.111-.522v-37.9l1.265.743v37.866c.006.172.042.342.105.502a.803.803 0 0 0 .184.26c.013.021.032.037.054.048l.007.024Z"/><path fill="#4CAF4F" d="M54 30.46a.3.3 0 0 1 .037-.136l.529-1.099a.085.085 0 0 1 .034-.037.03.03 0 0 1 .024 0 .03.03 0 0 1 .01.007.072.072 0 0 1 .017.05v.37a.53.53 0 0 1 0 .116c0 .027-.02.06-.038.098l-.281.58.281.258a.21.21 0 0 1 .038.058.354.354 0 0 1 0 .101v.346a.2.2 0 0 1-.017.075.132.132 0 0 1-.044.05h-.024l-.523-.464a.105.105 0 0 1-.037-.091L54 30.46ZM55.94 27.71a.517.517 0 0 1 .038-.11.2.2 0 0 1 .078-.08l.2-.116h.04a.057.057 0 0 1 .017.05.163.163 0 0 1 0 .041l-.912 3.878a.49.49 0 0 1-.038.105.186.186 0 0 1-.081.088l-.19.112a.034.034 0 0 1-.04 0 .072.072 0 0 1-.021-.054.251.251 0 0 1 0-.041l.91-3.874ZM57.345 28.798a.315.315 0 0 1-.037.139l-.53 1.095-.023.034a.04.04 0 0 1-.045 0 .078.078 0 0 1 0-.054v-.37a.487.487 0 0 1 0-.111.577.577 0 0 1 .041-.102l.278-.58-.278-.255a.202.202 0 0 1-.04-.057.36.36 0 0 1 0-.102v-.37a.217.217 0 0 1 0-.075.132.132 0 0 1 .044-.05.02.02 0 0 1 .024 0l.529.485a.112.112 0 0 1 .037.095v.278ZM58.818 28.547a.044.044 0 0 1 .054 0c.015.02.022.043.02.068v.403a.224.224 0 0 1-.02.092.177.177 0 0 1-.054.064l-.248.143a.037.037 0 0 1-.051 0 .074.074 0 0 1-.024-.064v-.408c0-.032.008-.063.024-.091a.118.118 0 0 1 .05-.061l.249-.146ZM59.656 28.065a.04.04 0 0 1 .05 0c.016.02.023.043.02.068v.404a.225.225 0 0 1-.02.091.118.118 0 0 1-.05.061l-.252.146a.04.04 0 0 1-.05 0 .095.095 0 0 1-.02-.068v-.403c0-.032.006-.063.02-.092a.143.143 0 0 1 .05-.064l.252-.143ZM60.49 27.584a.04.04 0 0 1 .054 0 .085.085 0 0 1 .017.03c.004.01.005.023.004.034v.407a.224.224 0 0 1-.02.092.14.14 0 0 1-.055.06l-.248.147a.04.04 0 0 1-.05 0 .081.081 0 0 1-.024-.068v-.404c0-.032.008-.064.024-.091a.142.142 0 0 1 .05-.065l.248-.142ZM54.223 33.418l17.125-9.878c.143-.081.261-.023.261.133a.564.564 0 0 1-.26.434l-17.116 9.877c-.145.085-.26.028-.26-.132a.561.561 0 0 1 .25-.434Z"/><path fill="#C8E6C9" d="m58.156 37.957 17.114-9.878c.143-.082.262-.024.262.132a.569.569 0 0 1-.261.438l-17.115 9.877c-.146.082-.261.024-.261-.132a.558.558 0 0 1 .26-.437ZM58.156 40.23l10.722-6.188c.146-.085.261-.027.261.133a.559.559 0 0 1-.261.434l-10.722 6.187c-.146.081-.261.024-.261-.132a.552.552 0 0 1 .26-.435ZM58.156 42.498l10.722-6.187c.146-.084.261-.023.261.133a.559.559 0 0 1-.261.434l-10.722 6.187c-.146.085-.261.024-.261-.132a.552.552 0 0 1 .26-.434Z"/><path fill="#4CAF4F" d="m72.366 22.953 4.883-2.829c.145-.081.26-.023.26.133a.56.56 0 0 1-.26.437l-4.883 2.83c-.146.08-.261.023-.261-.133a.559.559 0 0 1 .261-.438ZM58.454 55.972l12.894-7.463c.143-.084.261-.023.261.133a.569.569 0 0 1-.26.434l-12.895 7.462c-.145.082-.26.024-.26-.132a.566.566 0 0 1 .26-.434ZM72.366 47.92l4.87-2.84c.145-.085.26-.024.26.132a.553.553 0 0 1-.26.435l-4.87 2.825c-.146.085-.261.024-.261-.132a.56.56 0 0 1 .261-.42ZM60.643 47.858l16.592-9.566c.146-.081.261-.023.261.133a.56.56 0 0 1-.261.437l-16.592 9.566c-.143.081-.261.024-.261-.136a.57.57 0 0 1 .26-.434ZM56.48 52.61l20.755-12.048c.146-.082.261-.024.261.132a.56.56 0 0 1-.261.438L56.48 53.177c-.143.085-.262.024-.262-.132a.562.562 0 0 1 .261-.434Z"/><path fill="#E8F5E9" d="m57.457 54.276 13.891-8.04c.143-.08.261-.023.261.133a.57.57 0 0 1-.26.438l-13.882 8.039c-.146.081-.261.024-.261-.132a.56.56 0 0 1 .25-.438Z"/><path fill="#4CAF4F" d="m56.48 50.256 2.745-1.584c.142-.085.26-.024.26.132a.564.564 0 0 1-.26.435l-2.745 1.584c-.143.084-.262.023-.262-.133a.553.553 0 0 1 .261-.434ZM54.223 35.694l12.005-6.934c.146-.084.265-.023.265.133a.555.555 0 0 1-.265.434L54.223 36.26c-.146.085-.261.024-.261-.132a.552.552 0 0 1 .261-.434Z"/><path fill="#fff" d="m54.223 35.694 12.005-6.934c.146-.084.265-.023.265.133a.555.555 0 0 1-.265.434L54.223 36.26c-.146.085-.261.024-.261-.132a.552.552 0 0 1 .261-.434Z" opacity=".6"/><path fill="#4CAF4F" d="m54.223 37.956 2.426-1.4c.143-.085.261-.027.261.132a.57.57 0 0 1-.26.434l-2.427 1.401c-.146.085-.261.024-.261-.132a.552.552 0 0 1 .261-.434Z"/><path fill="#fff" d="m54.223 37.956 2.426-1.4c.143-.085.261-.027.261.132a.57.57 0 0 1-.26.434l-2.427 1.401c-.146.085-.261.024-.261-.132a.552.552 0 0 1 .261-.434Z" opacity=".6"/><path fill="#4CAF4F" d="m54.223 40.23 2.426-1.402c.143-.084.261-.023.261.133a.57.57 0 0 1-.26.434l-2.427 1.4c-.146.086-.261.024-.261-.132a.552.552 0 0 1 .261-.434Z"/><path fill="#fff" d="m54.223 40.23 2.426-1.402c.143-.084.261-.023.261.133a.57.57 0 0 1-.26.434l-2.427 1.4c-.146.086-.261.024-.261-.132a.552.552 0 0 1 .261-.434Z" opacity=".6"/><path fill="#4CAF4F" d="m54.223 42.499 2.426-1.401c.143-.085.261-.024.261.132a.57.57 0 0 1-.26.434l-2.427 1.401c-.146.085-.261.024-.261-.132a.56.56 0 0 1 .261-.434Z"/><path fill="#fff" d="m54.223 42.499 2.426-1.401c.143-.085.261-.024.261.132a.57.57 0 0 1-.26.434l-2.427 1.401c-.146.085-.261.024-.261-.132a.56.56 0 0 1 .261-.434Z" opacity=".6"/><path fill="#4CAF4F" d="m54.223 44.768 2.426-1.401c.143-.085.261-.024.261.132a.57.57 0 0 1-.26.434l-2.427 1.401c-.146.085-.261.024-.261-.132a.56.56 0 0 1 .261-.434Z"/><path fill="#fff" d="m54.223 44.768 2.426-1.401c.143-.085.261-.024.261.132a.57.57 0 0 1-.26.434l-2.427 1.401c-.146.085-.261.024-.261-.132a.56.56 0 0 1 .261-.434Z" opacity=".6"/><path fill="#C8E6C9" d="m58.156 58.465 10.722-6.187c.146-.085.261-.024.261.132a.559.559 0 0 1-.261.435l-10.722 6.187c-.146.085-.261.024-.261-.132a.552.552 0 0 1 .26-.435ZM58.156 60.735l10.722-6.188c.146-.084.261-.023.261.133a.552.552 0 0 1-.261.434L58.156 61.3c-.146.085-.261.024-.261-.132a.56.56 0 0 1 .26-.434ZM70.439 51.376l6.738-3.877c.146-.082.262-.024.262.132a.558.558 0 0 1-.262.437l-6.738 3.874c-.143.085-.261.024-.261-.132a.563.563 0 0 1 .26-.434ZM70.439 53.645l6.738-3.877c.146-.081.262-.024.262.136a.561.561 0 0 1-.262.434l-6.738 3.874c-.143.084-.261.023-.261-.133a.57.57 0 0 1 .26-.434Z"/><path fill="#4CAF4F" d="m54.223 60.735 2.426-1.401c.143-.085.261-.024.261.132a.564.564 0 0 1-.26.434l-2.427 1.401c-.146.085-.261.027-.261-.132a.56.56 0 0 1 .261-.434Z"/><path fill="#fff" d="m54.223 60.735 2.426-1.401c.143-.085.261-.024.261.132a.564.564 0 0 1-.26.434l-2.427 1.401c-.146.085-.261.027-.261-.132a.56.56 0 0 1 .261-.434Z" opacity=".6"/><path fill="#4CAF4F" d="m54.223 63.004 2.426-1.401c.143-.081.261-.024.261.132a.564.564 0 0 1-.26.434l-2.427 1.405c-.146.081-.261.023-.261-.133a.56.56 0 0 1 .261-.437Z"/><path fill="#fff" d="m54.223 63.004 2.426-1.401c.143-.081.261-.024.261.132a.564.564 0 0 1-.26.434l-2.427 1.405c-.146.081-.261.023-.261-.133a.56.56 0 0 1 .261-.437Z" opacity=".6"/><path fill="#4CAF4F" d="m67.246 28.174 3.108-1.788c.142-.085.261-.024.261.132a.564.564 0 0 1-.261.434l-3.108 1.788c-.146.085-.265.027-.265-.132a.563.563 0 0 1 .265-.434Z"/><path fill="#fff" d="m67.246 28.174 3.108-1.788c.142-.085.261-.024.261.132a.564.564 0 0 1-.261.434l-3.108 1.788c-.146.085-.265.027-.265-.132a.563.563 0 0 1 .265-.434Z" opacity=".6"/><path fill="#E8F5E9" d="m57.97 44.856 15.143-8.728c.142-.085.26-.024.26.133a.563.563 0 0 1-.26.434l-15.144 8.724c-.142.085-.261.024-.261-.132a.563.563 0 0 1 .261-.43ZM54.223 49.344l23.012-13.318c.146-.084.261-.023.261.133a.552.552 0 0 1-.261.434L54.223 49.91c-.146.085-.261.024-.261-.132a.552.552 0 0 1 .261-.434ZM74.127 35.541l3.108-1.787c.146-.085.261-.024.261.132a.553.553 0 0 1-.261.434l-3.108 1.791c-.146.082-.261.024-.261-.136a.56.56 0 0 1 .261-.434Z"/><path fill="#4CAF4F" d="m58.156 35.69 12.005-6.933c.145-.085.264-.024.264.132a.562.562 0 0 1-.264.435L58.155 36.26c-.146.085-.265.024-.265-.132a.556.556 0 0 1 .265-.438Z"/><path fill="#fff" d="m58.156 35.69 12.005-6.933c.145-.085.264-.024.264.132a.562.562 0 0 1-.264.435L58.155 36.26c-.146.085-.265.024-.265-.132a.556.556 0 0 1 .265-.438Z" opacity=".6"/><path fill="#4CAF4F" d="m71.178 28.17 3.109-1.787c.142-.085.26-.027.26.132a.57.57 0 0 1-.26.434l-3.109 1.788c-.145.085-.264.024-.264-.132a.565.565 0 0 1 .264-.435Z"/><path fill="#fff" d="m71.178 28.17 3.109-1.787c.142-.085.26-.027.26.132a.57.57 0 0 1-.26.434l-3.109 1.788c-.145.085-.264.024-.264-.132a.565.565 0 0 1 .264-.435Z" opacity=".6"/><path fill="#103E13" d="M16.736 76.108 7.02 81.715a.861.861 0 0 0-.39.678v11.713c0 .248.176.34.39.224l9.717-5.597a.868.868 0 0 0 .39-.678V76.33c0-.247-.176-.346-.39-.224ZM13.981 52.851l-7.173 4.132a.394.394 0 0 0-.18.309v4.002c0 .116.082.16.18.102l7.173-4.132a.387.387 0 0 0 .18-.305v-4.006c0-.112-.081-.16-.18-.102ZM13.981 61.172l-7.173 4.132a.394.394 0 0 0-.18.308v4.003c0 .112.082.16.18.102l7.173-4.132a.39.39 0 0 0 .18-.308v-4.003c0-.112-.081-.16-.18-.102ZM13.981 69.503l-7.173 4.121a.391.391 0 0 0-.18.31v4.002c0 .112.082.16.18.102l7.173-4.125a.394.394 0 0 0 .18-.309v-4.003c0-.122-.081-.166-.18-.098Z" opacity=".1"/><path fill="#4CAF4F" d="m17.94 76.576-9.703 5.597a.862.862 0 0 0-.39.678v11.713a.852.852 0 0 0 .39.678l.74.418a.866.866 0 0 0 .78 0l9.717-5.597a.86.86 0 0 0 .39-.679v-11.74a.85.85 0 0 0-.393-.678l-.736-.417a.866.866 0 0 0-.794.027Z"/><path fill="#103E13" d="M9.743 95.64a.888.888 0 0 1-.78 0l-.726-.418a.841.841 0 0 1-.39-.678v-11.7a.813.813 0 0 1 .125-.397l1.51.875a.784.784 0 0 0-.115.384v11.71c-.014.227.145.355.376.223Z" opacity=".2"/><path fill="#fff" d="M19.844 77.59c-.03-.197-.19-.268-.383-.156l-9.718 5.6a.777.777 0 0 0-.275.288l-1.513-.875a.773.773 0 0 1 .268-.274l9.718-5.597a.865.865 0 0 1 .78 0l.737.417a.862.862 0 0 1 .386.597Z" opacity=".5"/><path fill="#4CAF4F" d="m19.461 77.434-9.718 5.6a.858.858 0 0 0-.39.679v11.71c0 .247.176.338.39.223l9.718-5.597a.86.86 0 0 0 .387-.678V77.644c0-.234-.173-.34-.387-.21Z"/><path fill="#fff" d="M9.998 89.096a.628.628 0 0 1 .04-.241c.037-.079.079-.155.126-.227l2.29-3.705a.297.297 0 0 1 .038-.044l.027-.02a.065.065 0 0 1 .085 0 .151.151 0 0 1 .034.112v1.431a.623.623 0 0 1-.065.299 1.877 1.877 0 0 1-.119.193l-1.018 1.54 1.018.394a.504.504 0 0 1 .12.054c.043.027.063.102.063.22v1.432c.001.053-.01.105-.033.153a.234.234 0 0 1-.085.101h-.027a.068.068 0 0 1-.038 0l-2.29-1.058a.34.34 0 0 1-.126-.085.316.316 0 0 1-.04-.19v-.36ZM14.996 82.814c.02-.08.048-.157.085-.231a.407.407 0 0 1 .166-.18l.767-.444a.07.07 0 0 1 .091 0 .156.156 0 0 1 .037.115.48.48 0 0 1 0 .085l-1.937 8.256a.906.906 0 0 1-.081.224.411.411 0 0 1-.17.187l-.753.434a.068.068 0 0 1-.088 0 .156.156 0 0 1-.038-.115.287.287 0 0 1 0-.085l1.92-8.246ZM19.207 84.15a.653.653 0 0 1-.041.241 2.022 2.022 0 0 1-.126.224l-2.293 3.704a.199.199 0 0 1-.034.044l-.027.02c-.034.02-.065.02-.085 0a.15.15 0 0 1-.034-.111v-1.428a.594.594 0 0 1 .064-.296c.044-.078.082-.142.116-.193l1.018-1.547-1.018-.383a.428.428 0 0 1-.116-.061c-.044-.03-.064-.105-.064-.22v-1.432a.34.34 0 0 1 .034-.153.214.214 0 0 1 .085-.102h.061l2.293 1.059c.048.018.091.047.126.085a.34.34 0 0 1 .04.19v.36Z"/><path fill="#4CAF4F" d="m15.196 53.303-7.173 4.134a.387.387 0 0 0-.18.306v4.006a.387.387 0 0 0 .18.305l.71.404a.401.401 0 0 0 .339 0l7.193-4.149a.401.401 0 0 0 .176-.308v-4.003a.387.387 0 0 0-.18-.305l-.705-.404a.418.418 0 0 0-.36.014Z"/><path fill="#103E13" d="m15.196 53.303-7.173 4.134a.387.387 0 0 0-.18.306v4.006a.387.387 0 0 0 .18.305l.71.404a.401.401 0 0 0 .339 0l7.193-4.149a.401.401 0 0 0 .176-.308v-4.003a.387.387 0 0 0-.18-.305l-.705-.404a.418.418 0 0 0-.36.014Z" opacity=".4"/><path fill="#4CAF4F" d="M16.438 53.977c0-.088-.085-.118-.177-.067L9.088 58.04a.363.363 0 0 0-.125.132l-1.066-.61a.34.34 0 0 1 .123-.13l7.173-4.13a.406.406 0 0 1 .36 0l.705.403a.377.377 0 0 1 .18.271Z"/><path fill="#4CAF4F" d="M16.265 53.9 9.089 58.04a.387.387 0 0 0-.177.309v4.002c0 .113.078.16.177.102l7.176-4.145a.39.39 0 0 0 .176-.308v-4.003c0-.099-.06-.146-.176-.099Z"/><path fill="#103E13" d="M16.265 53.9 9.089 58.04a.387.387 0 0 0-.177.309v4.002c0 .113.078.16.177.102l7.176-4.145a.39.39 0 0 0 .176-.308v-4.003c0-.099-.06-.146-.176-.099Z" opacity=".2"/><path fill="#F5F7FA" d="M10.683 59.066v.593c.003.048.01.096.02.143a.207.207 0 0 0 .051.101.136.136 0 0 0 .089.041.265.265 0 0 0 .129-.044.392.392 0 0 0 .129-.102.508.508 0 0 0 .08-.115.59.59 0 0 0 .052-.119c0-.04.02-.074.027-.105a.342.342 0 0 1 .024-.095.139.139 0 0 1 .054-.054l.299-.173h.034a.058.058 0 0 1 .017.044 1.47 1.47 0 0 1-.058.373 1.79 1.79 0 0 1-.377.678c-.08.092-.176.17-.281.231a.58.58 0 0 1-.296.092.34.34 0 0 1-.22-.078.462.462 0 0 1-.14-.224 1.196 1.196 0 0 1-.057-.34v-.627a1.883 1.883 0 0 1 .197-.787c.058-.122.133-.236.22-.34.085-.097.184-.18.296-.247a.634.634 0 0 1 .281-.091.373.373 0 0 1 .224.054c.069.045.122.11.153.187.038.097.058.2.057.305a.138.138 0 0 1-.016.064.09.09 0 0 1-.034.044l-.299.173c-.027 0-.044.017-.054 0a.132.132 0 0 1-.024-.064c0-.024 0-.051-.027-.078a.176.176 0 0 0-.051-.061.145.145 0 0 0-.082-.02.289.289 0 0 0-.128.047.402.402 0 0 0-.13.108.676.676 0 0 0-.14.298 1.376 1.376 0 0 0-.019.188ZM12.648 56.97a.588.588 0 0 1 .268-.092.397.397 0 0 1 .214.044.384.384 0 0 1 .139.146.435.435 0 0 1 .05.207.134.134 0 0 1 0 .06.082.082 0 0 1-.033.045l-.299.173a.109.109 0 0 1-.054 0l-.037-.02-.024-.024a.123.123 0 0 0-.04-.027.159.159 0 0 0-.072 0 .2.2 0 0 0-.099.037.753.753 0 0 0-.084.058.453.453 0 0 0-.072.067.44.44 0 0 0-.05.085.242.242 0 0 0-.018.099.102.102 0 0 0 .02.074.089.089 0 0 0 .075.024.624.624 0 0 0 .136-.02l.21-.055a.68.68 0 0 1 .221-.027.265.265 0 0 1 .156.058.339.339 0 0 1 .095.16 1.142 1.142 0 0 1-.024.607 1.545 1.545 0 0 1-.146.339 1.4 1.4 0 0 1-.227.281 1.332 1.332 0 0 1-.281.217.68.68 0 0 1-.285.102.36.36 0 0 1-.367-.19.568.568 0 0 1-.054-.234.166.166 0 0 1 .017-.064.082.082 0 0 1 .03-.041l.302-.173a.088.088 0 0 1 .051-.017.054.054 0 0 1 .034.017l.03.027c.013.017.029.03.048.037a.14.14 0 0 0 .078 0 .238.238 0 0 0 .116-.04.818.818 0 0 0 .203-.16.275.275 0 0 0 .082-.193.077.077 0 0 0-.03-.071.212.212 0 0 0-.09 0 .852.852 0 0 0-.152.03l-.22.058a.34.34 0 0 1-.34-.061.613.613 0 0 1-.108-.42c0-.108.015-.214.044-.316.03-.111.073-.218.129-.32.057-.102.125-.197.203-.284.075-.08.16-.149.255-.204ZM14.293 56.01a.608.608 0 0 1 .269-.089.38.38 0 0 1 .21.044.34.34 0 0 1 .143.146c.032.064.05.135.05.207a.134.134 0 0 1 0 .061.122.122 0 0 1-.034.044l-.302.173a.082.082 0 0 1-.05 0 .072.072 0 0 1-.041-.017l-.02-.023a.123.123 0 0 0-.041-.028.162.162 0 0 0-.072 0 .252.252 0 0 0-.098.041.466.466 0 0 0-.085.058.453.453 0 0 0-.071.067.34.34 0 0 0-.05.085.245.245 0 0 0-.021.099.108.108 0 0 0 .024.074.084.084 0 0 0 .07.024.617.617 0 0 0 .14-.02l.21-.055a.575.575 0 0 1 .217-.027c.059 0 .115.021.16.058a.339.339 0 0 1 .091.156c.024.088.036.18.034.271-.002.115-.02.23-.054.34a1.468 1.468 0 0 1-.655.827.747.747 0 0 1-.285.102.387.387 0 0 1-.22-.04.373.373 0 0 1-.146-.153.492.492 0 0 1-.055-.231.146.146 0 0 1 0-.064.108.108 0 0 1 .034-.041l.302-.173c.02 0 .038-.02.048 0a.072.072 0 0 1 .037 0l.027.03a.196.196 0 0 0 .051.038.138.138 0 0 0 .078 0c.041-.006.08-.02.116-.041a.904.904 0 0 0 .203-.16.275.275 0 0 0 .082-.193.077.077 0 0 0-.03-.071.167.167 0 0 0-.089 0 .852.852 0 0 0-.153.03l-.22.055a.34.34 0 0 1-.34-.058.624.624 0 0 1-.112-.424c.002-.107.018-.213.048-.315.029-.11.072-.217.129-.316.056-.104.124-.2.204-.288.079-.08.169-.149.268-.204Z"/><path fill="#4CAF4F" d="m15.196 61.624-7.173 4.148a.4.4 0 0 0-.18.309v4.002a.393.393 0 0 0 .18.31l.71.4a.388.388 0 0 0 .339 0l7.176-4.132a.406.406 0 0 0 .176-.309V62.35a.393.393 0 0 0-.18-.308l-.705-.4a.409.409 0 0 0-.343-.017Z"/><path fill="#103E13" d="m15.196 61.624-7.173 4.148a.4.4 0 0 0-.18.309v4.002a.393.393 0 0 0 .18.31l.71.4a.388.388 0 0 0 .339 0l7.176-4.132a.406.406 0 0 0 .176-.309V62.35a.393.393 0 0 0-.18-.308l-.705-.4a.409.409 0 0 0-.343-.017Z" opacity=".4"/><path fill="#4CAF4F" d="M16.438 62.298c0-.088-.085-.122-.177-.07l-7.173 4.134a.363.363 0 0 0-.125.132l-1.066-.61a.34.34 0 0 1 .123-.13l7.173-4.13a.397.397 0 0 1 .36 0l.708.417a.38.38 0 0 1 .177.257Z"/><path fill="#4CAF4F" d="m16.265 62.227-7.176 4.135a.384.384 0 0 0-.177.305v4.007c0 .111.078.159.177.101l7.176-4.131a.396.396 0 0 0 .176-.309v-4.003c0-.115-.06-.16-.176-.105Z"/><path fill="#103E13" d="m16.265 62.227-7.176 4.135a.384.384 0 0 0-.177.305v4.007c0 .111.078.159.177.101l7.176-4.131a.396.396 0 0 0 .176-.309v-4.003c0-.115-.06-.16-.176-.105Z" opacity=".2"/><path fill="#F5F7FA" d="M10.717 66.43a.03.03 0 0 1 .022-.01.031.031 0 0 1 .022.01.067.067 0 0 1 .02.054v2.28a.18.18 0 0 1-.02.078.109.109 0 0 1-.044.05l-.298.174a.03.03 0 0 1-.044 0v-.919l-.51.295v.861a.156.156 0 0 1-.02.078.119.119 0 0 1-.04.055l-.302.172a.034.034 0 0 1-.045 0 .085.085 0 0 1 0-.057v-2.28a.217.217 0 0 1 0-.078.146.146 0 0 1 .045-.054l.302-.173a.034.034 0 0 1 .04 0 .075.075 0 0 1 .02.058v.848l.51-.292v-.851a.169.169 0 0 1 0-.078.13.13 0 0 1 .044-.051l.298-.17ZM12.393 65.463a.03.03 0 0 1 .044 0 .078.078 0 0 1 0 .055v.373a.197.197 0 0 1 0 .078.122.122 0 0 1-.044.054l-.404.234v1.808a.219.219 0 0 1-.02.081.146.146 0 0 1-.044.055l-.302.173a.041.041 0 0 1-.044 0 .088.088 0 0 1 0-.058v-1.808l-.404.23a.034.034 0 0 1-.044 0 .099.099 0 0 1-.017-.057v-.373c0-.027.006-.054.017-.078a.122.122 0 0 1 .044-.054l1.218-.713ZM13.445 66.701a.16.16 0 0 1-.03-.04l-.217-.458v1.166a.163.163 0 0 1-.017.079.122.122 0 0 1-.044.054l-.299.173a.034.034 0 0 1-.044 0 .075.075 0 0 1 0-.058v-2.276a.163.163 0 0 1 0-.078.122.122 0 0 1 .044-.054l.265-.153h.068a.183.183 0 0 1 .03.037l.373.764.37-1.191a.418.418 0 0 1 .03-.075.152.152 0 0 1 .069-.078l.264-.152a.03.03 0 0 1 .044 0 .064.064 0 0 1 0 .054v2.28a.163.163 0 0 1 0 .078.146.146 0 0 1-.044.054L14.01 67a.041.041 0 0 1-.045 0 .075.075 0 0 1 0-.058v-1.17l-.217.705a.586.586 0 0 1-.03.078.135.135 0 0 1-.055.061l-.145.082c-.041.014-.058.017-.072.003ZM15.929 65.327h.04a.068.068 0 0 1 .02.055v.39a.156.156 0 0 1-.02.078.102.102 0 0 1-.04.054l-1.062.61a.034.034 0 0 1-.044 0 .09.09 0 0 1 0-.057v-2.28a.2.2 0 0 1 0-.074.122.122 0 0 1 .044-.054l.298-.173a.032.032 0 0 1 .023-.01.03.03 0 0 1 .022.01.068.068 0 0 1 .02.054v1.811l.699-.414Z"/><path fill="#4CAF4F" d="m15.196 69.944-7.173 4.132a.394.394 0 0 0-.18.308v4.003a.394.394 0 0 0 .18.309l.71.4a.401.401 0 0 0 .339 0l7.193-4.132a.408.408 0 0 0 .176-.308v-4.003a.394.394 0 0 0-.18-.309l-.705-.4a.397.397 0 0 0-.36 0Z"/><path fill="#103E13" d="m15.196 69.944-7.173 4.132a.394.394 0 0 0-.18.308v4.003a.394.394 0 0 0 .18.309l.71.4a.401.401 0 0 0 .339 0l7.193-4.132a.408.408 0 0 0 .176-.308v-4.003a.394.394 0 0 0-.18-.309l-.705-.4a.397.397 0 0 0-.36 0Z" opacity=".4"/><path fill="#4CAF4F" d="M16.438 70.62c0-.089-.085-.123-.177-.072L9.088 74.68a.407.407 0 0 0-.125.135l-1.066-.614a.359.359 0 0 1 .123-.125l7.176-4.132a.407.407 0 0 1 .36 0l.705.404a.38.38 0 0 1 .177.271Z"/><path fill="#4CAF4F" d="M16.265 70.548 9.089 74.68a.397.397 0 0 0-.177.308v4.013c0 .115.078.16.177.105l7.176-4.141a.396.396 0 0 0 .176-.31v-4.002c0-.115-.06-.16-.176-.105Z"/><path fill="#103E13" d="M16.265 70.548 9.089 74.68a.397.397 0 0 0-.177.308v4.013c0 .115.078.16.177.105l7.176-4.141a.396.396 0 0 0 .176-.31v-4.002c0-.115-.06-.16-.176-.105Z" opacity=".2"/><path fill="#F5F7FA" d="M10.822 75.626v.597a.89.89 0 0 0 .02.142c.01.038.028.072.052.102a.143.143 0 0 0 .088.041.265.265 0 0 0 .129-.044.5.5 0 0 0 .129-.102.832.832 0 0 0 .085-.115.671.671 0 0 0 .047-.119c0-.04.02-.075.027-.109a.579.579 0 0 1 .024-.091.118.118 0 0 1 .054-.054l.299-.173a.03.03 0 0 1 .037 0v.044c-.001.126-.02.252-.057.373a1.777 1.777 0 0 1-.15.363c-.063.112-.14.217-.227.312a1.05 1.05 0 0 1-.282.23.587.587 0 0 1-.291.096.34.34 0 0 1-.221-.079.491.491 0 0 1-.143-.223 1.237 1.237 0 0 1-.057-.34v-.628c.004-.134.024-.269.057-.4.043-.133.1-.262.17-.383.06-.121.133-.236.22-.339.085-.098.185-.181.296-.248a.635.635 0 0 1 .281-.091.36.36 0 0 1 .228.054c.068.046.12.11.15.187.04.096.059.2.057.305a.146.146 0 0 1 0 .065.121.121 0 0 1-.037.044l-.3.173h-.053a.184.184 0 0 1-.024-.065c0-.024 0-.05-.027-.078a.125.125 0 0 0-.048-.06.166.166 0 0 0-.085-.021.319.319 0 0 0-.129.044.509.509 0 0 0-.129.108.765.765 0 0 0-.088.143 1.09 1.09 0 0 0-.05.16 1.388 1.388 0 0 0-.052.179ZM12.926 75.158v.58a.218.218 0 0 1 0 .078.122.122 0 0 1-.044.054l-.288.166a.034.034 0 0 1-.044 0 .075.075 0 0 1 0-.057v-.58l-.34.203a.03.03 0 0 1-.044 0 .078.078 0 0 1 0-.054v-.356a.201.201 0 0 1 0-.078.122.122 0 0 1 .044-.054l.34-.204v-.604a.172.172 0 0 1 0-.078.113.113 0 0 1 .043-.05l.289-.17a.04.04 0 0 1 .044 0 .089.089 0 0 1 0 .057v.58l.34-.203a.04.04 0 0 1 .043 0 .076.076 0 0 1 .017.058v.356a.163.163 0 0 1-.06.132l-.34.224ZM14.446 74.28v.583a.18.18 0 0 1-.06.129l-.293.166a.028.028 0 0 1-.02.009.027.027 0 0 1-.02-.01.068.068 0 0 1-.02-.053v-.584l-.34.207a.034.034 0 0 1-.022.008.034.034 0 0 1-.022-.008.074.074 0 0 1-.02-.058v-.356a.18.18 0 0 1 .02-.078.095.095 0 0 1 .044-.05l.34-.208v-.58c-.001-.027.006-.054.02-.078a.118.118 0 0 1 .04-.054l.292-.166a.027.027 0 0 1 .032-.007.027.027 0 0 1 .009.007.068.068 0 0 1 .02.054v.584l.34-.204a.03.03 0 0 1 .021-.01.031.031 0 0 1 .023.01.085.085 0 0 1 0 .058v.339a.2.2 0 0 1 0 .074.123.123 0 0 1-.044.055l-.34.22Z"/><path fill="#333" d="m94.316 22.889-5.942 3.433a.475.475 0 0 0-.21.37v7.259a.455.455 0 0 0 .214.362l.841.482a.486.486 0 0 0 .428 0l5.94-3.436a.468.468 0 0 0 .211-.366v-7.26a.464.464 0 0 0-.213-.366l-.825-.482a.477.477 0 0 0-.445.004Z"/><path fill="#333" d="M89.647 34.792a.496.496 0 0 1-.428 0l-.841-.482a.454.454 0 0 1-.214-.363v-7.259a.442.442 0 0 1 .068-.217l1.265.726c-.04.068-.064.142-.064.027v7.26c0 .308.088.379.214.308Z"/><path fill="#fff" d="M95.795 23.71c-.017-.109-.102-.146-.207-.085l-5.942 3.436a.441.441 0 0 0-.149.156l-1.269-.726a.462.462 0 0 1 .15-.152l5.94-3.436a.468.468 0 0 1 .425 0l.841.478a.456.456 0 0 1 .21.329Z" opacity=".4"/><path fill="#37474F" d="M87.584 32.075c-.136-.082-1.15-.651-1.181-.679a.197.197 0 0 1-.044-.301l1.805-2.07 1.269.73-1.887 2.015a.201.201 0 0 0 .038.305Z"/><path fill="#fff" d="M87.584 32.075c-.136-.082-1.15-.651-1.181-.679a.197.197 0 0 1-.044-.301l1.805-2.07 1.269.73-1.887 2.015a.201.201 0 0 0 .038.305Z" opacity=".4"/><path fill="#37474F" d="m95.588 23.608-5.941 3.436a.463.463 0 0 0-.214.366v2.351l-1.887 2.015a.19.19 0 0 0 .01.306.19.19 0 0 0 .112.033l1.765-.129v2.697c0 .136.095.19.213.122l5.942-3.436a.468.468 0 0 0 .21-.366v-7.26c0-.149-.095-.203-.21-.135Z"/><path fill="#F5F7FA" d="m94.42 30.05-1.217-.913 1.255-2.401a.456.456 0 0 0-.808-.424l-1.187 2.269-1.086-.821a.455.455 0 0 0-.55.726l1.208.912-1.204 2.3a.458.458 0 0 0 .404.669.455.455 0 0 0 .403-.245l1.134-2.164 1.089.821a.459.459 0 0 0 .731-.425.458.458 0 0 0-.171-.304Z"/><path fill="#263238" d="M122.208 116.747c.241.475.349 1.006.313 1.537-.024.464-.302 1.068-.177 2.116.126 1.049.367 1.381.479 2.12a2.61 2.61 0 0 1-.411 1.971c-.434.706-1.391 1.265-3.284 1.198-1.527-.055-2.145-.838-2.179-1.737l5.259-7.205Z"/><path fill="#37474F" d="M121.774 114.583c.047.195.078.394.092.594.057.356.162.678.247 1.041.024.092.044.183.065.275.146.702 0 1.428 0 2.144.058.845.207 1.682.444 2.496.34 1.486.397 2.48-.902 3.508-.679.542-1.436.559-2.304.583a3.676 3.676 0 0 1-1.914-.461c-.556-.411-.55-.757-.553-.889-.051-1.577.519-3.412.635-4.986.042-.424.052-.851.027-1.276-.055-.522-.234-1.041-.292-1.567a.906.906 0 0 1 .071-.58.938.938 0 0 1 .702-.315c.679-.092 1.385-.16 2.08-.211a.64.64 0 0 1 .472.095c.136.122.139.339.177.506.037.166.166.38.339.339a.309.309 0 0 0 .21-.265c.017-.115.068-1.017.065-1.15.013.007.258-.03.339.119Z"/><path fill="#263238" d="M98.796 119.817c-.112.279-.112.59 0 .868.112.258 1.405 1.059 3.193 1.018a7.463 7.463 0 0 0 3.732-1.14c.696-.424 1.409-.478 2.294-.495.886-.017 1.924-.339 2.226-.736a2.117 2.117 0 0 0 0-1.191l-11.445 1.676Z"/><path fill="#37474F" d="M105.27 114.536a3.902 3.902 0 0 0-.183.393 3.151 3.151 0 0 1-.984 1.225c-.617.426-1.279.784-1.975 1.065-.441.196-.902.251-1.357.407a7.58 7.58 0 0 0-1.449.637c-.72.441-.855 1.625-.078 2.127.679.431 2.467.943 4.387.482 1.049-.251 2.24-1.313 3.604-1.357.865-.03 2.511-.207 3.094-.841.214-.946-.02-1.214-.213-2.035a6.525 6.525 0 0 1-.163-1.384c0-.245.163-.947-.34-1.018l-.05.526s-.099.176-.635.271c-.173.031-.309.258-.4.465-.092.207-.15.366-.34.363a.335.335 0 0 1-.268-.21 2.493 2.493 0 0 1-.098-.34 1.362 1.362 0 0 0-.811-.804 4.175 4.175 0 0 0-.95-.2c-.244-.037-.448-.142-.679.068a.742.742 0 0 0-.112.16Z"/><path fill="#455A64" d="M119.192 74.19c.339 5.18.519 8.195 1.446 22.33a37.01 37.01 0 0 1 1.292 7.408c.184 3.128.628 12.551.628 12.551s-2.521 2.069-5.429 1.113c0 0-2.64-13.854-3.563-18.175-.882-4.149-1.56-8.684-1.56-8.684l-.655 5.787s.115 2.575.034 6.418c-.041 2.055-1.018 13.182-1.018 13.182s-3.539 1.607-5.928-.458c0 0-.173-18.043-.21-19.902-.041-2.123.339-23.477.339-23.477l14.624 1.907Z"/><path fill="#37474F" d="m111.992 90.737-1.808-9.475s-2.796-.244-4.34-1.804c0 0 .275 1.53 3.79 2.445l1.747 8.725-.03 5.892.641-5.783ZM122.476 114.78a5.735 5.735 0 0 1-3.878 1.397s2.409-.359 3.855-1.947l.023.55ZM110.478 114.807s-2.466.861-4.546.203c0 0 1.605 1.079 4.509.194l.037-.397Z"/><path fill="#E8F5E9" d="M84.46 54.916a.578.578 0 0 0-.101-.224 1.018 1.018 0 0 1 .02-1.018c.06-.074.11-.157.15-.244.067-.187-.018-.397 0-.597.06-.892 1.675-.502 2.188-.34.15.052 1.018.276 1.357.394-.03-.49.018-.98.142-1.455.231-.926.995-.831 1.039-.265.042.513.137 1.02.285 1.513.095.363.34.723.478 1.259.2.678.15 1.058.828 1.696 1.018.96 6.243 4.501 6.243 4.501 1.303-.838 6.345-3.938 8.235-4.962 1.829-.994 2.762-.194 2.762-.194l-1.594 5.872s-6.288 3.243-8.554 4.233c-1.582.679-2.28.299-4.025-1.255-1.384-1.31-3.21-3.202-5.18-4.945-.788-.7-1.358-1.055-1.914-1.082-.21 0-.421-.024-.628-.045-.468-.054-1.018-.17-1.245-.634-.078-.156-.116-.34-.18-.495-.099-.251-.255-.475-.34-.726a1.017 1.017 0 0 1-.067-.533c0-.145.122-.291.101-.454Z"/><path fill="#455A64" d="M108.419 54.53c-1.609 0-2.233 0-4.276 1.16-2.042 1.16-6.026 3.795-6.026 3.795s1.785.994 2.141 4.522l6.447-3.026 1.714-6.452Z"/><path fill="#C8E6C9" d="M87.453 53.427c.533.129.699.465.736 1.214.02.445.207 1.255.713 1.55a1.157 1.157 0 0 1-.648-.227c-.245-.22-.309-.24-.428-.098a.815.815 0 0 1-.319.213.573.573 0 0 1 .099.679c-.207.4-1.249.478-2.131.095 0 0 1.415.339 1.696-.122.282-.462-.478-.964-1.018-1.076 0 0 1.358.228 1.534-.224.177-.45-.4-.746-1.201-.892 0 0 1.12.126 1.283-.264a.679.679 0 0 0-.316-.848ZM97.076 60.147a4.2 4.2 0 0 1 1.567 1.933s.112-1.49-1.113-2.222l-.454.289Z"/><path fill="#4CAF4F" d="M104.374 60.33c.201-3.993 1.809-5.604 4.045-5.8l5.025-.34c1.357.315 4.886.994 4.886.994 1.463.437 2.491 4.25 2.148 6.421-.343 2.171-1.059 3.826-1.259 7.48.058 3.46.109 4.145.109 5.502-3.125 1.984-11.52 2.398-14.821.407 0 0-.058-3.345-.126-5.475-.115-3.653-.074-7.816-.007-9.19Z"/><path fill="#37474F" d="M105.694 43.393a1.289 1.289 0 0 0-.651 1.15c-.008.348.091.69.285.98.293.37.697.634 1.154.753.196.047.388.112.573.193.23.165.446.349.645.55.308.238.614.482.929.712.626.468 1.28.896 1.958 1.283.652.373 1.333.692 2.036.956.743.275 1.357.034 2.151.105l-.115 2.15s.265-.494.567-1.085c.261-.508 1.357-3.1 1.357-3.1.427-1.018.97-2.083.906-3.219-.055-.92-.238-1.727-.937-2.117-.057-1.058-.298-1.574-1.041-2.14a4.111 4.111 0 0 0-1.836-.678 7.463 7.463 0 0 0-2.229.078c-1.1.176-2.199.457-3.312.4a5.295 5.295 0 0 0-1.778.112 1.798 1.798 0 0 0-1.245 1.76c-.024.404.298 1.069.583 1.157Z"/><path fill="#E8F5E9" d="M112.657 43.667c0 .679.624 1.639 1.574 2.467a4.679 4.679 0 0 0 .051 1.892c.058.193.148.375.265.54a.54.54 0 0 0 .397.25c.22 0 .309-.115.376-.288.101-.219.214-.432.34-.637.056-.088.121-.17.193-.244.339-.31 1.32-.679 1.778.366.458 1.045-.4 2.523-1.194 2.744-1.357.383-1.666-.55-1.666-.55l.023 4.526c-.383 1.146-2.507 2.262-4.217 2.035-1.71-.227-1.167-1.259-.472-1.957l-.088-1.571a6.735 6.735 0 0 1-1.825-.068c-.71-.136-1.293-.8-1.588-1.882a16.462 16.462 0 0 1-.204-6.283c.258-1.275.573-1.825.726-1.974 0 .278.533 1.13 1.914 1.32 1.459.21 2.565-.251 3.617-.686Z"/><path fill="#C8E6C9" d="M110.01 53.247c1.262-.115 2.287-.288 3-.678.522-.275.974-1.133 1.109-1.439 0 0-.034 1.174-.736 1.825-.991.92-3.335.92-3.335.92l-.038-.628Z"/><path fill="#263238" d="M110.672 47.487a.46.46 0 0 0 .543.446.458.458 0 0 0-.068-.907.467.467 0 0 0-.475.461ZM110.838 45.991l1.109.458a.627.627 0 0 0-.339-.8.584.584 0 0 0-.77.342Z"/><path fill="#388E3B" d="m111.272 49.956-1.696.679a.899.899 0 0 0 .475.516.892.892 0 0 0 .702.013.951.951 0 0 0 .519-1.208Z"/><path fill="#C8E6C9" d="M110.285 51.147a.6.6 0 0 0 0 .085.873.873 0 0 0 .471-.054.937.937 0 0 0 .571-.875.865.865 0 0 0-1.042.845Z"/><path fill="#263238" d="m106.685 46.422 1.096-.424a.57.57 0 0 0-.743-.34.597.597 0 0 0-.353.764ZM106.967 47.389a.466.466 0 0 0 .444.492.48.48 0 0 0 .508-.544.483.483 0 0 0-.359-.398.48.48 0 0 0-.593.45Z"/><path fill="#C8E6C9" d="m109.403 49.733-1.69-.32 1.595-2.7.095 3.02Z"/><path fill="#E8F5E9" d="M118.622 55.265c2.114.367 3.393 1.045 3.936 2.714.77 2.374 2.925 9.1 3.369 11.492.272 1.469.696 2.398-.549 3.365a88.343 88.343 0 0 1-9.277 5.868c-2.823 1.48-7.085 1.771-7.085 1.771l3.091-1.869.55-1.048 8.262-7.317-3.122-9.22s-.787-4.738.825-5.756Z"/><path fill="#C8E6C9" d="M120.919 70.241a4.709 4.709 0 0 1 2.172-.522s-.733-.631-2.352 0l.18.522Z"/><path fill="#455A64" d="M118.33 55.184c.967.18 2.036.285 3.02.909.984.624 1.163 1.38 1.92 3.71.757 2.331 1.649 5.767 1.649 5.767s-1.853 1.568-5.042 1.612c0 0-1.571-4.36-1.958-5.33-.387-.97-1.36-4.097.411-6.668Z"/><path fill="#4CAF4F" d="M114.923 76.123v.292a.823.823 0 0 1-.393.719l-7.703 4.674a.834.834 0 0 1-.817 0L91.5 73.864a.833.833 0 0 1-.423-.702v-.197l15.333 8.406 8.513-5.248Z"/><path fill="#fff" d="M114.923 76.123v.292a.823.823 0 0 1-.393.719l-7.703 4.674a.834.834 0 0 1-.817 0L91.5 73.864a.833.833 0 0 1-.423-.702v-.197l15.333 8.406 8.513-5.248Z" opacity=".5"/><path fill="#103E13" d="M114.923 76.123v.292a.823.823 0 0 1-.393.719l-7.703 4.674a.834.834 0 0 1-.817 0L91.5 73.864a.833.833 0 0 1-.423-.702v-.197l15.333 8.406 8.513-5.248Z" opacity=".1"/><path fill="#4CAF4F" d="m91.073 72.965 8.385-5.088a.493.493 0 0 1 .488 0l14.93 8.182c.016.01.029.023.039.04a.112.112 0 0 1 0 .107.116.116 0 0 1-.039.04l-8.466 5.138-15.337-8.419Z"/><path fill="#fff" d="m91.073 72.965 8.385-5.088a.493.493 0 0 1 .488 0l14.93 8.182c.016.01.029.023.039.04a.112.112 0 0 1 0 .107.116.116 0 0 1-.039.04l-8.466 5.138-15.337-8.419Z" opacity=".85"/><path fill="#4CAF4F" d="m106.335 80.574 4.523-2.745-13.43-7.36-4.546 2.73 13.453 7.375Z"/><path fill="#fff" d="m106.335 80.574 4.523-2.745-13.43-7.36-4.546 2.73 13.453 7.375Z" opacity=".6"/><path fill="#4CAF4F" d="m108.561 73.25-.085.051-2.215 1.347-4.045-2.219-.085-.044 2.301-1.398 4.129 2.263Z"/><path fill="#4CAF4F" d="m108.477 73.301-2.216 1.347-4.045-2.219 2.219-1.343 4.042 2.215Z"/><path fill="#fff" d="m108.477 73.301-2.216 1.347-4.045-2.219 2.219-1.343 4.042 2.215Z" opacity=".6"/><path fill="#4CAF4F" d="M106.407 81.37v.543a.799.799 0 0 1-.411-.098l-14.495-7.951a.833.833 0 0 1-.424-.702v-.197l15.33 8.406Z"/><path fill="#fff" d="M106.407 81.37v.543a.799.799 0 0 1-.411-.098l-14.495-7.951a.833.833 0 0 1-.424-.702v-.197l15.33 8.406Z" opacity=".03"/><path fill="#103E13" d="M106.407 81.37v.543a.799.799 0 0 1-.411-.098l-14.495-7.951a.833.833 0 0 1-.424-.702v-.197l15.33 8.406Z" opacity=".2"/><path fill="#4CAF4F" d="M106.179 81.496a.958.958 0 0 1-.838-.047l-14.44-7.917a.98.98 0 0 1-.49-.679l-1.764-9.274a.885.885 0 0 1 0-.16.963.963 0 0 1 .272-.695l14.99 8.23a.704.704 0 0 1 .36.491l1.91 10.051Z"/><path fill="#fff" d="M106.179 81.496a.958.958 0 0 1-.838-.047l-14.44-7.917a.98.98 0 0 1-.49-.679l-1.764-9.274a.885.885 0 0 1 0-.16.963.963 0 0 1 .272-.695l14.99 8.23a.704.704 0 0 1 .36.491l1.91 10.051Z" opacity=".4"/><path fill="#4CAF4F" d="m106.407 81.37-.095.058a1.003 1.003 0 0 1-.133.068l-1.91-10.037a.703.703 0 0 0-.36-.492l-15.007-8.229a.867.867 0 0 1 .193-.156l15.042 8.243a.73.73 0 0 1 .359.495l1.911 10.05Z"/><path fill="#fff" d="m106.407 81.37-.095.058a1.003 1.003 0 0 1-.133.068l-1.91-10.037a.703.703 0 0 0-.36-.492l-15.007-8.229a.867.867 0 0 1 .193-.156l15.042 8.243a.73.73 0 0 1 .359.495l1.911 10.05Z" opacity=".6"/><path fill="#4CAF4F" d="m104.13 71.154.224-.136c.071.088.12.191.142.302l1.911 10.05-.095.058a1.015 1.015 0 0 1-.133.068l-1.91-10.037a.72.72 0 0 0-.139-.305Z"/><path fill="#fff" d="m104.13 71.154.224-.136c.071.088.12.191.142.302l1.911 10.05-.095.058a1.015 1.015 0 0 1-.133.068l-1.91-10.037a.72.72 0 0 0-.139-.305Z" opacity=".5"/><path fill="#103E13" d="m104.13 71.154.224-.136c.071.088.12.191.142.302l1.911 10.05-.095.058a1.015 1.015 0 0 1-.133.068l-1.91-10.037a.72.72 0 0 0-.139-.305Z" opacity=".1"/><path fill="#455A64" d="M97.958 73.08a3.155 3.155 0 0 0-1.48-1.818c-.695-.38-1.167-.19-1.048.435.119.624.78 1.431 1.48 1.814.698.384 1.166.19 1.048-.43Z"/><path fill="#E8F5E9" d="M115.205 75.302c-.808.567-1.897.109-2.969.238-1.072.129-1.988.393-2.85.37-.862-.024-1.283.149-.679.837.604.689 2.331.292 2.799.502a1.016 1.016 0 0 1 .217 1.587c-.505.588 2.878-.545 3.329-1.24.451-.696.764-2.206.153-2.294Z"/></svg>