<svg xmlns="http://www.w3.org/2000/svg" width="23" height="23" fill="none"><path fill="#fff" fill-rule="evenodd" d="M.263 11.774C.263 5.624 5.249.637 11.4.637c6.15 0 11.137 4.986 11.137 11.137 0 6.151-4.986 11.137-11.137 11.137-6.151 0-11.137-4.986-11.137-11.137Z" clip-rule="evenodd" opacity=".1"/><path fill="#fff" fill-rule="evenodd" d="M17.34 11.766a5.935 5.935 0 0 1-.468 2.309 5.98 5.98 0 0 1-2.151 2.61 5.998 5.998 0 0 1-1.01.546 5.972 5.972 0 0 1-4.624 0A6 6 0 0 1 7.2 15.96a5.985 5.985 0 0 1-1.273-1.885 5.91 5.91 0 0 1-.347-3.503 5.898 5.898 0 0 1 .895-2.123 5.988 5.988 0 0 1 1.603-1.6 5.88 5.88 0 0 1 2.125-.893 5.985 5.985 0 0 1 3.509.344 5.962 5.962 0 0 1 3.16 3.157 5.874 5.874 0 0 1 .468 2.31ZM9.235 7.184a5.073 5.073 0 0 0-2.8 3.538c.134 0 2.248.027 4.684-.619a30.509 30.509 0 0 0-1.884-2.919Zm2.304 3.7c-2.612.78-5.118.724-5.208.72-.002.055-.004.108-.004.162a5.04 5.04 0 0 0 1.3 3.385c-.002-.003 1.386-2.462 4.123-3.346.066-.022.134-.042.2-.06a17.099 17.099 0 0 0-.411-.862Zm3.21-2.92a5.052 5.052 0 0 0-3.35-1.263c-.412 0-.812.05-1.195.142.076.102 1.029 1.364 1.896 2.955 1.915-.717 2.637-1.815 2.65-1.834Zm-2.453 4.62-.033.01c-2.993 1.042-3.97 3.142-3.981 3.165a5.067 5.067 0 0 0 5.098.67 21.063 21.063 0 0 0-1.084-3.846Zm1.938 3.383a5.066 5.066 0 0 0 2.174-3.398 7.37 7.37 0 0 0-3.161-.22c.665 1.826.935 3.313.987 3.618Zm-1.743-5.415a15.995 15.995 0 0 1 .447.997c1.742-.218 3.459.15 3.532.165a5.035 5.035 0 0 0-1.153-3.166c-.01.014-.823 1.188-2.826 2.005Z" clip-rule="evenodd"/></svg>