<svg xmlns="http://www.w3.org/2000/svg" width="148" height="111" fill="none"><path fill="#F5F5F5" d="M74.117 110.287c31.571 0 57.164-1.494 57.164-3.337 0-1.843-25.593-3.338-57.164-3.338-31.57 0-57.164 1.495-57.164 3.338s25.594 3.337 57.164 3.337Z"/><path fill="#E58A7B" d="m103.379 32.415-2.925-1.18s-3.86 7.038-4.965 7.395c-1.503.483-4.617 1.828-6.462 2.063-.25.295-.66 1.212-.622 1.545 2.48.829 7.927-.271 9.095-1.138 2.656-1.966 5.879-8.685 5.879-8.685Z"/><path fill="#4CAF4F" d="M104.278 30.814c.545 2.013-2.409 6.064-2.409 6.064l-3.871-2.17s.725-1.666 1.61-3.36c1.418-2.74 4.048-2.831 4.67-.534Z"/><path fill="#000" d="M104.278 30.814c.545 2.013-2.409 6.064-2.409 6.064l-3.871-2.17s.725-1.666 1.61-3.36c1.418-2.74 4.048-2.831 4.67-.534Z" opacity=".2"/><path fill="#000" d="m99.534 35.575 1.524.855.269-4.679c-.888.681-1.513 2.733-1.793 3.824Z" opacity=".2"/><path fill="#4CAF4F" d="M101.731 29.298s-3.014 6.705-1.256 19.188h11.872c.189-1.822-.436-10.714 1.825-19.3a30.21 30.21 0 0 0-3.945-.504 43.616 43.616 0 0 0-5.044 0 23.252 23.252 0 0 0-3.452.616Z"/><path fill="#000" d="M101.731 29.298s-3.014 6.705-1.256 19.188h11.872c.189-1.822-.436-10.714 1.825-19.3a30.21 30.21 0 0 0-3.945-.504 43.616 43.616 0 0 0-5.044 0 23.252 23.252 0 0 0-3.452.616Z" opacity=".2"/><path fill="#E8ECF1" d="M98.977 107.215c-.018.318 4.484.575 10.053.575 5.57 0 10.104-.257 10.122-.575.017-.318-4.482-.572-10.054-.572s-10.1.257-10.121.572Z" style="mix-blend-mode:multiply"/><path fill="#E58A7B" d="m106.902 98.849-2.106.815 1.814 4.686 2.106-.815-1.814-4.686ZM116.292 104.948h-2.22l-.814-5.14h2.22l.814 5.14Z"/><path fill="#263238" d="M113.919 104.691h2.494a.183.183 0 0 1 .18.153l.321 1.973c.007.049.003.1-.011.148a.366.366 0 0 1-.072.129.359.359 0 0 1-.265.118c-.869-.015-1.288-.068-2.385-.068-.675 0-2.064.071-3.001.071-.938 0-1-.92-.613-1.005 1.733-.375 2.405-.885 2.983-1.38a.557.557 0 0 1 .369-.139ZM106.548 103.93l2.359-.689a.191.191 0 0 1 .221.094l.884 1.769a.338.338 0 0 1-.221.469c-.858.236-1.433.38-2.506.693-.74.215-1.495.566-2.226.798-.507.163-1.698.169-2.314.169-.911 0-1.115-.962-.722-1.006.987-.109 1.12-.059 1.665-.333a7.578 7.578 0 0 0 2.383-1.645c.128-.146.293-.256.477-.319Z"/><path fill="#E58A7B" d="m89.398 40.681-2.441-1.023-1.005 2.707c1 .152 2.018.152 3.019 0l.427-1.684ZM85.14 39.588l-.064 1.798.876.973 1.005-2.706-1.816-.065Z"/><path fill="#CF6F64" d="m107.191 99.246-2.112.816.935 2.423 2.112-.815-.935-2.424ZM115.478 99.809h-2.22l.422 2.65h2.22l-.422-2.65Z"/><path fill="#000" d="M100.097 45.11c.045.534.095 1.079.16 1.64l8.827-2.867a6.323 6.323 0 0 0 3.396-2.456c.035-.787.08-1.615.148-2.479a64.8 64.8 0 0 1 .103-1.285c.038-.437.091-.92.147-1.386l-12.781 8.833Z" opacity=".2"/><path fill="#fff" d="m102.981 35.44-.295-.036c.174-1.474 1.273-2.636 2.432-2.606v.295c-1.014-.02-1.981 1.026-2.137 2.347ZM104.552 38.16h-.05v-.294c1.014.038 1.966-1.02 2.123-2.338l.295.035c-.157 1.442-1.221 2.598-2.368 2.598Z"/><path fill="#E58A7B" d="M110.062 23c-.415 1.625-.905 4.6.166 5.682 0 0-.749 1.648-3.765 1.648-2.757 0-1.28-1.648-1.28-1.648 1.834-.43 1.866-1.769 1.625-3.037l3.254-2.644Z"/><path fill="#CF6F64" d="m108.736 24.08-1.925 1.565c.059.292.094.588.103.885.563.56 1.692-.858 1.807-1.583.058-.286.063-.58.015-.867ZM103.5 22.98a1.942 1.942 0 0 0 1.253.926c.707.156 1.061-.495.866-1.15-.174-.59-.754-1.383-1.474-1.247a.98.98 0 0 0-.703.569.987.987 0 0 0 .058.902Z"/><path fill="#263238" d="M104.67 17.782c-1.103.505-1.492 4.886-.106 5.534 1.386.649 2.193-6.492.106-5.534Z"/><path fill="#E58A7B" d="M110.399 20.557c-.266 2.2-.295 3.493-1.475 4.62a2.836 2.836 0 0 1-4.823-1.504c-.357-1.975.136-5.239 2.341-6.115a2.838 2.838 0 0 1 3.957 2.999Z"/><path fill="#263238" d="M106.775 18.92c1.634-.415 2.833-.698 2.403.66-.569 1.817-1.253 3.574-.336 3.654.56.05 3.037-1 2.721-2.064-.274-.926.885-1.18 1.091-1.648.764-1.698-1.421-1.474-1.032-2.506.389-1.032-1.769-2.695-2.948-1.866-1.919 1.338-5.213 1.318-3.482-.885 1.241-1.571-.973-1.25-.973-1.25s1.339.793-.914 2.02c-2.382 1.309-.197 4.826 3.47 3.886Z"/><path fill="#E58A7B" d="M111.265 22.98a2.284 2.284 0 0 1-1.359.926c-.728.156-1.008-.495-.734-1.15.245-.59.917-1.383 1.613-1.247.695.136.855.893.48 1.471Z"/><path fill="#4CAF4F" d="M100.475 48.486s-1.993 17.837-2.15 24.606c-.159 7.04 6.755 29.008 6.755 29.008l3.538-1.474s-4.128-20.072-3.538-26.986c.625-7.538 3.208-25.143 3.208-25.143l-7.813-.011Z"/><path fill="#000" d="M105.428 53.383c-1.589 3.296-.519 9.814.342 13.677.327-2.728.716-5.688 1.085-8.427-.036-4.21-.363-7.462-1.427-5.25Z" opacity=".2"/><path fill="#4CAF4F" d="M108.461 99.458c.018 0 .419 1.126.419 1.126l-4.08 1.716-.643-1.197 4.304-1.645ZM104.688 48.486s1.524 16.964 2.532 23.317c1.109 6.961 5.455 30.143 5.455 30.143h4.065s-2.435-22.619-2.895-29.512c-.501-7.477-1.498-23.948-1.498-23.948h-7.659Z"/><path fill="#4CAF4F" d="M116.802 100.888c.018 0 .136 1.135.136 1.135h-4.47l-.318-1.303 4.652.168Z"/><path fill="#000" d="M115.245 99.544a.038.038 0 0 1-.025-.01.042.042 0 0 1-.013-.023c-.023-.206-2.22-20.638-2.633-26.829-.448-6.716-1.35-21.614-1.359-21.764 0-.005 0-.01.002-.014a.05.05 0 0 1 .007-.013.051.051 0 0 1 .012-.008.04.04 0 0 1 .041.007.04.04 0 0 1 .012.025c0 .15.911 15.036 1.359 21.764.413 6.191 2.609 26.608 2.63 26.83a.024.024 0 0 1-.001.014.032.032 0 0 1-.006.013.038.038 0 0 1-.011.01.042.042 0 0 1-.015.003v-.005Z" opacity=".2"/><path fill="#263238" d="M107.026 21.17c0 .18-.112.324-.23.324-.118 0-.204-.144-.192-.324.012-.18.112-.324.23-.324.118 0 .204.147.192.324ZM105.003 21.17c0 .18-.115.324-.23.324s-.203-.144-.194-.324c.009-.18.115-.324.233-.324.118 0 .203.147.191.324Z"/><path fill="#DF5753" d="M105.64 21.261a6.869 6.869 0 0 1-.943 1.53c.294.295.846.16.846.16l.097-1.69Z"/><path fill="#263238" d="M105.693 23.703a.05.05 0 0 1-.02-.005.045.045 0 0 1-.016-.011.043.043 0 0 1-.011-.017.068.068 0 0 1-.003-.02.059.059 0 0 1 .017-.038.059.059 0 0 1 .039-.016 1.508 1.508 0 0 0 1.179-.554.057.057 0 0 1 .037-.014c.014 0 .027.005.037.014.009.01.015.023.015.037a.056.056 0 0 1-.015.037 1.613 1.613 0 0 1-1.259.587ZM107.385 20.628a.101.101 0 0 1-.091 0 .837.837 0 0 0-.752-.08.1.1 0 0 1-.112-.015.09.09 0 0 1-.023-.032.106.106 0 0 1-.001-.082.107.107 0 0 1 .057-.06 1.034 1.034 0 0 1 .952.089.1.1 0 0 1 .028.029.089.089 0 0 1 .015.037.093.093 0 0 1 0 .041.103.103 0 0 1-.017.037.112.112 0 0 1-.056.036ZM104.222 20.038a.082.082 0 0 1-.041-.024.096.096 0 0 1-.023-.033.092.092 0 0 1-.008-.04c0-.014.002-.028.008-.04a.096.096 0 0 1 .023-.034 1.098 1.098 0 0 1 .908-.366.106.106 0 0 1 .038.015.103.103 0 0 1 .045.066.111.111 0 0 1-.046.108.116.116 0 0 1-.079.02.882.882 0 0 0-.716.296.11.11 0 0 1-.109.032Z"/><path fill="#E58A7B" d="m115.313 32.087-3.066-.816s-3.007 7.403-4.072 7.883c-1.444.66-5.103 2.949-6.66 4.03-.085.37-.017 1.345.177 1.613 2.654-.483 7.734-2.438 8.795-3.431 2.42-2.268 4.826-9.279 4.826-9.279Z"/><path fill="#4CAF4F" d="M113.173 105.08a.64.64 0 0 1-.422-.115.297.297 0 0 1-.091-.277.172.172 0 0 1 .03-.087.17.17 0 0 1 .07-.06c.248-.127.941.312 1.02.363a.04.04 0 0 1 .019.023c.004.009.005.02.002.03a.072.072 0 0 1-.015.027.056.056 0 0 1-.026.017 2.773 2.773 0 0 1-.587.079Zm-.295-.459a.156.156 0 0 0-.068 0 .065.065 0 0 0-.027.025.066.066 0 0 0-.008.036.193.193 0 0 0 .004.104c.01.034.029.064.055.088.115.103.404.115.784.041a1.945 1.945 0 0 0-.749-.294h.009Z"/><path fill="#4CAF4F" d="M113.745 105.001a.049.049 0 0 1-.024 0c-.221-.124-.637-.61-.575-.858a.182.182 0 0 1 .174-.139.276.276 0 0 1 .221.068c.245.21.26.852.26.885a.056.056 0 0 1-.005.028.051.051 0 0 1-.022.019.048.048 0 0 1-.029-.003Zm-.395-.899h-.021c-.068 0-.077.038-.079.053-.036.144.227.513.445.687a1.221 1.221 0 0 0-.221-.696.179.179 0 0 0-.124-.044ZM105.345 104.712a.844.844 0 0 1-.557 0 .268.268 0 0 1-.101-.094.288.288 0 0 1-.044-.13.172.172 0 0 1 .062-.156c.236-.213 1.2 0 1.309.041a.048.048 0 0 1 .036.047.072.072 0 0 1-.008.032.057.057 0 0 1-.025.021 4.331 4.331 0 0 1-.672.239Zm-.48-.351a.207.207 0 0 0-.092.044.074.074 0 0 0-.021.028.057.057 0 0 0-.002.034.18.18 0 0 0 .028.087.184.184 0 0 0 .066.064c.156.082.519.017.988-.18a2.89 2.89 0 0 0-.967-.077Z"/><path fill="#4CAF4F" d="M106.009 104.473h-.024c-.295-.053-.885-.392-.902-.645 0-.059.026-.142.168-.189a.377.377 0 0 1 .295.018c.318.156.486.722.495.748a.05.05 0 0 1-.001.027.043.043 0 0 1-.014.023.042.042 0 0 1-.017.018Zm-.699-.746h-.03c-.091.033-.091.071-.091.083 0 .153.427.433.725.528a1.11 1.11 0 0 0-.413-.59.27.27 0 0 0-.191-.021Z"/><path fill="#E58A7B" d="m101.766 43.01-3.075 1.416-.357.884 1.135.764s2.123-.23 2.727-1.595l-.43-1.468Z"/><path fill="#263238" d="M101.896 44.847a4.152 4.152 0 0 0-.572-1.668l.486-.366c.366.586.6 1.245.684 1.931l-.598.103Z"/><path fill="#263238" d="M102.42 43.43a.587.587 0 0 1-.322.879.59.59 0 0 1-.397-1.11.536.536 0 0 1 .719.23Z"/><path fill="#E58A7B" d="m96.612 45.57.41.413 2.76-1.18-1.09-.377-2.08 1.144Z"/><path fill="#000" d="M108.461 99.458c.018 0 .419 1.126.419 1.126l-4.08 1.716-.643-1.197 4.304-1.645ZM116.802 100.888c.018 0 .136 1.135.136 1.135h-4.47l-.318-1.303 4.652.168Z" opacity=".2"/><path fill="#4CAF4F" d="M116.112 31.238c.811 2.615-2.358 6.192-2.358 6.192l-4.379-1.787a45.504 45.504 0 0 1 1.793-4.443c1.344-2.898 4.125-2.6 4.944.038Z"/><path fill="#000" d="M116.112 31.238c.811 2.615-2.358 6.192-2.358 6.192l-4.379-1.787a45.504 45.504 0 0 1 1.793-4.443c1.344-2.898 4.125-2.6 4.944.038Z" opacity=".2"/><path fill="#4CAF4F" d="M72.608 5.037h-1.884v.304h1.884v-.304ZM96.995 17.056l-.228 5.06.303.014.229-5.06-.304-.014ZM96.409 6.4h-34.79l-3.237 72.444h34.79l3.237-72.445Z"/><path fill="#FAFAFA" d="M95.371 7.396h-34.79L57.345 79.84h34.79l3.237-72.444Z" opacity=".56"/><path fill="#4CAF4F" d="M94.333 8.39h-34.79l-3.24 72.444h34.79l3.24-72.445Z" opacity=".07"/><path fill="#fff" d="M90.374 39.986H60.679l-.248 5.543h29.695l.248-5.543Z"/><path fill="#4CAF4F" d="M77.01 35.94H60.858l-.11 2.48H76.9l.11-2.48Z"/><path fill="#fff" d="M89.704 54.945H60.01l-.248 5.543h29.695l.248-5.543Z"/><path fill="#4CAF4F" d="M84.259 67.974H64.29l-.297 6.642H83.96l.298-6.642Z" opacity=".47"/><path fill="#fff" d="M82.924 75.648H62.955a.052.052 0 0 1-.026 0 .04.04 0 0 1 0-.026l.294-6.646a.033.033 0 0 1 .01-.024.032.032 0 0 1 .025-.008h19.97a.027.027 0 0 1 .024 0 .023.023 0 0 1-.001.023l-.29 6.66a.038.038 0 0 1-.037.021Zm-19.934-.07h19.898l.295-6.575H63.285l-.295 6.574Z"/><path fill="#4CAF4F" d="M73.522 50.9H60.19l-.11 2.483h13.33l.112-2.483Z"/><path fill="#fff" d="M83.879 22.08a7.822 7.822 0 0 1-1.642 4.438 7.926 7.926 0 0 1-6.25 3.116 7.166 7.166 0 0 1-7.212-7.553 7.96 7.96 0 0 1 7.886-7.554 7.161 7.161 0 0 1 7.218 7.554Z"/><path fill="#4CAF4F" d="M84.59 16.108c-.02.429-.172.84-.437 1.179a2.115 2.115 0 0 1-1.663.828 1.91 1.91 0 0 1-1.586-.828 1.95 1.95 0 0 1-.33-1.18 2.117 2.117 0 0 1 2.096-2.004 1.905 1.905 0 0 1 1.92 2.005Z"/><path fill="#263238" d="M63.878 42.757a.94.94 0 0 1-.929.885.84.84 0 0 1-.849-.885.935.935 0 0 1 .929-.884.844.844 0 0 1 .849.884ZM67.852 42.757a.938.938 0 0 1-.928.885.842.842 0 0 1-.847-.885.935.935 0 0 1 .926-.884.84.84 0 0 1 .85.884ZM71.83 42.757a.938.938 0 0 1-.93.885.844.844 0 0 1-.849-.885.938.938 0 0 1 .93-.884.84.84 0 0 1 .848.884ZM63.209 57.717a.94.94 0 0 1-.93.884.841.841 0 0 1-.848-.884.937.937 0 0 1 .928-.885.841.841 0 0 1 .85.885ZM67.183 57.717a.938.938 0 0 1-.926.884.839.839 0 0 1-.85-.884.937.937 0 0 1 .93-.885.84.84 0 0 1 .846.885ZM71.169 57.717a.937.937 0 0 1-.929.884.843.843 0 0 1-.796-.548.848.848 0 0 1-.053-.336.94.94 0 0 1 .929-.885.839.839 0 0 1 .849.885ZM75.137 57.717a.94.94 0 0 1-.928.884.847.847 0 0 1-.85-.884.94.94 0 0 1 .93-.885.842.842 0 0 1 .848.885ZM79.13 57.717a.94.94 0 0 1-.93.884.839.839 0 0 1-.849-.884.937.937 0 0 1 .929-.885.842.842 0 0 1 .85.885Z"/><path fill="#4CAF4F" d="M78.526 21.688c1.234-1.207 1.3-3.141.146-4.32-1.153-1.18-3.088-1.158-4.322.05-1.234 1.206-1.3 3.14-.147 4.32 1.154 1.179 3.089 1.156 4.323-.05ZM82.237 26.518a7.925 7.925 0 0 1-6.25 3.116 7.156 7.156 0 0 1-5.968-3.116c1.433-1.427 3.7-2.359 6.212-2.359 2.512 0 4.7.932 6.006 2.359Z"/><path fill="#fff" d="M78.526 21.688c1.234-1.207 1.3-3.141.146-4.32-1.153-1.18-3.088-1.158-4.322.05-1.234 1.206-1.3 3.14-.147 4.32 1.154 1.179 3.089 1.156 4.323-.05ZM82.237 26.518a7.925 7.925 0 0 1-6.25 3.116 7.156 7.156 0 0 1-5.968-3.116c1.433-1.427 3.7-2.359 6.212-2.359 2.512 0 4.7.932 6.006 2.359Z" opacity=".1"/><path fill="#E58A7B" d="M38.86 46.864a44.985 44.985 0 0 0-1.577 3.945 25.423 25.423 0 0 0-1.057 4.068l-.065.434c-.006.074.001.15.021.221.07.244.18.476.324.684.379.54.818 1.034 1.31 1.474.517.482 1.06.936 1.627 1.36.566.436 1.162.86 1.748 1.261l-.551 1.035c-1.401-.61-2.73-1.373-3.966-2.273a9.546 9.546 0 0 1-1.768-1.675 4.203 4.203 0 0 1-.705-1.259 2.86 2.86 0 0 1-.142-.884v-.369l.03-.294c.169-1.537.492-3.052.964-4.523.23-.725.475-1.448.755-2.152.28-.705.569-1.395.925-2.111l2.126 1.058Z"/><path fill="#E58A7B" d="m40.775 60.128 2.085-1.055-.54 2.288s-1.43.4-2.093-.295l.548-.938Z"/><path fill="#E58A7B" d="m44.767 59.447-.554 1.893-1.893.02.54-2.287 1.907.374Z"/><path fill="#DF5753" d="M47.71 35.826c.111.408.266.804.463 1.179a.48.48 0 0 1-.47.15l.007-1.33Z"/><path fill="#263238" d="M47.648 35.843c.122 0 .221-.151.221-.339 0-.187-.099-.339-.221-.339s-.221.152-.221.34c0 .187.099.338.22.338Z"/><path fill="#263238" d="m47.583 35.177.448-.127s-.218.348-.448.127Z"/><path fill="#E58A7B" d="M41.952 37.99c.268 1.37.537 3.886-.425 4.802 0 0 .378 1.392 2.928 1.392 2.804 0 1.339-1.392 1.339-1.392-1.53-.365-1.492-1.5-1.224-2.568l-2.618-2.234Z"/><path fill="#E58A7B" d="M41.206 34.864c.141 2.291.153 3.264 1.309 4.44 1.742 1.77 4.526 1.097 5.07-1.179.493-2.063.18-5.46-2.063-6.37a3.13 3.13 0 0 0-4.316 3.11Z"/><path fill="#263238" d="M41.433 32.288c-1.15.419-2.683.106-2.081 3.653.636 3.756-.342 4.991-.342 4.991s4.36.929 8.812-.056c0 0-1.36-2.376-.979-4.127.486-2.212.103-3.028.103-3.028s-3.897-2.023-5.513-1.433Z"/><path fill="#E58A7B" d="M46.298 36.059c0 .435.125.862.36 1.23.312.477.68.294.772-.213.082-.445.02-1.233-.378-1.54-.398-.306-.748-.005-.754.523Z"/><path fill="#263238" d="M40.433 32.674c-.33-.929 1.245-2.358 4.576-1.769 3.332.59 3.476 3.364 3.476 3.364l-.672-.802.03.843-3.424.658-3.986-2.294Z"/><path fill="#4CAF4F" d="M40.716 42.949a.522.522 0 0 1 .428-.59c1.038-.171 3.396-.519 4.581-.354.885.124 1.115.637 1.153 1.059a.518.518 0 0 1-.545.56l-5.124-.23a.525.525 0 0 1-.493-.445Z"/><path fill="#000" d="M40.716 42.949a.522.522 0 0 1 .428-.59c1.038-.171 3.396-.519 4.581-.354.885.124 1.115.637 1.153 1.059a.518.518 0 0 1-.545.56l-5.124-.23a.525.525 0 0 1-.493-.445Z" opacity=".6"/><path fill="#E58A7B" d="m43.68 94.455 1.901 1.32 3.181-4.313-1.901-1.318-3.182 4.31ZM39.245 94.37l2.008 1.143 2.816-4.56-2.008-1.145-2.816 4.561Z"/><path fill="#CF6F64" d="m48.76 91.462-1.64 2.223-1.901-1.317 1.639-2.224 1.901 1.318ZM42.058 89.808l2.01 1.147-1.45 2.35-2.01-1.147 1.45-2.35Z"/><path fill="#4CAF4F" d="M45.283 57.348s7.424 9.355 6.03 18.303c-1.124 7.226-7.64 17.011-7.64 17.011l-3.063-1.52a100.029 100.029 0 0 0 5.514-13.398 9.902 9.902 0 0 0-1.18-8.58c-3.762-5.492-9.788-2.222-5.734-11.816h6.073Z"/><path fill="#000" d="M45.283 57.348s7.424 9.355 6.03 18.303c-1.124 7.226-7.64 17.011-7.64 17.011l-3.063-1.52a100.029 100.029 0 0 0 5.514-13.398 9.902 9.902 0 0 0-1.18-8.58c-3.762-5.492-9.788-2.222-5.734-11.816h6.073Z" opacity=".6"/><path fill="#000" d="m48.925 63.357-1.08-1.074c0 .086 2.09 12.99 2.678 16.617.346-1.06.61-2.144.793-3.243.69-4.39-.752-8.874-2.392-12.3Z" opacity=".4"/><path fill="#4CAF4F" d="M48.597 57.348s8.94 11.758 9.193 18.807c.21 5.897-9.73 17.321-9.73 17.321l-2.889-1.87s5.817-8.113 7.282-14.74c-.566-6.57-12.536-19.518-12.536-19.518h8.68Z"/><path fill="#000" d="M48.597 57.348s8.94 11.758 9.193 18.807c.21 5.897-9.73 17.321-9.73 17.321l-2.889-1.87s5.817-8.113 7.282-14.74c-.566-6.57-12.536-19.518-12.536-19.518h8.68Z" opacity=".6"/><path fill="#4CAF4F" d="M37.538 43.317c-.955.227-1.872 3.7-1.872 3.7l3.736 2.494s1.244-2.747.807-3.95c-.45-1.253-1.47-2.53-2.67-2.244Z"/><path fill="#000" d="m38.27 45.555-.26 3.028 1.389.931a12.44 12.44 0 0 0 .846-2.694l-1.975-1.265Z" opacity=".2"/><path fill="#4CAF4F" d="M49.703 43.385s1.102.386-1.106 13.96h-9.393c.16-3.833.162-6.191-1.666-14.028a27.814 27.814 0 0 1 3.99-.525 29.836 29.836 0 0 1 4.266 0c1.833.169 3.909.593 3.909.593Z"/><path fill="#E58A7B" d="M50.658 45.555c.212.59.436 1.224.672 1.834.236.61.46 1.238.699 1.857l.722 1.852.183.463.094.23.044.115v.017a.608.608 0 0 0-.206-.183.77.77 0 0 0-.71-.053c-.136.062-.136.089-.133.086a.36.36 0 0 0 .065-.068 4.02 4.02 0 0 0 .421-.687c.139-.271.272-.56.404-.852.26-.59.499-1.2.737-1.816.24-.616.466-1.238.687-1.866l.672-1.881 1.136.295a44.916 44.916 0 0 1-.861 3.986c-.168.663-.366 1.32-.59 1.984a14.96 14.96 0 0 1-.377 1.002c-.148.368-.33.722-.543 1.056a2.742 2.742 0 0 1-.26.318c-.15.163-.333.292-.536.38a1.321 1.321 0 0 1-1.194-.08 1.588 1.588 0 0 1-.536-.556 3.031 3.031 0 0 1-.11-.21l-.056-.112-.112-.23-.224-.457a35.942 35.942 0 0 1-.846-1.854c-.256-.622-.528-1.253-.781-1.887a27.013 27.013 0 0 1-.696-1.952l2.235-.73Z"/><path fill="#4CAF4F" d="M49.703 43.385c1.129.268 2.4 3.606 2.4 3.606l-3.358 2.857s-2.173-3.639-1.734-4.838c.457-1.25 1.218-1.976 2.692-1.625Z"/><path fill="#E58A7B" d="m55.543 43.547 1.18-.984.82 1.276-.605 1.064s-.961.885-1.81.434a1.524 1.524 0 0 1 .415-1.79Z"/><path fill="#E58A7B" d="m58.851 42.565-.088.322-1.867.312-.182-.636 2.137.002Z"/><path fill="#4CAF4F" d="m48.29 93.626-3.366-2.175.604-1.05 3.783 2.326-1.02.9Z"/><path fill="#263238" d="M42.57 95.36a2.03 2.03 0 0 1-.856-.314.053.053 0 0 1 .026-.081c.09-.03.884-.274 1.114-.086a.188.188 0 0 1 .065.18.313.313 0 0 1-.168.254.386.386 0 0 1-.18.047Zm-.663-.324c.37.188.664.256.805.185a.205.205 0 0 0 .106-.17c0-.048 0-.068-.026-.08-.124-.1-.566-.024-.89.065h.005Z"/><path fill="#263238" d="M41.76 95.086a.059.059 0 0 1-.041-.018.057.057 0 0 1 0-.053c0-.026.191-.666.492-.81a.295.295 0 0 1 .245 0 .194.194 0 0 1 .136.197c-.021.265-.56.63-.808.693l-.024-.01Zm.572-.805a.201.201 0 0 0-.083.02c-.182.09-.333.434-.406.643.26-.109.616-.398.628-.56 0-.026 0-.059-.068-.088a.22.22 0 0 0-.07-.024v.009ZM46.778 96.634c-.333 0-.796-.428-1.05-.69a.053.053 0 0 1 0-.062.062.062 0 0 1 .056-.03c.118 0 1.142.154 1.286.443a.168.168 0 0 1 0 .17.294.294 0 0 1-.233.166l-.059.003Zm-.855-.649c.371.36.699.56.884.537a.2.2 0 0 0 .154-.11.062.062 0 0 0 0-.067c-.077-.16-.622-.295-1.038-.36Z"/><path fill="#263238" d="M45.956 95.97a.962.962 0 0 1-.198-.014.053.053 0 0 1-.041-.033.062.062 0 0 1 0-.056c.017-.02.415-.501.793-.534a.41.41 0 0 1 .295.095c.115.1.109.189.08.245-.075.2-.585.297-.93.297Zm-.077-.109c.33.018.858-.091.926-.236 0 0 .023-.047-.053-.112a.294.294 0 0 0-.225-.07c-.254.07-.48.218-.648.421v-.003Z"/><path fill="#4CAF4F" d="m41.84 94.767-2.5-.707a.182.182 0 0 0-.222.103l-.843 1.896a.371.371 0 0 0 .245.498c.884.23 1.309.295 2.409.61.678.189 1.645.54 2.58.805.934.266 1.247-.645.884-.84-1.64-.867-1.769-1.474-2.217-2.123a.608.608 0 0 0-.336-.242Z"/><path fill="#4CAF4F" d="m45.796 95.599-2.134-1.474a.183.183 0 0 0-.242.023l-1.415 1.522a.37.37 0 0 0 .07.548c.752.504 1.142.707 2.082 1.36.59.4 1.73 1.29 2.527 1.845.796.554 1.388-.207 1.105-.507-1.267-1.354-1.545-2.203-1.754-2.972a.61.61 0 0 0-.239-.345ZM44.066 92.857l-3.848-1.913.398-1.044 4.11 2.016-.66.941ZM39.063 56.794l-.325.849c-.032.065.044.132.154.132h9.752c.086 0 .157-.04.163-.094l.082-.843c0-.056-.068-.106-.16-.106h-9.513a.182.182 0 0 0-.154.062Z"/><path fill="#fff" d="m39.063 56.794-.325.849c-.032.065.044.132.154.132h9.752c.086 0 .157-.04.163-.094l.082-.843c0-.056-.068-.106-.16-.106h-9.513a.182.182 0 0 0-.154.062Z" opacity=".4"/><path fill="#4CAF4F" d="M40.599 57.858h-.257c-.05 0-.088-.026-.085-.059l.12-1.094c0-.03.048-.056.098-.056h.256c.05 0 .089.027.086.056l-.121 1.094c-.003.033-.047.06-.097.06ZM46.613 57.858h-.254c-.05 0-.088-.026-.085-.059l.118-1.094c0-.03.05-.056.1-.056h.254c.05 0 .091.027.085.056l-.118 1.094c-.015.033-.047.06-.1.06Z"/><path fill="#F5F5F5" d="M40.374 107.787c4.363 0 7.899-.256 7.899-.572 0-.316-3.536-.572-7.899-.572-4.362 0-7.898.256-7.898.572 0 .316 3.536.572 7.898.572Z" style="mix-blend-mode:multiply"/><path fill="#E0E0E0" d="M45.186 106.407c-1.398-.407-2.948-.928-3.886-1.474-.026-.018-.056-.026-.082-.041v-6.327h2.827a.843.843 0 0 0 0-1.684h-2.813v-28.84h-1.698v28.84h-2.81a.842.842 0 0 0-.824 1.176.844.844 0 0 0 .824.508h2.81v6.318c-.026 0-.053.024-.08.041-.952.555-2.49 1.076-3.888 1.474a.416.416 0 0 0-.29.454.414.414 0 0 0 .405.354h9.39a.411.411 0 0 0 .327-.623.415.415 0 0 0-.212-.176Z"/><path fill="#4CAF4F" d="M45.62 65.105H35.134c-.843 0-1.527.684-1.527 1.527v3.117c0 .843.684 1.527 1.527 1.527H45.62c.844 0 1.528-.684 1.528-1.527v-3.117c0-.843-.684-1.527-1.528-1.527ZM35.038 71.279v.536c0 .442.48.802 1.07.802h8.55c.59 0 1.07-.36 1.07-.802v-.536h-10.69Z"/><path fill="#fff" d="M35.038 71.279v.536c0 .442.48.802 1.07.802h8.55c.59 0 1.07-.36 1.07-.802v-.536h-10.69Z" opacity=".3"/></svg>